<svg id="Слой_1" data-name="Слой 1" xmlns="http://www.w3.org/2000/svg" viewBox="0 0 1161 431.1"><defs><style>.cls-3{fill:none;stroke-miterlimit:10;stroke:#61bbd6;stroke-width:2px}.cls-4,.cls-5{font-size:34.04px;font-family:Roboto-Black,Roboto;font-weight:800;fill:#fff}.cls-5{font-size:12.94px;font-family:Roboto-Medium,Roboto;font-weight:500}</style></defs><path fill="#cd5a80" d="M-2 0h1166v434H-2z"/><path stroke="#fff" fill="none" stroke-miterlimit="10" d="M37 39v285l1070 1"/><path class="cls-3" d="M166 100v280M37 51v329M291 131l-2 249M402 202l-2 178M515 254l-2 126M635 263l-2 117M753 280l-2 100M870 280l-1 100M992 286l-2 94M1108 309l-2 71"/><text class="cls-4" transform="translate(0 29)">28.5%</text><text class="cls-4" transform="translate(145 69)">24%</text><text class="cls-4" transform="translate(261 114)">20%</text><text class="cls-4" transform="translate(375 187)">10%</text><text class="cls-4" transform="translate(495 242)">5%</text><text class="cls-4" transform="translate(613 252)">4%</text><text class="cls-4" transform="translate(722 265)">2.5%</text><text class="cls-4" transform="translate(837 265)">2.5%</text><text class="cls-4" transform="translate(969 265)">2%</text><text class="cls-4" transform="translate(1065 265)">1.5%</text><text class="cls-5" transform="translate(22 412)">Employee<tspan x="-14.8" y="15.5">Overwrote Data</tspan></text><text class="cls-5" transform="translate(134 412)">Compliance<tspan x="15.9" y="15.5">Needs</tspan></text><text class="cls-5" transform="translate(262 412)">Accidental<tspan x="5.5" y="15.5">Deletion</tspan></text><text class="cls-5" transform="translate(375 412)">Employee<tspan x="-2.5" y="15.5">Departures</tspan></text><text class="cls-5" transform="translate(475 412)">Ransomware</text><text class="cls-5" transform="translate(587 412)">Malicious Delete<tspan x="16.7" y="15.5" letter-spacing="0em">by Insiders</tspan></text><text class="cls-5" transform="translate(714 412)">Malware from<tspan x="-6.5" y="15.5">Third</tspan><tspan x="26.8" y="15.5" letter-spacing="0em">P</tspan><tspan x="35" y="15.5">a</tspan><tspan x="42" y="15.5" letter-spacing="0em">r</tspan><tspan x="46.9" y="15.5">ty </tspan><tspan x="60.7" y="15.5" letter-spacing="0em">A</tspan><tspan x="69" y="15.5">pp</tspan></text><text class="cls-5" transform="translate(834 412)">Data Deletion<tspan x="8.9" y="15.5">by Hackers</tspan></text><text class="cls-5" transform="translate(951 412)">Ended Service<tspan x="1" y="15.5">and Data Lost</tspan></text><text class="cls-5" transform="translate(1054 412)">Outages at Google<tspan x="18" y="15.5">or Microsoft</tspan></text><g stroke="#61bbd6" fill="none" stroke-miterlimit="10"><path d="M39 57s81-11 123 41c20 25 59 2 132 38 49 24 52 61 107 71 57 10 58 53 116 53s99 18 121 10c31-12 90 17 121 16h118s86 14 118 5 32 26 112 19" stroke-width=".8"/><path d="M39 69s83-10 123 39c19 24 62 3 132 37 47 23 56 58 108 67 54 10 61 51 116 51s100 17 121 9c30-11 91 16 121 16h117s87 13 118 4 36 26 112 19" stroke-width=".9"/><path d="M39 82s86-10 123 37c19 23 66 2 132 35 45 21 59 55 109 64 51 9 64 48 116 48s101 16 121 9c28-10 92 15 120 14h118s88 13 117 5 39 25 112 18" stroke-width="1.1"/><path d="M39 95s88-10 124 35c17 21 69 2 132 33 42 20 62 52 109 60 49 9 67 46 117 46s101 15 120 8c27-9 94 15 120 14h117s90 12 117 4 43 25 111 19" stroke-width="1.2"/><path d="M39 107s90-9 124 34c16 20 73 1 132 30 40 20 65 50 110 58 46 8 70 43 117 43s102 14 120 8c25-9 95 14 120 13h117s90 11 116 4 46 24 111 18" stroke-width="1.4"/><path d="M40 120s92-8 123 31c16 19 77 2 132 29 38 19 69 47 111 54 43 8 73 41 118 41s102 14 119 7c24-8 96 13 120 13h116s92 10 117 3 49 24 110 18" stroke-width="1.5"/><path d="M40 133s94-8 124 29c14 18 79 2 132 27 35 17 72 44 111 51 41 7 76 38 118 38s103 13 119 7c23-8 97 12 120 11h116s93 10 116 4 53 23 110 18" stroke-width="1.7"/><path d="M40 145s96-7 124 28c13 16 83 1 132 25 32 16 75 41 112 47 38 7 80 36 118 36s104 12 119 6c21-7 99 12 119 11h116s95 9 116 3 56 22 110 18" stroke-width="1.8"/><path d="M40 158s99-7 124 26c13 15 87 1 132 23 30 15 79 38 113 44 35 6 83 33 119 33s105 11 118 6c20-7 100 11 119 10h115s96 9 116 3 62 13 112 9" stroke-width="2"/><path d="M40 171s101-7 125 23c11 15 90 1 131 22 28 14 83 35 114 41 33 5 86 30 119 30s106 10 118 6c18-7 101 9 119 9h115s97 8 115 3 66 12 112 8" stroke-width="2.1"/><path d="M40 183s103-5 125 22c11 13 93 1 132 20 25 12 85 32 114 37 30 5 89 28 119 28s107 9 118 5c17-6 103 9 119 8h114s99 8 115 3c0 0 69 12 111 9" stroke-width="2.3"/><path d="M40 196s106-5 125 20c10 12 97 1 132 18 23 11 89 29 115 34 27 4 92 25 120 25s107 8 117 5c15-6 104 8 119 7h114s99 7 114 3c0 0 73 11 111 8" stroke-width="2.5"/><path d="M41 209s107-5 125 17c8 11 100 1 131 17 21 10 93 26 116 30 25 4 95 23 120 23s108 8 117 4c14-5 105 7 118 7h114s101 6 115 2 76 11 110 8" stroke-width="2.6"/><path d="M41 221s109-4 125 16c8 10 104 1 132 15 18 9 95 23 116 27 22 3 98 20 120 20s109 7 117 4c12-5 106 6 118 6h114s102 5 114 2 79 10 110 8" stroke-width="2.8"/><path d="M41 234s112-4 125 14c7 8 107 1 132 12 16 8 99 21 117 24 19 3 101 18 121 18s109 6 116 3c11-4 108 6 118 5h113s103 5 114 2c0 0 83 10 110 8" stroke-width="2.9"/><path d="M41 247s114-3 126 12c5 7 110 0 131 10 14 7 103 18 118 21 17 3 104 15 121 15s110 5 116 3c9-4 109 5 118 4h113s104 4 113 2c0 0 87 9 110 7" stroke-width="3.1"/><path d="M41 259s116-2 126 10c5 6 114 1 131 9 12 6 106 15 119 17 14 3 107 13 121 13s111 4 117 2c7-3 109 4 117 4h112s106 3 113 1 91 9 110 7" stroke-width="3.2"/><path d="M41 272s118-2 126 8c4 5 118 0 132 7 9 5 109 12 119 14 11 2 111 10 122 10s111 3 116 2c6-2 111 3 116 3h113s106 2 112 1 96 2 111 1" stroke-width="3.4"/><path d="M41 285s121-2 127 6c3 3 120 0 131 5 7 4 113 9 120 10 9 2 114 8 122 8s112 2 116 1 112 3 116 3h112s108 2 113 0 99 2 110 1" stroke-width="3.5"/><path d="M42 297s122-1 126 4c2 3 124 1 131 4 5 2 116 6 121 7l122 5c5 0 113 2 116 1s113 1 116 1h112s109 2 112 1 102 1 110 0" stroke-width="3.7"/><path d="M42 310s124 0 126 2c1 1 128 0 132 2l121 3 123 3h115l116 1h223c2-1 106 1 110 1" stroke-width="3.9"/><path stroke-width="4" d="M42 323h1066"/></g></svg>