<svg xmlns="http://www.w3.org/2000/svg" xmlns:xlink="http://www.w3.org/1999/xlink" viewBox="0 0 1440 1024" fill="none"><style><![CDATA[.B{fill:#cd5a80}.C{stroke:#fff}.D{stroke-width:3}.E{stroke-miterlimit:10}.F{fill:#f2f2f2}.G{stroke:#e7e3e3}]]></style><path d="M604.713 395.906h28.406v21.235h-28.406v47.531h-26.156v-47.531h-93.235v-15.328l91.688-141.891h27.703zm-89.86 0h63.704V295.5l-3.094 5.625zm270.141-18.562c0 30.469-5.203 53.109-15.609 67.922s-26.672 22.218-48.797 22.218c-21.844 0-38.016-7.218-48.516-21.656-10.5-14.531-15.937-36.187-16.312-64.968v-34.735c0-30.094 5.203-52.453 15.609-67.078s26.719-21.937 48.938-21.937c22.031 0 38.25 7.078 48.656 21.234 10.406 14.062 15.75 35.812 16.031 65.25zm-26.016-35.578c0-22.032-3.093-38.063-9.281-48.094-6.187-10.125-15.984-15.188-29.39-15.188-13.313 0-23.016 5.016-29.11 15.047s-9.234 25.453-9.422 46.266v41.625c0 22.125 3.188 38.484 9.563 49.078 6.469 10.5 16.219 15.75 29.25 15.75 12.843 0 22.359-4.969 28.547-14.906 6.281-9.938 9.562-25.594 9.843-46.969zm169.172 54.14h28.407v21.235H928.15v47.531h-26.156v-47.531H808.76v-15.328l91.687-141.891h27.703zm-89.859 0h63.703V295.5l-3.094 5.625zM530.635 521.953l.281 6.375c3.875-4.875 8.937-7.312 15.187-7.312 10.719 0 16.125 6.047 16.219 18.14v33.516h-8.672V539.11c-.031-3.657-.875-6.36-2.531-8.11-1.625-1.75-4.172-2.625-7.641-2.625-2.812 0-5.281.75-7.406 2.25s-3.781 3.469-4.969 5.906v36.141h-8.672v-50.719zm42.468 24.891c0-4.969.969-9.438 2.907-13.406 1.968-3.969 4.687-7.032 8.156-9.188 3.5-2.156 7.484-3.234 11.953-3.234 6.906 0 12.484 2.39 16.734 7.172 4.282 4.781 6.422 11.14 6.422 19.078v.609c0 4.938-.953 9.375-2.859 13.313-1.875 3.906-4.578 6.953-8.109 9.14-3.5 2.188-7.532 3.282-12.094 3.282-6.875 0-12.453-2.391-16.735-7.172-4.25-4.782-6.375-11.11-6.375-18.985zm8.719 1.031c0 5.625 1.297 10.141 3.891 13.547 2.625 3.406 6.125 5.109 10.5 5.109 4.406 0 7.906-1.718 10.5-5.156 2.594-3.469 3.89-8.312 3.89-14.531 0-5.563-1.328-10.063-3.984-13.5-2.625-3.469-6.125-5.203-10.5-5.203-4.281 0-7.734 1.703-10.359 5.109s-3.938 8.281-3.938 14.625zm60.094-38.203v12.281h9.469v6.703h-9.469v31.454c0 2.031.422 3.562 1.265 4.593.844 1 2.282 1.5 4.313 1.5 1 0 2.375-.187 4.125-.562v7.031c-2.281.625-4.5.938-6.656.938-3.875 0-6.797-1.172-8.766-3.516s-2.953-5.672-2.953-9.984v-31.454h-9.234v-6.703h9.234v-12.281zm47.719 63v-44.016h-8.016v-6.703h8.016v-5.203c0-5.437 1.453-9.64 4.359-12.609s7.016-4.453 12.328-4.453a22.76 22.76 0 0 1 5.953.796l-.468 7.032c-1.469-.282-3.032-.422-4.688-.422-2.812 0-4.984.828-6.516 2.484-1.531 1.625-2.296 3.969-2.296 7.032v5.343h10.828v6.703h-10.828v44.016zm26.812-25.828c0-4.969.969-9.438 2.906-13.406 1.969-3.969 4.688-7.032 8.157-9.188 3.5-2.156 7.484-3.234 11.953-3.234 6.906 0 12.484 2.39 16.734 7.172 4.281 4.781 6.422 11.14 6.422 19.078v.609c0 4.938-.953 9.375-2.859 13.313-1.875 3.906-4.579 6.953-8.11 9.14-3.5 2.188-7.531 3.282-12.093 3.282-6.876 0-12.454-2.391-16.735-7.172-4.25-4.782-6.375-11.11-6.375-18.985zm8.719 1.031c0 5.625 1.297 10.141 3.891 13.547 2.624 3.406 6.124 5.109 10.5 5.109 4.406 0 7.906-1.718 10.5-5.156 2.593-3.469 3.89-8.312 3.89-14.531 0-5.563-1.328-10.063-3.984-13.5-2.625-3.469-6.125-5.203-10.5-5.203-4.282 0-7.735 1.703-10.36 5.109s-3.937 8.281-3.937 14.625zm79.641 19.781c-3.376 3.969-8.329 5.954-14.86 5.954-5.406 0-9.531-1.563-12.375-4.688-2.812-3.156-4.234-7.812-4.265-13.969v-33h8.671v32.766c0 7.687 3.125 11.531 9.375 11.531 6.625 0 11.032-2.469 13.219-7.406v-36.891h8.672v50.719h-8.25zm29.859-45.703l.281 6.375c3.875-4.875 8.938-7.312 15.188-7.312 10.718 0 16.125 6.047 16.218 18.14v33.516h-8.672V539.11c-.031-3.657-.874-6.36-2.531-8.11-1.625-1.75-4.172-2.625-7.64-2.625-2.813 0-5.282.75-7.407 2.25s-3.781 3.469-4.968 5.906v36.141h-8.672v-50.719zm42.656 24.938c0-7.781 1.844-14.031 5.531-18.75 3.688-4.75 8.516-7.125 14.485-7.125 5.937 0 10.64 2.031 14.109 6.094v-26.438h8.672v72h-7.969l-.422-5.438c-3.468 4.25-8.297 6.376-14.484 6.376-5.875 0-10.672-2.407-14.391-7.219-3.687-4.813-5.531-11.094-5.531-18.844zm8.672.984c0 5.75 1.187 10.25 3.563 13.5s5.656 4.875 9.843 4.875c5.5 0 9.516-2.469 12.047-7.406v-23.297c-2.594-4.781-6.578-7.172-11.953-7.172-4.25 0-7.563 1.641-9.937 4.922s-3.563 8.141-3.563 14.578z" fill="#e7e3e3"/><g clip-path="url(#A)" transform="translate(1.869 -123.328)"><g class="C D E"><path d="M690.562 364.08c.008-11.8-4.282-23.198-12.069-32.064a48.54 48.54 0 0 0-30.239-16.105c-1.51-11.719-7.228-22.49-16.09-30.307s-20.262-12.147-32.078-12.183c-8.783-.004-17.399 2.404-24.908 6.96a59.53 59.53 0 0 0-40.432-48.105c-10.555-3.448-21.865-3.875-32.651-1.233s-20.616 8.25-28.382 16.187a88.28 88.28 0 0 0-33.993-50c-16.863-12.146-37.47-17.954-58.194-16.4a88.28 88.28 0 0 0-81.256 79.404 50.55 50.55 0 0 0-20.329-4.395 48.53 48.53 0 0 0-30.38 10.621c-8.623 6.892-14.64 16.518-17.056 27.29l-5.678-.366c-8.09-.002-16.051 2.025-23.155 5.897a48.35 48.35 0 0 0-17.504 16.264c-12.872.122-25.169 5.352-34.185 14.539s-14.013 21.581-13.891 34.454 5.351 25.169 14.539 34.185 21.581 14.013 34.453 13.891h457.141c12.472-.61 24.234-5.986 32.856-15.018s13.449-21.029 13.481-33.516z" class="B"/><path d="M184.886 315.545c6.085 0 12.111 1.199 17.733 3.527a46.34 46.34 0 0 1 25.077 25.078 46.35 46.35 0 0 1 3.527 17.732m384.247 50.732c.049-12.306 4.971-24.091 13.69-32.776s20.524-13.561 32.83-13.56m-86.263-86.081c-10.256 8.425-15.385 20.879-15.385 35.348m-86.08-69.597c-.018 10.05-1.753 20.022-5.128 29.487"/></g><path d="M416.753 315.545a41.94 41.94 0 0 1 41.942-41.941 41.94 41.94 0 0 1 41.941 41.941" class="B"/><g class="C D E"><path d="M416.753 315.545a41.94 41.94 0 0 1 41.942-41.941 41.94 41.94 0 0 1 41.941 41.941"/><g class="B"><use xlink:href="#E"/><use xlink:href="#F"/><path d="M304.117 352.908a10.99 10.99 0 0 0 10.988-10.989 10.99 10.99 0 0 0-10.988-10.989 10.99 10.99 0 0 0-10.989 10.989 10.99 10.99 0 0 0 10.989 10.989zm196.519-17.583a10.99 10.99 0 0 0 10.989-10.989 10.99 10.99 0 0 0-10.989-10.989 10.99 10.99 0 0 0-10.989 10.989 10.99 10.99 0 0 0 10.989 10.989zm-86.08-2.197a10.99 10.99 0 0 0 10.989-10.989 10.99 10.99 0 0 0-10.989-10.989 10.99 10.99 0 0 0-10.989 10.989 10.99 10.99 0 0 0 10.989 10.989zm145.786 2.197a10.99 10.99 0 0 0 10.989-10.989 10.99 10.99 0 0 0-10.989-10.989 10.99 10.99 0 0 0-10.988 10.989 10.99 10.99 0 0 0 10.988 10.989z"/></g><path d="M231.223 414.812v-24.359m72.894-37.545v60.622m92.856-42.857v44.139m81.685-20.879v17.582m46.337-66.3v70.696"/></g><path d="M142.212 153.458c-.028-7.183-2.66-14.112-7.41-19.501s-11.291-8.872-18.414-9.803a29.49 29.49 0 0 0-9.763-18.46c-5.397-4.756-12.347-7.375-19.54-7.364a28.21 28.21 0 0 0-15.201 4.212c-1.234-8.641-5.544-16.547-12.138-22.266s-15.03-8.868-23.759-8.869a36.63 36.63 0 0 0-25.824 10.806A54.03 54.03 0 0 0-42.036 41.92c-13.315.021-26.15 4.975-36.026 13.904s-16.095 21.202-17.453 34.447c-3.851-1.771-8.032-2.707-12.27-2.747a29.49 29.49 0 0 0-18.429 6.49c-5.227 4.195-8.869 10.045-10.326 16.587h-3.48a29.49 29.49 0 0 0-14.19 3.586c-4.354 2.369-8.04 5.797-10.718 9.967a29.3 29.3 0 0 0-19.61 9.271c-5.11 5.485-7.924 12.72-7.862 20.216a29.67 29.67 0 0 0 28.205 29.304h278.02a29.67 29.67 0 0 0 20.093-9.065c5.285-5.489 8.256-12.802 8.295-20.422z" class="B"/></g><path d="M602.369 130.672l35.5-71" class="G"/><g clip-path="url(#B)" transform="translate(1.869 -123.328)" class="B"><use xlink:href="#G"/></g><path d="M1140.869 155.672l20.5-36.5" stroke="#000"/><path d="M551.986 44.453l2.625-12.843h2.942l-3.938 17.062h-2.836l-3.246-12.457-3.316 12.457h-2.848l-3.938-17.062h2.942l2.648 12.82 3.258-12.82h2.485zm10.266-7.078c.929-1.078 2.105-1.617 3.527-1.617 2.703 0 4.074 1.543 4.113 4.629v8.285h-2.847v-8.18c0-.875-.192-1.492-.574-1.851-.375-.367-.93-.551-1.664-.551-1.141 0-1.993.508-2.555 1.523v9.059h-2.848v-18h2.848zm16.113 11.531c-1.805 0-3.269-.566-4.394-1.699-1.118-1.14-1.676-2.656-1.676-4.547v-.351c0-1.266.242-2.395.726-3.387.493-1 1.18-1.777 2.063-2.332s1.867-.832 2.953-.832c1.727 0 3.059.551 3.996 1.652.945 1.102 1.418 2.66 1.418 4.676v1.148h-8.285c.086 1.047.433 1.876 1.043 2.485.617.609 1.39.914 2.32.914 1.305 0 2.367-.527 3.188-1.582l1.535 1.465c-.508.758-1.188 1.347-2.039 1.769-.844.414-1.793.621-2.848.621zm-.34-10.863c-.781 0-1.414.274-1.898.82-.477.547-.781 1.309-.914 2.286h5.426v-.211c-.063-.954-.317-1.672-.762-2.157-.446-.492-1.063-.738-1.852-.738zm14.285.551c-.375-.063-.761-.094-1.16-.094-1.304 0-2.183.5-2.636 1.5v8.672h-2.848v-12.68h2.719l.07 1.418c.687-1.101 1.641-1.652 2.859-1.652.407 0 .743.055 1.008.164zm7.149 10.312c-1.805 0-3.27-.566-4.395-1.699-1.117-1.14-1.675-2.656-1.675-4.547v-.351c0-1.266.242-2.395.726-3.387.492-1 1.18-1.777 2.063-2.332s1.867-.832 2.953-.832c1.726 0 3.058.551 3.996 1.652.945 1.102 1.418 2.66 1.418 4.676v1.148h-8.285c.086 1.047.433 1.876 1.043 2.485.617.609 1.39.914 2.32.914 1.305 0 2.367-.527 3.187-1.582l1.536 1.465c-.508.758-1.188 1.347-2.039 1.769-.844.414-1.793.621-2.848.621zm-.34-10.863c-.781 0-1.414.274-1.898.82-.477.547-.782 1.309-.914 2.286h5.425v-.211c-.062-.954-.316-1.672-.761-2.157-.446-.492-1.063-.738-1.852-.738zm16.652 10.629h-2.847v-12.68h2.847zm-3.023-15.973c0-.437.137-.8.41-1.089.281-.29.68-.434 1.195-.434s.914.144 1.196.434.422.652.422 1.089c0 .43-.141.789-.422 1.078-.282.282-.68.422-1.196.422s-.914-.14-1.195-.422c-.273-.289-.41-.648-.41-1.078zm13.242 12.528c0-.508-.211-.895-.633-1.16-.414-.266-1.105-.5-2.074-.704s-1.777-.461-2.426-.773c-1.422-.688-2.133-1.684-2.133-2.988 0-1.094.461-2.008 1.383-2.742s2.094-1.102 3.516-1.102c1.516 0 2.738.375 3.668 1.125.937.75 1.406 1.723 1.406 2.918h-2.848c0-.547-.203-1-.609-1.359-.406-.368-.945-.551-1.617-.551-.625 0-1.137.144-1.535.433a1.37 1.37 0 0 0-.586 1.16 1.15 1.15 0 0 0 .551 1.02c.367.242 1.109.488 2.226.738 1.117.242 1.992.535 2.625.879.641.336 1.113.742 1.418 1.219.313.477.469 1.055.469 1.734 0 1.141-.473 2.067-1.418 2.778-.945.703-2.184 1.054-3.715 1.054-1.039 0-1.965-.187-2.777-.562s-1.446-.891-1.899-1.547a3.66 3.66 0 0 1-.679-2.121h2.765c.039.672.293 1.191.762 1.558.469.36 1.09.54 1.863.54.75 0 1.321-.141 1.711-.422.391-.289.586-.664.586-1.125zm14.836-12.317v3.082h2.238v2.11h-2.238v7.078c0 .484.094.836.281 1.054.196.211.539.317 1.032.317.328 0 .66-.039.996-.117v2.203c-.649.18-1.274.269-1.875.269-2.188 0-3.282-1.207-3.282-3.621v-7.183h-2.086v-2.11h2.086V32.91zm7.231 4.465c.929-1.078 2.105-1.617 3.527-1.617 2.703 0 4.074 1.543 4.113 4.629v8.285h-2.848v-8.18c0-.875-.191-1.492-.574-1.851-.375-.367-.929-.551-1.664-.551-1.14 0-1.992.508-2.554 1.523v9.059h-2.848v-18h2.848zm13.558 11.297h-2.848v-12.68h2.848zm-3.023-15.973c0-.437.136-.8.41-1.089.281-.29.679-.434 1.195-.434s.914.144 1.195.434.422.652.422 1.089a1.48 1.48 0 0 1-.422 1.078c-.281.282-.679.422-1.195.422s-.914-.14-1.195-.422c-.274-.289-.41-.648-.41-1.078zm13.242 12.528c0-.508-.211-.895-.633-1.16-.414-.266-1.105-.5-2.074-.704s-1.778-.461-2.426-.773c-1.422-.688-2.133-1.684-2.133-2.988 0-1.094.461-2.008 1.383-2.742s2.094-1.102 3.516-1.102c1.515 0 2.738.375 3.668 1.125.937.75 1.406 1.723 1.406 2.918h-2.848c0-.547-.203-1-.609-1.359-.406-.368-.945-.551-1.617-.551-.625 0-1.137.144-1.536.433a1.37 1.37 0 0 0-.585 1.16 1.15 1.15 0 0 0 .55 1.02c.368.242 1.11.488 2.227.738 1.117.242 1.992.535 2.625.879.641.336 1.113.742 1.418 1.219.312.477.469 1.055.469 1.734 0 1.141-.473 2.067-1.418 2.778-.946.703-2.184 1.054-3.715 1.054-1.039 0-1.965-.187-2.778-.562s-1.445-.891-1.898-1.547-.68-1.363-.68-2.121h2.766c.039.672.293 1.191.762 1.558.468.36 1.09.54 1.863.54.75 0 1.32-.141 1.711-.422.391-.289.586-.664.586-1.125zm22.371-2.766c0 1.961-.445 3.527-1.336 4.699-.891 1.164-2.086 1.746-3.586 1.746-1.391 0-2.504-.457-3.34-1.371v6.012h-2.847V35.992h2.625l.117 1.289c.836-1.015 1.972-1.523 3.41-1.523 1.547 0 2.758.578 3.633 1.734.883 1.149 1.324 2.746 1.324 4.793zm-2.836-.246c0-1.266-.254-2.27-.762-3.012-.5-.742-1.218-1.113-2.156-1.113-1.164 0-2 .48-2.508 1.441v5.625c.516.985 1.36 1.477 2.531 1.477a2.44 2.44 0 0 0 2.122-1.09c.515-.734.773-1.844.773-3.328zm12.832 6.457c-.125-.242-.234-.637-.328-1.184-.906.946-2.016 1.418-3.328 1.418-1.274 0-2.313-.363-3.117-1.089s-1.207-1.625-1.207-2.696c0-1.351.5-2.387 1.5-3.105 1.007-.727 2.445-1.09 4.312-1.09h1.746v-.832c0-.656-.183-1.18-.551-1.57-.367-.399-.925-.598-1.675-.598-.649 0-1.18.164-1.594.492-.414.32-.621.731-.621 1.231h-2.848c0-.696.231-1.344.691-1.946.461-.609 1.086-1.086 1.876-1.429.796-.344 1.683-.516 2.66-.516 1.484 0 2.668.375 3.55 1.125.883.742 1.336 1.789 1.36 3.141v5.718c0 1.141.16 2.051.48 2.731v.199zm-3.129-2.051a3.21 3.21 0 0 0 1.582-.41c.5-.273.875-.641 1.125-1.101v-2.391h-1.535c-1.055 0-1.848.183-2.379.551s-.797.886-.797 1.558c0 .547.18.985.539 1.313.367.32.856.48 1.465.48zm8.039-4.383c0-1.968.461-3.539 1.383-4.711.93-1.179 2.16-1.769 3.691-1.769 1.446 0 2.582.504 3.411 1.512l.128-1.278h2.567v12.293c0 1.664-.52 2.977-1.559 3.938-1.031.961-2.425 1.441-4.183 1.441-.93 0-1.84-.195-2.731-.586-.883-.383-1.554-.886-2.015-1.511l1.347-1.711c.875 1.039 1.953 1.558 3.235 1.558.945 0 1.691-.258 2.238-.773.547-.508.82-1.258.82-2.25v-.856c-.82.914-1.914 1.371-3.281 1.371-1.484 0-2.699-.589-3.645-1.769-.937-1.18-1.406-2.813-1.406-4.899zm2.836.246c0 1.274.258 2.278.774 3.012a2.52 2.52 0 0 0 2.168 1.09c1.148 0 2-.492 2.554-1.476v-5.579c-.539-.961-1.383-1.441-2.531-1.441-.938 0-1.668.371-2.191 1.113-.516.742-.774 1.836-.774 3.281zm16.863 6.422c-1.804 0-3.269-.566-4.394-1.699-1.117-1.14-1.676-2.656-1.676-4.547v-.351c0-1.266.242-2.395.727-3.387.492-1 1.179-1.777 2.062-2.332s1.867-.832 2.953-.832c1.727 0 3.059.551 3.996 1.652.946 1.102 1.418 2.66 1.418 4.676v1.148h-8.285c.086 1.047.434 1.876 1.043 2.485.617.609 1.391.914 2.32.914 1.305 0 2.368-.527 3.188-1.582l1.535 1.465c-.508.758-1.187 1.347-2.039 1.769-.844.414-1.793.621-2.848.621zm-.339-10.863c-.782 0-1.414.274-1.899.82-.476.547-.781 1.309-.914 2.286h5.426v-.211c-.063-.954-.317-1.672-.762-2.157-.445-.492-1.062-.738-1.851-.738zm10.289 5.613c0-1.039.129-1.867.386-2.484s.766-1.293 1.524-2.027c.765-.743 1.25-1.27 1.453-1.582.312-.477.469-.993.469-1.547 0-.735-.184-1.293-.551-1.676-.36-.391-.891-.586-1.594-.586-.672 0-1.215.191-1.629.574-.406.375-.609.887-.609 1.535h-2.848c.016-1.382.485-2.476 1.406-3.281.93-.805 2.157-1.207 3.68-1.207 1.57 0 2.793.399 3.668 1.195.883.797 1.324 1.911 1.324 3.34 0 1.274-.593 2.528-1.781 3.762l-1.441 1.418c-.516.586-.782 1.441-.797 2.566zm-.2 3.645c0-.461.145-.832.434-1.113.289-.289.68-.434 1.172-.434.5 0 .894.148 1.183.445.29.289.434.657.434 1.102 0 .43-.141.789-.422 1.078s-.68.434-1.195.434-.914-.145-1.195-.434c-.274-.289-.411-.648-.411-1.078z" class="F"/><g clip-path="url(#C)" transform="translate(1.869 -123.328)"><g class="C D E"><path d="M686.403 791.093a33.15 33.15 0 0 0-28.897-32.899c-1.031-8.004-4.937-15.361-10.989-20.7s-13.839-8.296-21.91-8.321a32.78 32.78 0 0 0-17.012 4.753c-1.08-7.507-4.239-14.562-9.119-20.368s-11.287-10.132-18.496-12.487a40.66 40.66 0 0 0-22.301-.842 40.65 40.65 0 0 0-19.385 11.056c-3.478-13.762-11.7-25.855-23.217-34.151s-25.593-12.262-39.748-11.201-27.48 7.082-37.632 17.002a60.3 60.3 0 0 0-17.866 37.231 34.52 34.52 0 0 0-13.885-3.002 33.15 33.15 0 0 0-20.749 7.254 33.16 33.16 0 0 0-11.65 18.64l-3.877-.25a33.02 33.02 0 0 0-15.815 4.027c-4.852 2.645-8.963 6.464-11.956 11.109a33.15 33.15 0 0 0-32.836 33.462 33.15 33.15 0 0 0 33.462 32.837h312.229c8.519-.417 16.552-4.089 22.441-10.257s9.186-14.364 9.208-22.893z" class="B"/><path d="M341.024 757.944c4.156 0 8.271.819 12.111 2.409s7.328 3.922 10.267 6.861a31.64 31.64 0 0 1 6.861 10.267c1.59 3.84 2.409 7.955 2.409 12.111m262.443 34.651c.033-8.405 3.395-16.455 9.35-22.387a31.77 31.77 0 0 1 22.423-9.261m-58.918-58.794c-7.005 5.755-10.508 14.261-10.508 24.143m-58.793-47.535c-.013 6.864-1.197 13.675-3.503 20.14"/></g><use xlink:href="#H" class="B"/><g class="C D E"><use xlink:href="#H"/><g class="B"><path d="M422.458 735.177c4.146 0 7.506-3.36 7.506-7.505a7.51 7.51 0 0 0-7.506-7.506 7.51 7.51 0 0 0-7.505 7.506c0 4.145 3.36 7.505 7.505 7.505zm-49.786 73.93a7.51 7.51 0 0 0 7.505-7.506c0-4.145-3.36-7.505-7.505-7.505a7.51 7.51 0 0 0-7.506 7.505 7.51 7.51 0 0 0 7.506 7.506zm49.786-25.644a7.51 7.51 0 0 0 7.506-7.506c0-4.145-3.36-7.505-7.506-7.505s-7.505 3.36-7.505 7.505a7.51 7.51 0 0 0 7.505 7.506z"/><use xlink:href="#I"/><path d="M497.889 769.953c4.145 0 7.505-3.36 7.505-7.506s-3.36-7.505-7.505-7.505a7.51 7.51 0 0 0-7.506 7.505 7.51 7.51 0 0 0 7.506 7.506zm99.573 1.501a7.51 7.51 0 0 0 7.506-7.506 7.51 7.51 0 0 0-7.506-7.505c-4.145 0-7.505 3.36-7.505 7.505a7.51 7.51 0 0 0 7.505 7.506z"/></g><path d="M372.672 825.744v-16.637m49.786-25.644v41.405m63.422-29.271v30.147m55.791-14.261v12.009m31.648-45.283v48.285"/></g><path d="M311.877 647.238a20.26 20.26 0 0 0-5.061-13.319c-3.244-3.681-7.712-6.06-12.577-6.696a20.14 20.14 0 0 0-6.668-12.608c-3.686-3.249-8.433-5.038-13.347-5.03a19.26 19.26 0 0 0-10.382 2.877c-.843-5.902-3.787-11.302-8.291-15.208s-10.265-6.057-16.227-6.058a25.02 25.02 0 0 0-17.638 7.381c-2.071-7.879-6.692-14.851-13.141-19.83a36.9 36.9 0 0 0-22.51-7.69c-9.095.014-17.861 3.397-24.607 9.496a36.78 36.78 0 0 0-11.92 23.528 20.51 20.51 0 0 0-8.381-1.876c-4.578.004-9.017 1.567-12.587 4.432a20.14 20.14 0 0 0-7.053 11.329h-2.377a20.14 20.14 0 0 0-9.692 2.449c-2.973 1.618-5.491 3.96-7.32 6.808-5.11.32-9.904 2.586-13.394 6.332s-5.412 8.688-5.37 13.808c.058 5.162 2.083 10.108 5.663 13.827a20.26 20.26 0 0 0 13.601 6.187h189.89c5.2-.224 10.114-2.441 13.723-6.191a20.26 20.26 0 0 0 5.666-13.948z" class="B"/><path d="M347.5 710L312 639" class="C"/></g><path d="M248.139 505.672h-2.965l-7.606-12.105v12.105h-2.965V488.61h2.965l7.629 12.152V488.61h2.942zm2.695-6.457c0-1.242.246-2.359.738-3.352.492-1 1.184-1.765 2.074-2.296.891-.54 1.914-.809 3.071-.809 1.711 0 3.097.551 4.16 1.652 1.07 1.102 1.648 2.563 1.734 4.383l.012.668c0 1.25-.242 2.367-.727 3.352-.476.984-1.164 1.746-2.062 2.285-.891.539-1.922.808-3.094.808-1.789 0-3.223-.593-4.301-1.781-1.07-1.195-1.605-2.785-1.605-4.769zm2.847.246c0 1.305.27 2.328.809 3.07.539.735 1.289 1.102 2.25 1.102s1.707-.375 2.238-1.125c.539-.75.809-1.848.809-3.293 0-1.281-.277-2.297-.832-3.047a2.62 2.62 0 0 0-2.238-1.125c-.93 0-1.668.371-2.215 1.113-.547.735-.821 1.836-.821 3.305zm28.454 0c0 1.969-.442 3.535-1.325 4.699-.875 1.164-2.082 1.746-3.621 1.746-1.484 0-2.64-.535-3.468-1.605l-.141 1.371h-2.578v-18h2.847v6.539c.821-.969 1.926-1.453 3.317-1.453 1.547 0 2.762.574 3.644 1.723s1.325 2.753 1.325 4.816zm-2.848-.246c0-1.375-.242-2.406-.727-3.094s-1.187-1.031-2.109-1.031c-1.234 0-2.102.539-2.602 1.617v5.227c.508 1.101 1.383 1.652 2.625 1.652.891 0 1.579-.332 2.063-.996s.734-1.668.75-3.012zm12.82 6.457c-.125-.242-.234-.637-.328-1.184-.906.946-2.015 1.418-3.328 1.418-1.273 0-2.312-.363-3.117-1.089s-1.207-1.625-1.207-2.696c0-1.351.5-2.387 1.5-3.105 1.008-.727 2.445-1.09 4.312-1.09h1.746v-.832c0-.656-.183-1.18-.55-1.57-.368-.399-.926-.598-1.676-.598-.649 0-1.18.164-1.594.492-.414.32-.621.731-.621 1.231h-2.848c0-.696.231-1.344.692-1.946.461-.609 1.086-1.086 1.875-1.429.797-.344 1.683-.516 2.66-.516 1.484 0 2.668.375 3.551 1.125.883.742 1.336 1.789 1.359 3.141v5.718c0 1.141.16 2.051.481 2.731v.199zm-3.129-2.051a3.21 3.21 0 0 0 1.582-.41c.5-.273.875-.641 1.125-1.101v-2.391h-1.535c-1.054 0-1.847.183-2.379.551s-.797.886-.797 1.558c0 .547.18.985.54 1.313.367.32.855.48 1.464.48zm13.746.012c.711 0 1.301-.207 1.77-.621a2.12 2.12 0 0 0 .75-1.535h2.684c-.032.789-.278 1.527-.739 2.215-.461.679-1.086 1.218-1.875 1.617a5.59 5.59 0 0 1-2.554.597c-1.774 0-3.18-.574-4.219-1.722s-1.559-2.735-1.559-4.758v-.293c0-1.93.516-3.473 1.547-4.629 1.031-1.164 2.438-1.746 4.219-1.746 1.508 0 2.734.441 3.68 1.324.953.875 1.453 2.028 1.5 3.457h-2.684c-.031-.726-.281-1.324-.75-1.793-.461-.469-1.051-.703-1.77-.703-.921 0-1.632.336-2.132 1.008-.5.664-.754 1.676-.762 3.035v.457c0 1.375.246 2.402.738 3.082.5.672 1.219 1.008 2.156 1.008zm11.473-3.399l-1.266 1.301v4.137h-2.847v-18h2.847v10.383l.891-1.113 3.504-3.95h3.422l-4.711 5.285 5.215 7.395h-3.293zm16.102 4.196c-.836.984-2.024 1.476-3.563 1.476-1.375 0-2.418-.402-3.129-1.207-.703-.804-1.054-1.968-1.054-3.492v-8.215h2.847v8.18c0 1.609.668 2.414 2.004 2.414 1.383 0 2.317-.496 2.801-1.488v-9.106h2.848v12.68h-2.684zm16.758-4.969c0 1.961-.446 3.527-1.336 4.699-.891 1.164-2.086 1.746-3.586 1.746-1.391 0-2.504-.457-3.34-1.371v6.012h-2.848v-17.555h2.625l.117 1.289c.836-1.015 1.973-1.523 3.41-1.523 1.547 0 2.758.578 3.633 1.734.883 1.149 1.325 2.746 1.325 4.793zm-2.836-.246c0-1.266-.254-2.27-.762-3.012-.5-.742-1.219-1.113-2.156-1.113-1.164 0-2 .48-2.508 1.441v5.625c.515.985 1.359 1.477 2.531 1.477a2.44 2.44 0 0 0 2.121-1.09c.516-.734.774-1.844.774-3.328zm7.898 1.441c0-1.039.129-1.867.387-2.484s.765-1.293 1.523-2.027c.766-.743 1.25-1.27 1.453-1.582.313-.477.469-.993.469-1.547 0-.735-.184-1.293-.551-1.676-.359-.391-.89-.586-1.593-.586-.672 0-1.215.191-1.629.574-.407.375-.61.887-.61 1.535h-2.847c.015-1.382.484-2.476 1.406-3.281.93-.805 2.156-1.207 3.68-1.207 1.57 0 2.792.399 3.667 1.195.883.797 1.325 1.911 1.325 3.34 0 1.274-.594 2.528-1.782 3.762l-1.441 1.418c-.516.586-.781 1.441-.797 2.566zm-.199 3.645c0-.461.144-.832.433-1.113.289-.289.68-.434 1.172-.434.5 0 .895.148 1.184.445.289.289.433.657.433 1.102 0 .43-.14.789-.421 1.078s-.68.434-1.196.434-.914-.145-1.195-.434c-.273-.289-.41-.648-.41-1.078z" class="F"/><g clip-path="url(#D)" transform="translate(1.869 -123.328)" class="B"><path d="M1217.8 378.829c-.01-8.47-3.1-16.647-8.68-23.02a35.04 35.04 0 0 0-21.67-11.639c-.72-5.747-2.86-11.224-6.24-15.929a34.66 34.66 0 0 0-13.1-11.003c-5.22-2.515-10.98-3.683-16.77-3.397-5.78.287-11.4 2.019-16.35 5.038a42.48 42.48 0 0 0-14.25-26.143 42.51 42.51 0 0 0-27.9-10.39 42.96 42.96 0 0 0-16.55 3.308 42.98 42.98 0 0 0-13.99 9.432c-3.76-14.325-12.42-26.877-24.48-35.474a63.35 63.35 0 0 0-41.524-11.582c-14.768 1.114-28.679 7.369-39.313 17.678a63.32 63.32 0 0 0-18.89 38.745c-4.516-2.109-9.441-3.196-14.425-3.185-7.902-.016-15.573 2.669-21.74 7.609s-10.461 11.841-12.17 19.556l-4.121-.374c-5.814.005-11.533 1.466-16.637 4.247a34.83 34.83 0 0 0-12.589 11.677 34.85 34.85 0 0 0-31.944 35.101c.095 8.804 3.519 17.246 9.584 23.628a34.84 34.84 0 0 0 23.109 10.776h327.29c8.95-.385 17.41-4.2 23.61-10.654 6.21-6.453 9.7-15.049 9.74-24.005z"/></g><path d="M1140.869 155.172l20.5-36.5" class="G"/><path d="M1089.399 75.258c-.21 1.805-.88 3.199-2 4.184-1.12.976-2.61 1.464-4.47 1.464-2.01 0-3.63-.722-4.85-2.168-1.21-1.445-1.82-3.378-1.82-5.8v-1.641c0-1.586.29-2.98.85-4.184.57-1.203 1.37-2.125 2.41-2.765 1.04-.649 2.24-.973 3.61-.973 1.81 0 3.27.508 4.36 1.524 1.09 1.007 1.73 2.406 1.91 4.195h-2.26c-.2-1.36-.62-2.344-1.28-2.953-.65-.61-1.56-.914-2.73-.914-1.44 0-2.56.531-3.38 1.593s-1.22 2.575-1.22 4.536v1.652c0 1.852.38 3.324 1.16 4.418.77 1.094 1.85 1.641 3.24 1.641 1.25 0 2.21-.282 2.87-.844.68-.571 1.12-1.559 1.34-2.965zm2.17-1.043c0-1.242.24-2.359.73-3.352s1.17-1.757 2.03-2.296c.88-.54 1.88-.809 2.99-.809 1.73 0 3.12.598 4.19 1.793s1.6 2.785 1.6 4.769v.153c0 1.234-.24 2.344-.71 3.328-.47.976-1.15 1.738-2.03 2.285s-1.88.82-3.02.82c-1.72 0-3.12-.597-4.19-1.793-1.06-1.195-1.59-2.777-1.59-4.746zm2.18.258c0 1.406.32 2.535.97 3.387a3.15 3.15 0 0 0 2.63 1.277 3.11 3.11 0 0 0 2.62-1.289c.65-.867.97-2.078.97-3.633 0-1.391-.33-2.516-.99-3.375a3.13 3.13 0 0 0-2.63-1.301c-1.07 0-1.93.426-2.59 1.278-.65.851-.98 2.07-.98 3.656zm19.91 4.945c-.84.992-2.08 1.488-3.72 1.488-1.35 0-2.38-.39-3.09-1.172-.7-.789-1.06-1.953-1.07-3.492v-8.25h2.17v8.192c0 1.922.78 2.883 2.35 2.883 1.65 0 2.75-.618 3.3-1.852v-9.223h2.17v12.68h-2.06zm7.77 1.254h-2.17v-18h2.17zm2.95-6.445c0-1.946.46-3.508 1.38-4.688.93-1.187 2.13-1.781 3.63-1.781 1.48 0 2.66.508 3.52 1.523v-6.609h2.17v18h-1.99l-.11-1.359c-.86 1.062-2.07 1.593-3.62 1.593-1.47 0-2.67-.601-3.6-1.804-.92-1.203-1.38-2.774-1.38-4.711zm2.17.246c0 1.437.3 2.562.89 3.375s1.41 1.219 2.46 1.219c1.38 0 2.38-.618 3.01-1.852v-5.824c-.65-1.196-1.64-1.793-2.99-1.793-1.06 0-1.89.41-2.48 1.23s-.89 2.035-.89 3.645zm13.96-6.481l.07 1.594c.97-1.219 2.23-1.828 3.79-1.828 2.68 0 4.04 1.512 4.06 4.535v8.379h-2.17v-8.391c-.01-.914-.22-1.589-.63-2.027s-1.05-.656-1.91-.656c-.71 0-1.32.187-1.85.562-.54.375-.95.867-1.25 1.477v9.035h-2.16v-12.68zm11.29-4.019l-.24 4.312h-1.51l.01-5.613h1.74zm5.82.949v3.07h2.36v1.676h-2.36v7.863c0 .508.1.891.31 1.149.21.25.57.375 1.08.375.25 0 .59-.047 1.03-.141v1.758c-.57.156-1.12.234-1.66.234-.97 0-1.7-.293-2.19-.879-.5-.585-.74-1.417-.74-2.496v-7.863h-2.31v-1.676h2.31v-3.07zm11.59 15.75V69.668h-2.01v-1.676h2.01v-1.078c0-1.414.4-2.515 1.2-3.304.82-.79 1.96-1.184 3.44-1.184.87 0 1.98.238 3.31.715l-.36 1.828c-.98-.391-1.91-.586-2.79-.586-.93 0-1.6.211-2.02.633-.4.414-.6 1.039-.6 1.875v1.101h2.59v1.676h-2.59v11.004zm9.03 0h-2.18v-12.68h2.18zm5.58-12.68l.07 1.594c.97-1.219 2.23-1.828 3.8-1.828 2.68 0 4.03 1.512 4.05 4.535v8.379h-2.17v-8.391c0-.914-.22-1.589-.63-2.027s-1.04-.656-1.91-.656c-.7 0-1.32.187-1.85.562s-.95.867-1.24 1.477v9.035h-2.17v-12.68zm10.66 6.235c0-1.946.46-3.508 1.39-4.688a4.35 4.35 0 0 1 3.62-1.781c1.48 0 2.66.508 3.52 1.523v-6.609h2.17v18h-1.99l-.11-1.359c-.86 1.062-2.07 1.593-3.62 1.593-1.47 0-2.66-.601-3.59-1.804s-1.39-2.774-1.39-4.711zm2.17.246c0 1.437.3 2.562.89 3.375.6.812 1.42 1.219 2.46 1.219 1.38 0 2.38-.618 3.01-1.852v-5.824c-.64-1.196-1.64-1.793-2.98-1.793-1.07 0-1.89.41-2.49 1.23-.59.821-.89 2.035-.89 3.645zm20.22 6.199h-2.17v-12.68h2.17zm-2.35-16.043c0-.352.11-.648.32-.891.22-.242.54-.363.96-.363s.74.121.96.363.33.539.33.891-.11.645-.33.879-.54.352-.96.352-.74-.118-.96-.352a1.27 1.27 0 0 1-.32-.879zm8.77.293v3.07h2.37v1.676h-2.37v7.863c0 .508.1.891.31 1.149.22.25.57.375 1.08.375.25 0 .6-.047 1.03-.141v1.758c-.57.156-1.12.234-1.66.234-.97 0-1.7-.293-2.19-.879s-.74-1.417-.74-2.496v-7.863h-2.31v-1.676h2.31v-3.07zm4.96 14.613c0-.375.1-.687.32-.937.23-.25.57-.375 1.01-.375.45 0 .78.125 1.01.375s.35.562.35.937c0 .36-.12.66-.35.903s-.56.363-1.01.363c-.44 0-.78-.121-1.01-.363-.22-.243-.32-.543-.32-.903z" class="F"/><path d="M1161.869 604.263c-.01-5.456-1.99-10.723-5.57-14.828-3.59-4.104-8.54-6.767-13.93-7.496-.46-3.703-1.84-7.23-4.01-10.26s-5.06-5.467-8.41-7.088a22.27 22.27 0 0 0-10.78-2.188 22.25 22.25 0 0 0-10.5 3.245c-.93-6.536-4.18-12.515-9.15-16.839a27.31 27.31 0 0 0-17.93-6.692c-3.65-.003-7.26.722-10.63 2.13a27.59 27.59 0 0 0-8.99 6.076c-2.42-9.227-7.98-17.312-15.73-22.85a40.62 40.62 0 0 0-26.68-7.459c-9.48.717-18.422 4.746-25.254 11.386s-11.126 15.47-12.136 24.956c-2.901-1.358-6.066-2.059-9.268-2.051a22.23 22.23 0 0 0-13.967 4.901c-3.962 3.182-6.72 7.627-7.818 12.596l-2.648-.241a22.34 22.34 0 0 0-10.689 2.736 22.41 22.41 0 0 0-8.087 7.521c-5.637.472-10.887 3.066-14.694 7.26s-5.89 9.678-5.829 15.349 2.261 11.108 6.157 15.219 9.201 6.591 14.847 6.941h210.276a22.38 22.38 0 0 0 15.17-6.862c3.98-4.157 6.22-9.694 6.25-15.462z" class="B"/><path d="M1119.869 531.172l20.5-36.5" class="G"/><path d="M1088.959 446.672h-2.26l-8.59-13.148v13.148h-2.26V429.61h2.26l8.62 13.207V429.61h2.23zm3.09-6.457c0-1.242.24-2.359.72-3.352.49-.992 1.17-1.757 2.04-2.296.88-.54 1.87-.809 2.99-.809 1.73 0 3.12.598 4.18 1.793 1.07 1.195 1.61 2.785 1.61 4.769v.153c0 1.234-.24 2.344-.72 3.328a5.29 5.29 0 0 1-2.02 2.285c-.88.547-1.89.82-3.03.82-1.72 0-3.11-.597-4.18-1.793-1.06-1.195-1.59-2.777-1.59-4.746zm2.18.258c0 1.406.32 2.535.97 3.387s1.53 1.277 2.62 1.277c1.1 0 1.98-.43 2.63-1.289.65-.867.97-2.078.97-3.633 0-1.391-.33-2.516-1-3.375-.65-.867-1.53-1.301-2.62-1.301-1.07 0-1.93.426-2.59 1.278s-.98 2.07-.98 3.656zm12.01 9.597l-1.23-.843c.73-1.024 1.11-2.078 1.15-3.164v-1.957h2.12v1.699c0 .789-.2 1.578-.59 2.367-.38.789-.87 1.422-1.45 1.898zm13.49-3.398h-2.25V429.61h2.25zm9.21-6.445c0-1.946.46-3.508 1.38-4.688.92-1.187 2.13-1.781 3.62-1.781 1.48 0 2.66.508 3.53 1.523v-6.609h2.17v18h-2l-.1-1.359c-.87 1.062-2.08 1.593-3.62 1.593-1.47 0-2.67-.601-3.6-1.804-.92-1.203-1.38-2.774-1.38-4.711zm2.16.246c0 1.437.3 2.562.89 3.375.6.812 1.42 1.219 2.47 1.219 1.37 0 2.37-.618 3.01-1.852v-5.824c-.65-1.196-1.65-1.793-2.99-1.793-1.06 0-1.89.41-2.49 1.23-.59.821-.89 2.035-.89 3.645zm11.34-.258c0-1.242.24-2.359.72-3.352.5-.992 1.17-1.757 2.04-2.296.88-.54 1.87-.809 2.99-.809 1.73 0 3.12.598 4.18 1.793 1.07 1.195 1.61 2.785 1.61 4.769v.153c0 1.234-.24 2.344-.72 3.328a5.29 5.29 0 0 1-2.02 2.285c-.88.547-1.89.82-3.03.82-1.72 0-3.11-.597-4.18-1.793-1.06-1.195-1.59-2.777-1.59-4.746zm2.18.258c0 1.406.32 2.535.97 3.387.66.851 1.53 1.277 2.62 1.277 1.11 0 1.98-.43 2.63-1.289.65-.867.97-2.078.97-3.633 0-1.391-.33-2.516-.99-3.375-.66-.867-1.54-1.301-2.63-1.301-1.07 0-1.93.426-2.59 1.278s-.98 2.07-.98 3.656zm14.13-6.481l.07 1.594c.97-1.219 2.23-1.828 3.8-1.828 2.68 0 4.03 1.512 4.05 4.535v8.379h-2.17v-8.391c-.01-.914-.22-1.589-.63-2.027s-1.04-.656-1.91-.656c-.7 0-1.32.187-1.85.562s-.95.867-1.24 1.477v9.035h-2.17v-12.68zm10.41.422l-1.24-.844c.73-1.015 1.11-2.086 1.13-3.21v-1.688h2.14v1.523c0 .782-.2 1.563-.58 2.344-.38.774-.86 1.399-1.45 1.875zm7.59-3.492v3.07h2.37v1.676h-2.37v7.863c0 .508.1.891.32 1.149.21.25.57.375 1.07.375.25 0 .6-.047 1.03-.141v1.758c-.57.156-1.12.234-1.66.234-.97 0-1.7-.293-2.19-.879s-.74-1.417-.74-2.496v-7.863h-2.31v-1.676h2.31v-3.07zm16.12 15.984c-1.71 0-3.11-.562-4.19-1.687-1.08-1.133-1.62-2.645-1.62-4.535v-.399c0-1.258.24-2.379.72-3.363.48-.992 1.15-1.766 2.01-2.32.87-.563 1.81-.844 2.81-.844 1.65 0 2.93.543 3.85 1.629.91 1.086 1.37 2.64 1.37 4.664v.902h-8.59c.03 1.25.39 2.262 1.09 3.035.7.766 1.59 1.149 2.67 1.149.77 0 1.42-.156 1.95-.469s.99-.726 1.39-1.242l1.33 1.031c-1.07 1.633-2.66 2.449-4.79 2.449zm-.27-11.367a2.88 2.88 0 0 0-2.2.961c-.59.633-.96 1.524-1.1 2.672h6.35v-.164c-.06-1.102-.36-1.953-.89-2.555-.53-.609-1.25-.914-2.16-.914zm11.99 3.082l2.82-4.629h2.53l-4.15 6.27 4.28 6.41h-2.51l-2.93-4.746-2.93 4.746h-2.52l4.28-6.41-4.15-6.27h2.51zm10.01 8.051h-2.17v-12.68h2.17zm-2.34-16.043c0-.352.1-.648.31-.891.22-.242.54-.363.96-.363.43 0 .75.121.96.363.22.243.33.539.33.891s-.11.645-.33.879c-.21.234-.53.352-.96.352-.42 0-.74-.118-.96-.352-.21-.234-.31-.527-.31-.879zm13.2 12.68c0-.586-.22-1.039-.66-1.36-.44-.328-1.21-.609-2.31-.843s-1.97-.516-2.62-.844c-.64-.328-1.11-.719-1.43-1.172-.3-.453-.45-.992-.45-1.617 0-1.039.43-1.918 1.31-2.637s2.01-1.078 3.37-1.078c1.44 0 2.61.371 3.5 1.113.9.742 1.34 1.692 1.34 2.848h-2.18c0-.594-.25-1.106-.76-1.535-.5-.43-1.13-.645-1.9-.645-.78 0-1.4.172-1.85.516a1.63 1.63 0 0 0-.66 1.347c0 .524.2.918.62 1.184.41.266 1.16.52 2.23.762 1.09.242 1.97.531 2.64.867s1.17.742 1.49 1.219c.33.468.49 1.043.49 1.722a3.25 3.25 0 0 1-1.36 2.731c-.9.68-2.08 1.019-3.52 1.019-1.02 0-1.92-.179-2.7-.539s-1.39-.859-1.84-1.5a3.66 3.66 0 0 1-.66-2.097h2.17c.04.726.33 1.304.87 1.734.55.422 1.26.633 2.16.633.82 0 1.47-.164 1.96-.492.5-.336.75-.782.75-1.336zm7.94-12.387v3.07h2.36v1.676h-2.36v7.863c0 .508.1.891.31 1.149.21.25.57.375 1.08.375.25 0 .6-.047 1.03-.141v1.758c-.57.156-1.12.234-1.66.234-.97 0-1.7-.293-2.19-.879s-.74-1.417-.74-2.496v-7.863h-2.31v-1.676h2.31v-3.07zm13.8 0v3.07h2.37v1.676h-2.37v7.863c0 .508.11.891.32 1.149.21.25.57.375 1.08.375.25 0 .59-.047 1.03-.141v1.758a6.33 6.33 0 0 1-1.67.234c-.97 0-1.7-.293-2.19-.879s-.74-1.417-.74-2.496v-7.863h-2.3v-1.676h2.3v-3.07zm4.1 9.293c0-1.242.25-2.359.73-3.352.49-.992 1.17-1.757 2.04-2.296s1.87-.809 2.99-.809c1.72 0 3.12.598 4.18 1.793 1.07 1.195 1.61 2.785 1.61 4.769v.153c0 1.234-.24 2.344-.72 3.328-.47.976-1.14 1.738-2.03 2.285-.87.547-1.88.82-3.02.82-1.72 0-3.11-.597-4.18-1.793s-1.6-2.777-1.6-4.746zm2.18.258c0 1.406.33 2.535.98 3.387s1.53 1.277 2.62 1.277c1.1 0 1.98-.43 2.63-1.289.64-.867.97-2.078.97-3.633 0-1.391-.33-2.516-1-3.375-.65-.867-1.53-1.301-2.62-1.301-1.07 0-1.94.426-2.59 1.278-.66.851-.99 2.07-.99 3.656zm17.52-.246c0-1.977.46-3.547 1.37-4.711.92-1.172 2.13-1.758 3.64-1.758 1.54 0 2.75.547 3.62 1.641l.1-1.407h1.98v12.375c0 1.641-.48 2.934-1.46 3.879-.97.946-2.27 1.418-3.92 1.418a6.53 6.53 0 0 1-2.68-.586c-.87-.39-1.54-.926-2-1.605l1.12-1.301c.93 1.148 2.07 1.723 3.41 1.723 1.06 0 1.88-.297 2.46-.891.6-.594.89-1.43.89-2.508v-1.09c-.86 1-2.05 1.5-3.55 1.5-1.48 0-2.68-.597-3.61-1.793-.91-1.195-1.37-2.824-1.37-4.886zm2.18.246c0 1.429.3 2.554.88 3.375.59.812 1.41 1.219 2.46 1.219 1.37 0 2.37-.622 3.01-1.864v-5.789c-.66-1.211-1.66-1.816-2.98-1.816-1.06 0-1.88.41-2.48 1.23-.59.821-.89 2.035-.89 3.645zm17.08 6.433c-1.72 0-3.12-.562-4.2-1.687-1.08-1.133-1.62-2.645-1.62-4.535v-.399c0-1.258.24-2.379.72-3.363.48-.992 1.16-1.766 2.01-2.32.87-.563 1.81-.844 2.82-.844 1.65 0 2.93.543 3.84 1.629.92 1.086 1.37 2.64 1.37 4.664v.902h-8.59c.03 1.25.4 2.262 1.09 3.035.71.766 1.6 1.149 2.67 1.149.77 0 1.42-.156 1.95-.469s1-.726 1.39-1.242l1.33 1.031c-1.06 1.633-2.66 2.449-4.78 2.449zm-.27-11.367a2.9 2.9 0 0 0-2.21.961c-.59.633-.96 1.524-1.1 2.672h6.35v-.164c-.06-1.102-.36-1.953-.89-2.555-.53-.609-1.25-.914-2.15-.914zm10.67-4.617v3.07h2.37v1.676h-2.37v7.863c0 .508.11.891.32 1.149.21.25.57.375 1.08.375.25 0 .59-.047 1.03-.141v1.758a6.33 6.33 0 0 1-1.67.234c-.96 0-1.69-.293-2.19-.879-.49-.585-.74-1.417-.74-2.496v-7.863h-2.3v-1.676h2.3v-3.07zm-217.32 43.75c-.13-.25-.23-.695-.31-1.336-1 1.047-2.21 1.57-3.61 1.57-1.25 0-2.27-.351-3.08-1.054-.79-.711-1.19-1.61-1.19-2.696 0-1.32.5-2.343 1.5-3.07 1.01-.734 2.42-1.102 4.24-1.102h2.11v-.996c0-.757-.23-1.359-.68-1.804-.45-.453-1.12-.68-2-.68-.78 0-1.43.195-1.95.586s-.79.863-.79 1.418h-2.17c0-.633.22-1.242.66-1.828.46-.594 1.07-1.063 1.83-1.406.77-.344 1.62-.516 2.54-.516 1.47 0 2.61.367 3.44 1.102.83.726 1.26 1.73 1.29 3.011v5.836c0 1.164.15 2.09.44 2.777v.188zm-3.6-1.652c.68 0 1.33-.176 1.93-.528.61-.351 1.06-.808 1.33-1.371v-2.601h-1.7c-2.66 0-3.98.777-3.98 2.332 0 .679.22 1.211.67 1.593.46.383 1.04.575 1.75.575zm25.51-4.547c0 1.937-.44 3.496-1.33 4.676-.89 1.171-2.09 1.757-3.59 1.757-1.6 0-2.84-.566-3.71-1.699l-.11 1.465h-1.99v-18h2.17v6.715c.87-1.086 2.08-1.629 3.62-1.629s2.74.582 3.62 1.746 1.32 2.758 1.32 4.781zm-2.17-.246c0-1.477-.28-2.617-.85-3.422s-1.39-1.207-2.46-1.207c-1.43 0-2.46.664-3.08 1.992v5.484c.66 1.328 1.7 1.993 3.1 1.993 1.04 0 1.85-.403 2.43-1.207s.86-2.016.86-3.633zm12.74 6.445c-.12-.25-.22-.695-.3-1.336-1.01 1.047-2.21 1.57-3.61 1.57-1.25 0-2.28-.351-3.08-1.054a3.45 3.45 0 0 1-1.2-2.696c0-1.32.5-2.343 1.5-3.07 1.01-.734 2.42-1.102 4.24-1.102h2.11v-.996c0-.757-.22-1.359-.68-1.804-.45-.453-1.12-.68-2-.68-.77 0-1.42.195-1.95.586-.52.391-.78.863-.78 1.418h-2.18c0-.633.22-1.242.67-1.828.45-.594 1.06-1.063 1.83-1.406s1.62-.516 2.54-.516c1.46 0 2.6.367 3.43 1.102.83.726 1.26 1.73 1.29 3.011v5.836c0 1.164.15 2.09.45 2.777v.188zm-3.59-1.652c.68 0 1.32-.176 1.93-.528s1.05-.808 1.32-1.371v-2.601h-1.7c-2.65 0-3.98.777-3.98 2.332 0 .679.23 1.211.68 1.593s1.03.575 1.75.575zm13.91.117c.77 0 1.44-.235 2.02-.703s.9-1.055.96-1.758h2.05c-.03.726-.28 1.418-.75 2.074-.46.656-1.07 1.18-1.85 1.57-.76.391-1.58.586-2.43.586-1.73 0-3.11-.574-4.13-1.722-1.02-1.157-1.52-2.735-1.52-4.735v-.363c0-1.234.22-2.332.68-3.293.45-.961 1.1-1.707 1.94-2.238.85-.531 1.86-.797 3.01-.797 1.43 0 2.61.426 3.54 1.277.95.852 1.45 1.957 1.51 3.317h-2.05c-.06-.821-.37-1.492-.93-2.016-.56-.531-1.25-.797-2.07-.797-1.1 0-1.95.399-2.56 1.195-.6.79-.9 1.934-.9 3.434v.41c0 1.461.3 2.586.9 3.375s1.46 1.184 2.58 1.184zm11.01-4.336l-1.36 1.418v4.453h-2.17v-18h2.17v10.887l1.16-1.395 3.95-4.172h2.64l-4.94 5.297 5.51 7.383h-2.54zm16.45 4.617c-.84.992-2.08 1.488-3.71 1.488-1.35 0-2.38-.39-3.09-1.172-.71-.789-1.06-1.953-1.07-3.492v-8.25h2.17v8.192c0 1.922.78 2.883 2.34 2.883 1.66 0 2.76-.618 3.31-1.852v-9.223h2.16v12.68h-2.06zm16.13-4.945c0 1.929-.44 3.484-1.32 4.664-.89 1.18-2.08 1.769-3.59 1.769-1.54 0-2.75-.488-3.63-1.464v6.105h-2.17v-17.555h1.98l.1 1.407c.89-1.094 2.11-1.641 3.68-1.641 1.53 0 2.73.574 3.61 1.723.89 1.148 1.34 2.746 1.34 4.793zm-2.17-.246c0-1.43-.3-2.559-.91-3.387s-1.45-1.242-2.51-1.242c-1.31 0-2.3.582-2.95 1.746v6.058c.64 1.157 1.64 1.735 2.97 1.735 1.04 0 1.87-.41 2.48-1.231.61-.828.92-2.054.92-3.679zm10.31-.012c0-1.242.25-2.359.73-3.352.49-.992 1.17-1.757 2.04-2.296s1.87-.809 2.99-.809c1.72 0 3.12.598 4.18 1.793 1.07 1.195 1.61 2.785 1.61 4.769v.153c0 1.234-.24 2.344-.72 3.328-.47.976-1.14 1.738-2.03 2.285-.87.547-1.88.82-3.02.82-1.72 0-3.11-.597-4.18-1.793-1.06-1.195-1.6-2.777-1.6-4.746zm2.18.258c0 1.406.33 2.535.98 3.387s1.53 1.277 2.62 1.277c1.1 0 1.98-.43 2.63-1.289.64-.867.97-2.078.97-3.633 0-1.391-.33-2.516-1-3.375-.65-.867-1.53-1.301-2.62-1.301-1.07 0-1.94.426-2.59 1.278-.66.851-.99 2.07-.99 3.656zm13.15 6.199v-11.004h-2v-1.676h2v-1.3c0-1.36.37-2.411 1.09-3.153.73-.742 1.76-1.113 3.08-1.113a5.68 5.68 0 0 1 1.49.199l-.11 1.758c-.37-.07-.76-.106-1.18-.106-.7 0-1.24.207-1.63.622-.38.406-.57.992-.57 1.757v1.336h2.71v1.676h-2.71v11.004zm15.27-12.68l.06 1.407c.93-1.094 2.18-1.641 3.76-1.641 1.78 0 2.98.68 3.62 2.039.42-.609.97-1.102 1.64-1.477.68-.375 1.48-.562 2.41-.562 2.78 0 4.19 1.473 4.24 4.418v8.496h-2.17v-8.367c0-.906-.21-1.582-.62-2.028-.42-.453-1.11-.679-2.09-.679-.8 0-1.47.242-2 .726-.53.477-.84 1.121-.93 1.934v8.414h-2.18v-8.309c0-1.843-.9-2.765-2.7-2.765-1.43 0-2.4.605-2.92 1.816v9.258h-2.17v-12.68zm23.16 9.504l2.95-9.504h2.32l-5.1 14.637c-.79 2.109-2.04 3.164-3.76 3.164l-.41-.035-.81-.152v-1.758l.59.047c.73 0 1.3-.149 1.71-.446s.75-.839 1.02-1.629l.48-1.289-4.52-12.539h2.36zm14.6-.187c0-.586-.22-1.039-.67-1.36-.44-.328-1.21-.609-2.31-.843-1.09-.235-1.96-.516-2.61-.844-.64-.328-1.12-.719-1.43-1.172-.3-.453-.46-.992-.46-1.617 0-1.039.44-1.918 1.32-2.637s2-1.078 3.37-1.078c1.44 0 2.6.371 3.49 1.113.9.742 1.35 1.692 1.35 2.848h-2.18c0-.594-.25-1.106-.76-1.535-.5-.43-1.13-.645-1.9-.645-.79 0-1.41.172-1.85.516a1.61 1.61 0 0 0-.67 1.347c0 .524.21.918.62 1.184.42.266 1.16.52 2.24.762 1.09.242 1.97.531 2.64.867s1.16.742 1.49 1.219c.32.468.49 1.043.49 1.722 0 1.133-.46 2.043-1.36 2.731-.91.68-2.08 1.019-3.53 1.019-1.02 0-1.91-.179-2.69-.539-.79-.359-1.4-.859-1.84-1.5a3.66 3.66 0 0 1-.66-2.097h2.17c.04.726.33 1.304.86 1.734.55.422 1.27.633 2.16.633.82 0 1.48-.164 1.97-.492.5-.336.75-.782.75-1.336zm10.25 3.597c-1.72 0-3.11-.562-4.19-1.687-1.08-1.133-1.62-2.645-1.62-4.535v-.399c0-1.258.24-2.379.72-3.363.48-.992 1.15-1.766 2.01-2.32.87-.563 1.81-.844 2.81-.844 1.65 0 2.93.543 3.85 1.629.91 1.086 1.37 2.64 1.37 4.664v.902h-8.59c.03 1.25.39 2.262 1.09 3.035.7.766 1.59 1.149 2.67 1.149.77 0 1.41-.156 1.95-.469.53-.312.99-.726 1.39-1.242l1.32 1.031c-1.06 1.633-2.65 2.449-4.78 2.449zm-.27-11.367a2.88 2.88 0 0 0-2.2.961c-.59.633-.96 1.524-1.1 2.672h6.35v-.164c-.06-1.102-.36-1.953-.89-2.555-.53-.609-1.25-.914-2.16-.914zm10.09 11.133h-2.16v-18h2.16zm4.55 0v-11.004h-2v-1.676h2v-1.3c0-1.36.36-2.411 1.09-3.153s1.75-1.113 3.08-1.113a5.68 5.68 0 0 1 1.49.199l-.12 1.758a6.13 6.13 0 0 0-1.17-.106c-.7 0-1.24.207-1.63.622-.38.406-.57.992-.57 1.757v1.336h2.71v1.676h-2.71v11.004zm7.32-1.137c0-.375.11-.687.33-.937.23-.25.57-.375 1.01-.375.45 0 .78.125 1.01.375s.35.562.35.937c0 .36-.12.66-.35.903s-.56.363-1.01.363c-.44 0-.78-.121-1.01-.363-.22-.243-.33-.543-.33-.903z" class="F"/><defs><clipPath id="A"><path fill="#fff" transform="translate(138 178)" d="M0 0h555.309v248.9H0z"/></clipPath><clipPath id="B"><path fill="#fff" transform="translate(824 248)" d="M0 0h393.8v178.54H0z"/></clipPath><clipPath id="C"><path fill="#fff" transform="translate(309 664)" d="M0 0h379.279v170H0z"/></clipPath><clipPath id="D"><path fill="#fff" transform="translate(824 247.5)" d="M0 0h393.8v178.54H0z"/></clipPath><path id="E" d="M304.117 282.212a10.99 10.99 0 0 0 10.988-10.989 10.99 10.99 0 0 0-10.988-10.989 10.99 10.99 0 0 0-10.989 10.989 10.99 10.99 0 0 0 10.989 10.989z"/><path id="F" d="M231.223 390.453a10.99 10.99 0 0 0 10.989-10.989 10.99 10.99 0 0 0-10.989-10.989 10.99 10.99 0 0 0-10.989 10.989 10.99 10.99 0 0 0 10.989 10.989z"/><path id="G" d="M1217.8 379.329c-.01-8.47-3.1-16.647-8.68-23.02a35.04 35.04 0 0 0-21.67-11.639c-.72-5.747-2.86-11.224-6.24-15.929a34.66 34.66 0 0 0-13.1-11.003c-5.22-2.515-10.98-3.683-16.77-3.397-5.78.287-11.4 2.019-16.35 5.038a42.48 42.48 0 0 0-14.25-26.143 42.51 42.51 0 0 0-27.9-10.39 42.96 42.96 0 0 0-16.55 3.308 42.98 42.98 0 0 0-13.99 9.432c-3.76-14.325-12.42-26.877-24.48-35.474a63.35 63.35 0 0 0-41.524-11.582c-14.768 1.114-28.679 7.369-39.313 17.678a63.32 63.32 0 0 0-18.89 38.745c-4.516-2.109-9.441-3.196-14.425-3.185-7.902-.016-15.573 2.669-21.74 7.609s-10.461 11.841-12.17 19.556l-4.121-.374c-5.814.005-11.533 1.466-16.637 4.247a34.83 34.83 0 0 0-12.589 11.677 34.85 34.85 0 0 0-31.944 35.101c.095 8.804 3.519 17.246 9.584 23.628a34.84 34.84 0 0 0 23.109 10.776h327.29c8.95-.385 17.41-4.2 23.61-10.654 6.21-6.453 9.7-15.049 9.74-24.005z"/><path id="H" d="M499.39 757.944c0-7.597 3.018-14.884 8.39-20.256s12.659-8.39 20.256-8.39 14.884 3.018 20.256 8.39 8.39 12.659 8.39 20.256"/><path id="I" d="M556.682 771.454a7.51 7.51 0 0 0 7.506-7.506 7.51 7.51 0 0 0-7.506-7.505c-4.145 0-7.505 3.36-7.505 7.505s3.36 7.506 7.505 7.506z"/></defs></svg>