<svg xmlns="http://www.w3.org/2000/svg" xmlns:xlink="http://www.w3.org/1999/xlink" width="414" height="896" fill="none" ><style><![CDATA[.B{stroke-width:3}.C{stroke-miterlimit:10}.D{fill:#cd5a80}.E{stroke:#fff}.F{fill:#f2f2f2}]]></style><g clip-path="url(#A)" transform="matrix(1 0 0 1.05553 0 -46.728174)"><g fill="#e7e3e3"><path d="M161.719 371.312h7.734v10.922h-7.734V397h-13.547v-14.766h-27.984l-.61-8.531 28.453-44.953h13.688zm-28.641 0h15.094v-24.093l-.891 1.547zm89.625-2.531c0 9.438-1.953 16.657-5.859 21.657s-9.625 7.5-17.156 7.5c-7.438 0-13.126-2.454-17.063-7.36s-5.953-11.937-6.047-21.094v-12.562c0-9.531 1.969-16.766 5.906-21.703 3.969-4.938 9.672-7.407 17.11-7.407s13.125 2.454 17.062 7.36c3.938 4.875 5.953 11.89 6.047 21.047zM209.156 355c0-5.656-.781-9.766-2.344-12.328-1.531-2.594-3.937-3.891-7.218-3.891-3.188 0-5.547 1.235-7.078 3.703-1.5 2.438-2.297 6.266-2.391 11.485v16.593c0 5.563.75 9.704 2.25 12.422 1.531 2.688 3.969 4.032 7.313 4.032 3.312 0 5.703-1.297 7.171-3.891s2.235-6.563 2.297-11.906zm62.813 16.312h7.734v10.922h-7.734V397h-13.547v-14.766h-27.984l-.61-8.531 28.453-44.953h13.688zm-28.641 0h15.094v-24.093l-.891 1.547zM123.627 420.98l.158 2.198c1.36-1.699 3.182-2.549 5.467-2.549 2.016 0 3.516.592 4.5 1.775s1.488 2.953 1.512 5.309V440h-5.08v-12.164c0-1.078-.235-1.857-.704-2.338-.468-.492-1.248-.738-2.337-.738-1.43 0-2.502.609-3.217 1.828V440h-5.08v-19.02zm14.713 9.334c0-1.886.363-3.568 1.09-5.044s1.769-2.62 3.129-3.428c1.371-.809 2.959-1.213 4.763-1.213 2.567 0 4.658.785 6.276 2.355 1.629 1.571 2.537 3.704 2.724 6.399l.035 1.301c0 2.918-.814 5.261-2.443 7.031-1.629 1.758-3.814 2.637-6.557 2.637s-4.933-.879-6.574-2.637c-1.629-1.758-2.443-4.149-2.443-7.172zm5.08.37c0 1.804.34 3.187 1.019 4.148.68.949 1.653 1.424 2.918 1.424 1.231 0 2.192-.469 2.883-1.406.692-.95 1.037-2.461 1.037-4.536 0-1.769-.345-3.14-1.037-4.113s-1.664-1.459-2.918-1.459c-1.242 0-2.203.487-2.883 1.459-.679.961-1.019 2.455-1.019 4.483zm22.148-14.379v4.675h3.252v3.727h-3.252v9.492c0 .703.135 1.207.405 1.512s.785.457 1.547.457a8.11 8.11 0 0 0 1.494-.123v3.85c-.996.304-2.022.457-3.076.457-3.563 0-5.379-1.799-5.45-5.397v-10.248h-2.777v-3.727h2.777v-4.675zM182.004 440v-15.293h-2.83v-3.727h2.83v-1.617c0-2.133.609-3.785 1.828-4.957 1.23-1.183 2.947-1.775 5.15-1.775.704 0 1.565.117 2.584.351l-.052 3.938c-.422-.106-.938-.158-1.547-.158-1.91 0-2.865.896-2.865 2.689v1.529h3.779v3.727h-3.779V440zm10.723-9.686c0-1.886.363-3.568 1.089-5.044s1.77-2.62 3.129-3.428c1.371-.809 2.959-1.213 4.764-1.213 2.566 0 4.658.785 6.275 2.355 1.629 1.571 2.537 3.704 2.725 6.399l.035 1.301c0 2.918-.814 5.261-2.443 7.031-1.629 1.758-3.815 2.637-6.557 2.637s-4.933-.879-6.574-2.637c-1.629-1.758-2.443-4.149-2.443-7.172zm5.08.37c0 1.804.339 3.187 1.019 4.148.68.949 1.653 1.424 2.918 1.424 1.231 0 2.192-.469 2.883-1.406.691-.95 1.037-2.461 1.037-4.536 0-1.769-.346-3.14-1.037-4.113s-1.664-1.459-2.918-1.459c-1.242 0-2.203.487-2.883 1.459-.68.961-1.019 2.455-1.019 4.483zm27.457 7.382c-1.254 1.524-2.989 2.286-5.203 2.286-2.04 0-3.598-.586-4.676-1.758-1.067-1.172-1.612-2.889-1.635-5.151V420.98h5.08v12.288c0 1.98.902 2.97 2.707 2.97 1.723 0 2.906-.597 3.551-1.793V420.98h5.098V440h-4.782zm13.429-17.086l.159 2.198c1.359-1.699 3.181-2.549 5.466-2.549 2.016 0 3.516.592 4.5 1.775s1.489 2.953 1.512 5.309V440h-5.08v-12.164c0-1.078-.234-1.857-.703-2.338-.469-.492-1.248-.738-2.338-.738-1.43 0-2.502.609-3.217 1.828V440h-5.08v-19.02zm14.713 9.37c0-2.965.662-5.327 1.987-7.084 1.336-1.758 3.158-2.637 5.466-2.637a5.82 5.82 0 0 1 4.588 2.074V413h5.098v27h-4.588l-.246-2.021c-1.266 1.582-2.895 2.373-4.887 2.373-2.238 0-4.037-.879-5.396-2.637-1.348-1.77-2.022-4.225-2.022-7.365zm5.08.369c0 1.781.311 3.146.932 4.095s1.523 1.424 2.707 1.424c1.57 0 2.678-.662 3.322-1.986v-7.506c-.633-1.324-1.728-1.986-3.287-1.986-2.449 0-3.674 1.986-3.674 5.959z"/></g><path d="M158.5 217.417l35.5-71" stroke="#e7e3e3"/><path d="M137.531 114.003c-.211 1.805-.879 3.199-2.004 4.184-1.117.976-2.605 1.465-4.465 1.465-2.015 0-3.632-.723-4.851-2.168-1.211-1.446-1.816-3.379-1.816-5.801v-1.641c0-1.586.281-2.98.843-4.183.571-1.203 1.375-2.125 2.414-2.766 1.039-.648 2.243-.973 3.61-.973 1.812 0 3.265.508 4.359 1.524 1.094 1.008 1.731 2.406 1.91 4.195h-2.261c-.196-1.359-.622-2.344-1.278-2.953-.648-.609-1.558-.914-2.73-.914-1.438 0-2.567.531-3.387 1.594-.813 1.062-1.219 2.574-1.219 4.535v1.652c0 1.852.387 3.324 1.16 4.418s1.856 1.641 3.246 1.641c1.25 0 2.208-.281 2.872-.844.671-.57 1.117-1.559 1.336-2.965zm2.168-1.043c0-1.242.242-2.359.727-3.351.492-.992 1.172-1.758 2.039-2.297.875-.539 1.871-.809 2.988-.809 1.727 0 3.121.598 4.184 1.793 1.07 1.196 1.605 2.785 1.605 4.77v.152c0 1.234-.238 2.344-.715 3.328a5.33 5.33 0 0 1-2.027 2.285c-.875.547-1.883.821-3.023.821-1.719 0-3.114-.598-4.184-1.793-1.063-1.196-1.594-2.778-1.594-4.746zm2.18.258c0 1.406.324 2.535.973 3.387.656.851 1.531 1.277 2.625 1.277 1.101 0 1.976-.43 2.625-1.289.648-.867.972-2.078.972-3.633 0-1.39-.332-2.515-.996-3.375-.656-.867-1.531-1.301-2.625-1.301a3.11 3.11 0 0 0-2.59 1.278c-.656.851-.984 2.07-.984 3.656zm19.91 4.945c-.844.993-2.082 1.489-3.715 1.489-1.351 0-2.383-.391-3.094-1.172-.703-.789-1.058-1.953-1.066-3.492v-8.25h2.168v8.191c0 1.922.781 2.883 2.344 2.883 1.656 0 2.758-.617 3.304-1.852v-9.222h2.168v12.679h-2.062zm7.77 1.254h-2.168v-18h2.168zm2.953-6.445c0-1.945.461-3.508 1.383-4.688.921-1.187 2.128-1.781 3.621-1.781 1.484 0 2.66.508 3.527 1.524v-6.61h2.168v18h-1.992l-.106-1.359c-.867 1.062-2.074 1.594-3.621 1.594-1.469 0-2.668-.602-3.597-1.805-.922-1.203-1.383-2.773-1.383-4.711zm2.168.246c0 1.438.297 2.563.89 3.375s1.414 1.219 2.461 1.219c1.375 0 2.379-.617 3.012-1.852v-5.824c-.648-1.195-1.645-1.793-2.988-1.793-1.063 0-1.891.41-2.485 1.231s-.89 2.035-.89 3.644zm13.957-6.48l.07 1.593c.969-1.218 2.234-1.828 3.797-1.828 2.68 0 4.031 1.512 4.055 4.535v8.379h-2.168v-8.39c-.008-.914-.219-1.59-.633-2.028-.406-.437-1.043-.656-1.91-.656-.703 0-1.321.188-1.852.563s-.945.867-1.242 1.476v9.035h-2.168v-12.679zm11.297-4.02l-.246 4.313h-1.512l.012-5.614h1.746zm5.812.949v3.071h2.367v1.675h-2.367v7.864c0 .507.106.89.316 1.148.211.25.571.375 1.079.375.25 0 .593-.047 1.031-.141v1.758c-.57.157-1.125.235-1.664.235-.969 0-1.699-.293-2.192-.879s-.738-1.418-.738-2.496v-7.864h-2.308v-1.675h2.308v-3.071zm11.59 15.75v-11.004h-2.004v-1.675h2.004v-1.079c0-1.414.402-2.515 1.207-3.304.812-.789 1.957-1.184 3.434-1.184.875 0 1.98.238 3.316.715l-.363 1.828c-.977-.39-1.907-.586-2.789-.586-.93 0-1.602.211-2.016.633-.406.414-.609 1.039-.609 1.875v1.102h2.589v1.675h-2.589v11.004zm9.035 0h-2.18v-12.679h2.18zm5.578-12.679l.071 1.593c.968-1.218 2.234-1.828 3.796-1.828 2.68 0 4.032 1.512 4.055 4.535v8.379h-2.168v-8.39c-.008-.914-.219-1.59-.633-2.028-.406-.437-1.043-.656-1.91-.656-.703 0-1.32.188-1.851.563s-.946.867-1.243 1.476v9.035h-2.168v-12.679zm10.664 6.234c0-1.945.461-3.508 1.383-4.688.922-1.187 2.129-1.781 3.621-1.781 1.485 0 2.66.508 3.528 1.524v-6.61h2.167v18h-1.992l-.105-1.359c-.867 1.062-2.074 1.594-3.621 1.594-1.469 0-2.668-.602-3.598-1.805-.922-1.203-1.383-2.773-1.383-4.711zm2.168.246c0 1.438.297 2.563.891 3.375s1.414 1.219 2.461 1.219c1.375 0 2.379-.617 3.012-1.852v-5.824c-.649-1.195-1.645-1.793-2.989-1.793-1.062 0-1.89.41-2.484 1.231s-.891 2.035-.891 3.644zm20.614 6.199h-2.25v-17.062h2.25zm12.679-15.75v3.071h2.367v1.675h-2.367v7.864c0 .507.106.89.317 1.148.211.25.57.375 1.078.375.25 0 .593-.047 1.031-.141v1.758c-.57.157-1.125.235-1.664.235-.969 0-1.699-.293-2.191-.879s-.739-1.418-.739-2.496v-7.864h-2.308v-1.675h2.308v-3.071zm7.078 4.606c.961-1.18 2.211-1.77 3.75-1.77 2.68 0 4.032 1.512 4.055 4.535v8.379h-2.168v-8.39c-.008-.914-.219-1.59-.633-2.028-.406-.437-1.043-.656-1.91-.656-.703 0-1.32.188-1.851.563s-.946.867-1.243 1.476v9.035h-2.168v-18h2.168zm13.407 11.144h-2.168v-12.679h2.168zm-2.344-16.043c0-.351.105-.648.316-.89.219-.242.539-.364.961-.364s.742.122.961.364.328.539.328.89-.109.645-.328.879-.539.352-.961.352-.742-.117-.961-.352c-.211-.234-.316-.527-.316-.879zm13.207 12.68c0-.586-.223-1.039-.668-1.359-.438-.328-1.207-.61-2.309-.844-1.093-.234-1.965-.516-2.613-.844-.641-.328-1.117-.719-1.43-1.172-.304-.453-.457-.992-.457-1.617 0-1.039.438-1.918 1.313-2.637.883-.718 2.008-1.078 3.375-1.078 1.437 0 2.601.371 3.492 1.114.898.742 1.348 1.691 1.348 2.847h-2.18c0-.594-.254-1.105-.762-1.535-.5-.43-1.133-.645-1.898-.645-.789 0-1.406.172-1.852.516a1.62 1.62 0 0 0-.668 1.348c0 .523.207.918.621 1.183s1.161.52 2.239.762c1.086.242 1.965.531 2.636.867s1.168.742 1.489 1.219c.328.469.492 1.043.492 1.723 0 1.132-.453 2.043-1.36 2.73-.906.68-2.082 1.02-3.527 1.02-1.015 0-1.914-.18-2.695-.539s-1.395-.86-1.84-1.5c-.438-.649-.656-1.348-.656-2.098h2.168c.039.727.328 1.305.867 1.734.547.422 1.265.633 2.156.633.82 0 1.477-.164 1.969-.492.5-.336.75-.781.75-1.336zm21.656-2.836c0 1.93-.441 3.484-1.324 4.664s-2.078 1.77-3.586 1.77c-1.539 0-2.75-.489-3.633-1.465v6.105h-2.168v-17.554h1.981l.105 1.406c.883-1.094 2.109-1.641 3.68-1.641 1.523 0 2.726.574 3.609 1.723.891 1.148 1.336 2.746 1.336 4.793zm-2.168-.246c0-1.43-.305-2.559-.914-3.387s-1.445-1.242-2.508-1.242c-1.312 0-2.297.582-2.953 1.746v6.059c.649 1.156 1.641 1.734 2.977 1.734 1.039 0 1.863-.41 2.472-1.23.618-.828.926-2.055.926-3.68zm12.762 6.445c-.125-.25-.227-.695-.305-1.336-1.008 1.047-2.211 1.571-3.609 1.571-1.25 0-2.278-.352-3.082-1.055-.797-.711-1.196-1.609-1.196-2.695 0-1.321.5-2.344 1.5-3.071 1.008-.734 2.422-1.101 4.243-1.101h2.109v-.996c0-.758-.227-1.36-.68-1.805-.453-.453-1.121-.68-2.004-.68-.773 0-1.421.196-1.945.586s-.785.864-.785 1.418h-2.18c0-.633.223-1.242.668-1.828.453-.594 1.063-1.062 1.828-1.406.774-.344 1.621-.516 2.543-.516 1.461 0 2.606.367 3.434 1.102.828.726 1.258 1.73 1.289 3.012v5.835c0 1.165.148 2.09.445 2.778v.187zm-3.598-1.652c.68 0 1.324-.176 1.934-.527s1.051-.809 1.324-1.371v-2.602h-1.699c-2.656 0-3.985.777-3.985 2.332 0 .68.227 1.211.68 1.594s1.035.574 1.746.574zm8.309-4.793c0-1.977.457-3.547 1.371-4.711.914-1.172 2.125-1.758 3.633-1.758 1.547 0 2.754.547 3.621 1.641l.105-1.406h1.981v12.375c0 1.64-.489 2.933-1.465 3.879-.969.945-2.274 1.417-3.914 1.417-.914 0-1.809-.195-2.684-.585s-1.543-.926-2.004-1.606l1.125-1.301c.93 1.149 2.067 1.723 3.41 1.723 1.055 0 1.876-.297 2.461-.891.594-.593.891-1.429.891-2.507v-1.09c-.867 1-2.051 1.5-3.551 1.5-1.484 0-2.687-.598-3.609-1.793-.914-1.196-1.371-2.825-1.371-4.887zm2.179.246c0 1.43.293 2.555.879 3.375.586.813 1.407 1.219 2.461 1.219 1.368 0 2.371-.621 3.012-1.863v-5.79c-.664-1.21-1.66-1.816-2.988-1.816-1.055 0-1.879.41-2.473 1.231s-.891 2.035-.891 3.644zm17.075 6.434c-1.719 0-3.117-.563-4.196-1.688-1.078-1.133-1.617-2.644-1.617-4.535v-.398c0-1.258.238-2.379.715-3.364.484-.992 1.156-1.765 2.016-2.32.867-.563 1.804-.844 2.812-.844 1.649 0 2.93.543 3.844 1.629s1.371 2.641 1.371 4.664v.903h-8.59c.031 1.25.395 2.261 1.09 3.035.703.765 1.594 1.148 2.672 1.148.766 0 1.414-.156 1.945-.469a4.9 4.9 0 0 0 1.395-1.242l1.324 1.031c-1.063 1.633-2.656 2.45-4.781 2.45zm-.27-11.368c-.875 0-1.609.321-2.203.961-.594.633-.961 1.524-1.102 2.672h6.352v-.164c-.062-1.101-.359-1.953-.891-2.554-.531-.61-1.25-.915-2.156-.915zm7.781 9.997c0-.375.11-.688.329-.938.226-.25.562-.375 1.007-.375s.782.125 1.008.375c.235.25.352.563.352.938 0 .359-.117.66-.352.902-.226.242-.562.363-1.008.363s-.781-.121-1.007-.363c-.219-.242-.329-.543-.329-.902z" class="F"/><g class="D"><path d="M148.562 231.497c.008-11.8-4.282-23.198-12.069-32.064a48.54 48.54 0 0 0-30.239-16.104 48.72 48.72 0 0 0-16.09-30.308c-8.861-7.817-20.262-12.147-32.078-12.183a47.99 47.99 0 0 0-24.908 6.96A59.52 59.52 0 0 0-7.254 99.694c-10.556-3.449-21.865-3.876-32.651-1.233a59.52 59.52 0 0 0-28.382 16.188C-73.379 94.5-85.416 76.794-102.28 64.648s-37.47-17.954-58.194-16.4a88.28 88.28 0 0 0-81.256 79.404 50.55 50.55 0 0 0-20.329-4.395c-11.04-.018-21.756 3.729-30.38 10.621a48.53 48.53 0 0 0-17.056 27.291l-5.678-.367c-8.09-.002-16.051 2.025-23.155 5.897a48.36 48.36 0 0 0-17.504 16.264 48.54 48.54 0 0 0-34.185 14.54c-9.016 9.188-14.013 21.581-13.891 34.453a48.54 48.54 0 0 0 48.992 48.077h457.141c12.472-.611 24.233-5.987 32.856-15.018a48.72 48.72 0 0 0 13.481-33.517z" class="B C E"/><path d="M547 679.591a22.6 22.6 0 0 0-5.575-14.828c-3.584-4.104-8.531-6.767-13.924-7.497-.46-3.702-1.838-7.229-4.009-10.259s-5.064-5.468-8.416-7.088-7.055-2.372-10.772-2.188-7.328 1.3-10.504 3.245a27.41 27.41 0 0 0-9.155-16.839c-4.976-4.323-11.342-6.7-17.926-6.692-3.649-.003-7.263.722-10.63 2.13a27.55 27.55 0 0 0-8.989 6.076c-2.418-9.227-7.984-17.312-15.732-22.85a40.6 40.6 0 0 0-26.675-7.459c-9.488.718-18.425 4.746-25.257 11.386s-11.126 15.47-12.136 24.956c-2.901-1.358-6.066-2.059-9.268-2.051a22.23 22.23 0 0 0-13.967 4.901c-3.962 3.182-6.72 7.627-7.818 12.596l-2.648-.241a22.34 22.34 0 0 0-10.689 2.736 22.41 22.41 0 0 0-8.087 7.521c-5.637.472-10.887 3.066-14.694 7.26a22.48 22.48 0 0 0-5.829 15.349c.061 5.671 2.261 11.108 6.157 15.219s9.201 6.591 14.847 6.941h210.272a22.36 22.36 0 0 0 15.169-6.862c3.99-4.157 6.229-9.694 6.255-15.462z"/></g><path d="M372.5 581L337 510" class="E"/><path d="M271.27 500h-2.965l-7.606-12.105V500h-2.965v-17.062h2.965l7.629 12.152v-12.152h2.942V500zm2.695-6.457c0-1.242.246-2.359.738-3.352.492-1 1.184-1.765 2.074-2.296.891-.54 1.914-.809 3.071-.809 1.711 0 3.097.551 4.16 1.652 1.07 1.102 1.648 2.563 1.734 4.383l.012.668c0 1.25-.242 2.367-.727 3.352-.476.984-1.164 1.746-2.062 2.285-.891.539-1.922.808-3.094.808-1.789 0-3.223-.593-4.301-1.781-1.07-1.195-1.605-2.785-1.605-4.769zm2.847.246c0 1.305.27 2.328.809 3.07.539.735 1.289 1.102 2.25 1.102s1.707-.375 2.238-1.125c.539-.75.809-1.848.809-3.293 0-1.281-.277-2.297-.832-3.047a2.62 2.62 0 0 0-2.238-1.125c-.93 0-1.668.371-2.215 1.113-.547.735-.821 1.836-.821 3.305zm28.454 0c0 1.969-.442 3.535-1.325 4.699-.875 1.164-2.082 1.746-3.621 1.746-1.484 0-2.64-.535-3.468-1.605l-.141 1.371h-2.578v-18h2.847v6.539c.821-.969 1.926-1.453 3.317-1.453 1.547 0 2.762.574 3.644 1.723s1.325 2.753 1.325 4.816zm-2.848-.246c0-1.375-.242-2.406-.727-3.094s-1.187-1.031-2.109-1.031c-1.234 0-2.102.539-2.602 1.617v5.227c.508 1.101 1.383 1.652 2.625 1.652.891 0 1.579-.332 2.063-.996s.734-1.668.75-3.012zm12.82 6.457c-.125-.242-.234-.637-.328-1.184-.906.946-2.015 1.418-3.328 1.418-1.273 0-2.312-.363-3.117-1.089s-1.207-1.625-1.207-2.696c0-1.351.5-2.387 1.5-3.105 1.008-.727 2.445-1.09 4.312-1.09h1.746v-.832c0-.656-.183-1.18-.55-1.57-.368-.399-.926-.598-1.676-.598-.649 0-1.18.164-1.594.492-.414.32-.621.731-.621 1.231h-2.848c0-.696.231-1.344.692-1.946.461-.609 1.086-1.086 1.875-1.429.797-.344 1.683-.516 2.66-.516 1.484 0 2.668.375 3.551 1.125.883.742 1.336 1.789 1.359 3.141v5.718c0 1.141.16 2.051.481 2.731V500zm-3.129-2.051a3.21 3.21 0 0 0 1.582-.41c.5-.273.875-.641 1.125-1.101v-2.391h-1.535c-1.054 0-1.847.183-2.379.551a1.78 1.78 0 0 0-.797 1.558c0 .547.18.985.54 1.313.367.32.855.48 1.464.48zm13.746.012c.711 0 1.301-.207 1.77-.621a2.12 2.12 0 0 0 .75-1.535h2.684c-.032.789-.278 1.527-.739 2.215-.461.679-1.086 1.218-1.875 1.617a5.59 5.59 0 0 1-2.554.597c-1.774 0-3.18-.574-4.219-1.722s-1.559-2.735-1.559-4.758v-.293c0-1.93.516-3.473 1.547-4.629 1.031-1.164 2.438-1.746 4.219-1.746 1.508 0 2.734.441 3.68 1.324.953.875 1.453 2.028 1.5 3.457h-2.684c-.031-.726-.281-1.324-.75-1.793-.461-.469-1.051-.703-1.77-.703-.921 0-1.632.336-2.132 1.008-.5.664-.754 1.676-.762 3.035v.457c0 1.375.246 2.402.738 3.082.5.672 1.219 1.008 2.156 1.008zm11.473-3.399l-1.266 1.301V500h-2.847v-18h2.847v10.383l.891-1.113 3.504-3.95h3.422l-4.711 5.285 5.215 7.395h-3.293zm16.102 4.196c-.836.984-2.024 1.476-3.563 1.476-1.375 0-2.418-.402-3.129-1.207-.703-.804-1.054-1.968-1.054-3.492v-8.215h2.847v8.18c0 1.609.668 2.414 2.004 2.414 1.383 0 2.317-.496 2.801-1.488v-9.106h2.848V500H353.5zm16.758-4.969c0 1.961-.446 3.527-1.336 4.699-.891 1.164-2.086 1.746-3.586 1.746-1.391 0-2.504-.457-3.34-1.371v6.012h-2.848V487.32h2.625l.117 1.289c.836-1.015 1.973-1.523 3.41-1.523 1.547 0 2.758.578 3.633 1.734.883 1.149 1.325 2.746 1.325 4.793zm-2.836-.246c0-1.266-.254-2.27-.762-3.012-.5-.742-1.219-1.113-2.156-1.113-1.164 0-2 .48-2.508 1.441v5.625c.515.985 1.359 1.477 2.531 1.477a2.44 2.44 0 0 0 2.121-1.09c.516-.734.774-1.844.774-3.328zm7.898 1.441c0-1.039.129-1.867.387-2.484s.765-1.293 1.523-2.027c.766-.743 1.25-1.27 1.453-1.582.313-.477.469-.993.469-1.547 0-.735-.184-1.293-.551-1.676-.359-.391-.89-.586-1.593-.586-.672 0-1.215.191-1.629.574-.407.375-.61.887-.61 1.535h-2.847c.015-1.382.484-2.476 1.406-3.281.93-.805 2.156-1.207 3.68-1.207 1.57 0 2.792.399 3.667 1.195.883.797 1.325 1.911 1.325 3.34 0 1.274-.594 2.528-1.782 3.762l-1.441 1.418c-.516.586-.781 1.441-.797 2.566zm-.199 3.645c0-.461.144-.832.433-1.113.289-.289.68-.434 1.172-.434.5 0 .895.148 1.184.445.289.289.433.657.433 1.102 0 .43-.14.789-.421 1.078s-.68.434-1.196.434-.914-.145-1.195-.434c-.273-.289-.41-.648-.41-1.078z" class="F"/><g clip-path="url(#B)"><g class="B C E"><path d="M254.403 806.093a33.15 33.15 0 0 0-28.897-32.899c-1.031-8.004-4.937-15.361-10.989-20.7s-13.839-8.296-21.91-8.321a32.78 32.78 0 0 0-17.012 4.753c-1.08-7.507-4.239-14.562-9.119-20.368s-11.287-10.132-18.496-12.487a40.66 40.66 0 0 0-22.301-.842 40.65 40.65 0 0 0-19.385 11.056c-3.478-13.762-11.7-25.855-23.217-34.151s-25.593-12.262-39.747-11.201a60.3 60.3 0 0 0-37.633 17.002c-10.152 9.92-16.478 23.105-17.865 37.231a34.54 34.54 0 0 0-13.885-3.002 33.15 33.15 0 0 0-20.749 7.254c-5.89 4.707-9.999 11.283-11.65 18.64l-3.878-.25c-5.526-.002-10.963 1.383-15.815 4.027s-8.962 6.464-11.955 11.109a33.15 33.15 0 1 0 .626 66.299h312.229c8.519-.417 16.552-4.089 22.441-10.257a33.28 33.28 0 0 0 9.208-22.893z" class="D"/><path d="M203.115 839.243a31.77 31.77 0 0 1 31.773-31.648m-58.918-58.794c-7.005 5.755-10.508 14.261-10.508 24.143m-58.793-47.535c-.013 6.864-1.197 13.675-3.503 20.14"/></g><use xlink:href="#C" class="D"/><g class="E B C"><use xlink:href="#C"/><g class="D"><use xlink:href="#D"/><path d="M65.889 784.953a7.51 7.51 0 0 0 7.506-7.506c0-4.146-3.36-7.505-7.506-7.505s-7.506 3.36-7.506 7.505a7.51 7.51 0 0 0 7.506 7.506zm99.573 1.501a7.51 7.51 0 0 0 7.506-7.505 7.51 7.51 0 0 0-7.506-7.506c-4.145 0-7.505 3.36-7.505 7.506s3.36 7.505 7.505 7.505z"/></g><path d="M53.88 810.597v30.147m55.791-14.261v12.009m31.648-45.283v48.285"/></g></g><path d="M115 682.5l20.5-36.5" stroke="#e7e3e3"/><path d="M55.094 594h-2.262l-8.59-13.148V594H41.98v-17.062h2.262l8.613 13.207v-13.207h2.238V594zm3.082-6.457c0-1.242.242-2.359.726-3.352.492-.992 1.172-1.757 2.039-2.296.875-.54 1.871-.809 2.988-.809 1.727 0 3.121.598 4.184 1.793 1.07 1.195 1.606 2.785 1.606 4.769v.153c0 1.234-.238 2.344-.715 3.328-.469.976-1.145 1.738-2.027 2.285-.875.547-1.883.82-3.024.82-1.719 0-3.113-.597-4.184-1.793-1.062-1.195-1.594-2.777-1.594-4.746v-.152zm2.18.258c0 1.406.324 2.535.973 3.387.656.851 1.531 1.277 2.625 1.277 1.102 0 1.977-.43 2.625-1.289.648-.867.973-2.078.973-3.633 0-1.391-.332-2.516-.996-3.375-.656-.867-1.531-1.301-2.625-1.301a3.11 3.11 0 0 0-2.59 1.278c-.656.851-.984 2.07-.984 3.656zm12.012 9.597l-1.23-.843c.734-1.024 1.117-2.078 1.148-3.164v-1.957h2.121v1.699c0 .789-.195 1.578-.586 2.367-.383.789-.867 1.422-1.453 1.898zM85.856 594h-2.25v-17.062h2.25zm9.211-6.445c0-1.946.461-3.508 1.383-4.688.922-1.187 2.129-1.781 3.621-1.781 1.485 0 2.66.508 3.528 1.523V576h2.168v18h-1.993l-.105-1.359c-.867 1.062-2.074 1.593-3.621 1.593-1.469 0-2.668-.601-3.598-1.804-.922-1.203-1.383-2.774-1.383-4.711zm2.168.246c0 1.437.297 2.562.891 3.375s1.414 1.219 2.461 1.219c1.375 0 2.379-.618 3.012-1.852v-5.824c-.649-1.196-1.645-1.793-2.989-1.793-1.062 0-1.89.41-2.484 1.23s-.891 2.035-.891 3.645zm11.332-.258c0-1.242.243-2.359.727-3.352.492-.992 1.172-1.757 2.039-2.296.875-.54 1.871-.809 2.988-.809 1.727 0 3.121.598 4.184 1.793 1.07 1.195 1.605 2.785 1.605 4.769v.153c0 1.234-.238 2.344-.714 3.328-.469.976-1.145 1.738-2.028 2.285-.875.547-1.883.82-3.023.82-1.719 0-3.114-.597-4.184-1.793-1.062-1.195-1.594-2.777-1.594-4.746zm2.18.258c0 1.406.324 2.535.973 3.387.656.851 1.531 1.277 2.625 1.277 1.101 0 1.976-.43 2.625-1.289.648-.867.972-2.078.972-3.633 0-1.391-.332-2.516-.996-3.375-.656-.867-1.531-1.301-2.625-1.301a3.11 3.11 0 0 0-2.59 1.278c-.656.851-.984 2.07-.984 3.656zm14.133-6.481l.07 1.594c.969-1.219 2.235-1.828 3.797-1.828 2.68 0 4.031 1.512 4.055 4.535V594h-2.168v-8.391c-.008-.914-.219-1.589-.633-2.027-.406-.437-1.043-.656-1.91-.656-.703 0-1.32.187-1.852.562a3.82 3.82 0 0 0-1.242 1.477V594h-2.168v-12.68zm10.406.422l-1.23-.844c.726-1.015 1.101-2.086 1.125-3.21V576h2.144v1.523c-.008.782-.203 1.563-.586 2.344-.375.774-.859 1.399-1.453 1.875zm7.594-3.492v3.07h2.367v1.676h-2.367v7.863c0 .508.105.891.316 1.149.211.25.571.375 1.078.375.25 0 .594-.047 1.032-.141V594c-.571.156-1.125.234-1.664.234-.969 0-1.7-.293-2.192-.879s-.738-1.417-.738-2.496v-7.863h-2.309v-1.676h2.309v-3.07zm16.125 15.984c-1.719 0-3.117-.562-4.195-1.687-1.079-1.133-1.618-2.645-1.618-4.535v-.399c0-1.258.239-2.379.715-3.363.485-.992 1.156-1.766 2.016-2.32.867-.563 1.805-.844 2.812-.844 1.649 0 2.93.543 3.844 1.629s1.371 2.64 1.371 4.664v.902h-8.59c.032 1.25.395 2.262 1.09 3.035.703.766 1.594 1.149 2.672 1.149.766 0 1.414-.156 1.945-.469a4.9 4.9 0 0 0 1.395-1.242l1.324 1.031c-1.062 1.633-2.656 2.449-4.781 2.449zm-.27-11.367c-.875 0-1.609.321-2.203.961-.593.633-.961 1.524-1.101 2.672h6.351v-.164c-.062-1.102-.359-1.953-.89-2.555-.532-.609-1.25-.914-2.157-.914zm11.989 3.082l2.812-4.629h2.531l-4.148 6.27 4.277 6.41h-2.507l-2.93-4.746-2.93 4.746h-2.519l4.277-6.41-4.148-6.27h2.507zM180.73 594h-2.168v-12.68h2.168zm-2.343-16.043c0-.352.105-.648.316-.891.219-.242.539-.363.961-.363s.742.121.961.363a1.28 1.28 0 0 1 .328.891c0 .352-.109.645-.328.879s-.539.352-.961.352-.742-.118-.961-.352c-.211-.234-.316-.527-.316-.879zm13.207 12.68c0-.586-.223-1.039-.668-1.36-.438-.328-1.207-.609-2.309-.843-1.094-.235-1.965-.516-2.613-.844-.641-.328-1.117-.719-1.43-1.172-.304-.453-.457-.992-.457-1.617 0-1.039.438-1.918 1.313-2.637.882-.719 2.008-1.078 3.375-1.078 1.437 0 2.601.371 3.492 1.113a3.53 3.53 0 0 1 1.348 2.848h-2.18c0-.594-.254-1.106-.762-1.535-.5-.43-1.133-.645-1.898-.645-.789 0-1.407.172-1.852.516s-.668.793-.668 1.347c0 .524.207.918.621 1.184s1.16.52 2.239.762c1.085.242 1.964.531 2.636.867s1.168.742 1.489 1.219c.328.468.492 1.043.492 1.722 0 1.133-.453 2.043-1.36 2.731-.906.68-2.082 1.019-3.527 1.019-1.016 0-1.914-.179-2.695-.539s-1.395-.859-1.84-1.5a3.67 3.67 0 0 1-.656-2.097h2.168c.039.726.328 1.304.867 1.734.547.422 1.265.633 2.156.633.82 0 1.477-.164 1.969-.492.5-.336.75-.782.75-1.336zm7.933-12.387v3.07h2.368v1.676h-2.368v7.863c0 .508.106.891.317 1.149.211.25.57.375 1.078.375.25 0 .594-.047 1.031-.141V594c-.57.156-1.125.234-1.664.234-.969 0-1.699-.293-2.191-.879s-.739-1.417-.739-2.496v-7.863h-2.308v-1.676h2.308v-3.07zm13.805 0v3.07h2.367v1.676h-2.367v7.863c0 .508.106.891.316 1.149.211.25.571.375 1.079.375.25 0 .593-.047 1.031-.141V594c-.57.156-1.125.234-1.664.234-.969 0-1.699-.293-2.192-.879s-.738-1.417-.738-2.496v-7.863h-2.309v-1.676h2.309v-3.07zm4.102 9.293c0-1.242.242-2.359.726-3.352.492-.992 1.172-1.757 2.039-2.296.875-.54 1.871-.809 2.989-.809 1.726 0 3.121.598 4.183 1.793 1.07 1.195 1.606 2.785 1.606 4.769v.153c0 1.234-.239 2.344-.715 3.328-.469.976-1.145 1.738-2.028 2.285-.875.547-1.882.82-3.023.82-1.719 0-3.113-.597-4.184-1.793-1.062-1.195-1.593-2.777-1.593-4.746zm2.179.258c0 1.406.325 2.535.973 3.387.656.851 1.531 1.277 2.625 1.277 1.101 0 1.977-.43 2.625-1.289.648-.867.973-2.078.973-3.633 0-1.391-.332-2.516-.997-3.375-.656-.867-1.531-1.301-2.624-1.301-1.071 0-1.934.426-2.59 1.278s-.985 2.07-.985 3.656zm17.52-.246c0-1.977.457-3.547 1.371-4.711.914-1.172 2.125-1.758 3.633-1.758 1.547 0 2.754.547 3.621 1.641l.105-1.407h1.981v12.375c0 1.641-.489 2.934-1.465 3.879-.969.946-2.274 1.418-3.914 1.418-.914 0-1.809-.195-2.684-.586s-1.543-.926-2.004-1.605l1.125-1.301c.93 1.148 2.067 1.723 3.41 1.723 1.055 0 1.876-.297 2.461-.891.594-.594.891-1.43.891-2.508v-1.09c-.867 1-2.051 1.5-3.551 1.5a4.34 4.34 0 0 1-3.609-1.793c-.914-1.195-1.371-2.824-1.371-4.886zm2.179.246c0 1.429.293 2.554.879 3.375.586.812 1.407 1.219 2.461 1.219 1.368 0 2.371-.622 3.012-1.864v-5.789c-.664-1.211-1.66-1.816-2.988-1.816-1.055 0-1.879.41-2.473 1.23s-.891 2.035-.891 3.645zm17.075 6.433c-1.719 0-3.117-.562-4.196-1.687-1.078-1.133-1.617-2.645-1.617-4.535v-.399c0-1.258.238-2.379.715-3.363.484-.992 1.156-1.766 2.016-2.32.867-.563 1.804-.844 2.812-.844 1.649 0 2.93.543 3.844 1.629s1.371 2.64 1.371 4.664v.902h-8.59c.031 1.25.395 2.262 1.09 3.035.703.766 1.594 1.149 2.672 1.149.766 0 1.414-.156 1.945-.469a4.9 4.9 0 0 0 1.395-1.242l1.324 1.031c-1.063 1.633-2.656 2.449-4.781 2.449zm-.27-11.367c-.875 0-1.609.321-2.203.961-.594.633-.961 1.524-1.102 2.672h6.352v-.164c-.062-1.102-.359-1.953-.891-2.555-.531-.609-1.25-.914-2.156-.914zm10.676-4.617v3.07h2.367v1.676h-2.367v7.863c0 .508.105.891.316 1.149.211.25.571.375 1.079.375.25 0 .593-.047 1.031-.141V594c-.571.156-1.125.234-1.664.234-.969 0-1.7-.293-2.192-.879s-.738-1.417-.738-2.496v-7.863h-2.309v-1.676h2.309v-3.07zM49.469 622c-.125-.25-.227-.695-.305-1.336-1.008 1.047-2.211 1.57-3.609 1.57-1.25 0-2.277-.351-3.082-1.054-.797-.711-1.195-1.61-1.195-2.696 0-1.32.5-2.343 1.5-3.07 1.008-.734 2.422-1.102 4.242-1.102h2.109v-.996c0-.757-.227-1.359-.68-1.804-.453-.453-1.121-.68-2.004-.68-.773 0-1.422.195-1.945.586s-.785.863-.785 1.418h-2.18c0-.633.223-1.242.668-1.828.453-.594 1.063-1.063 1.828-1.406.773-.344 1.621-.516 2.543-.516 1.461 0 2.605.367 3.434 1.102.828.726 1.258 1.73 1.289 3.011v5.836c0 1.164.148 2.09.445 2.777V622zm-3.598-1.652a3.81 3.81 0 0 0 1.934-.528c.61-.352 1.051-.808 1.324-1.371v-2.601H47.43c-2.656 0-3.984.777-3.984 2.332 0 .679.227 1.211.68 1.593s1.035.575 1.746.575zm25.512-4.547c0 1.937-.445 3.496-1.336 4.676-.891 1.171-2.086 1.757-3.586 1.757-1.602 0-2.84-.566-3.715-1.699L62.641 622h-1.992v-18h2.168v6.715c.875-1.086 2.082-1.629 3.621-1.629s2.746.582 3.621 1.746c.883 1.164 1.324 2.758 1.324 4.781zm-2.168-.246c0-1.477-.285-2.617-.855-3.422s-1.391-1.207-2.461-1.207c-1.43 0-2.457.664-3.082 1.992v5.484c.664 1.328 1.699 1.993 3.105 1.993 1.039 0 1.848-.403 2.426-1.207s.867-2.016.867-3.633zM81.953 622c-.125-.25-.227-.695-.305-1.336-1.008 1.047-2.211 1.57-3.609 1.57-1.25 0-2.277-.351-3.082-1.054-.797-.711-1.195-1.61-1.195-2.696 0-1.32.5-2.343 1.5-3.07 1.008-.734 2.422-1.102 4.242-1.102h2.109v-.996c0-.757-.227-1.359-.68-1.804-.453-.453-1.121-.68-2.004-.68-.773 0-1.422.195-1.945.586s-.785.863-.785 1.418h-2.18c0-.633.223-1.242.668-1.828.453-.594 1.063-1.063 1.828-1.406.773-.344 1.621-.516 2.543-.516 1.461 0 2.606.367 3.434 1.102.828.726 1.258 1.73 1.289 3.011v5.836c0 1.164.148 2.09.445 2.777V622zm-3.598-1.652a3.81 3.81 0 0 0 1.934-.528c.61-.352 1.051-.808 1.324-1.371v-2.601h-1.699c-2.656 0-3.984.777-3.984 2.332 0 .679.227 1.211.68 1.593s1.035.575 1.746.575zm13.91.117c.773 0 1.449-.235 2.027-.703s.898-1.055.961-1.758h2.051c-.039.726-.289 1.418-.75 2.074s-1.078 1.18-1.852 1.57c-.766.391-1.578.586-2.437.586-1.727 0-3.102-.574-4.125-1.722-1.016-1.157-1.523-2.735-1.523-4.735v-.363c0-1.234.227-2.332.68-3.293s1.102-1.707 1.945-2.238c.852-.531 1.856-.797 3.012-.797 1.422 0 2.602.426 3.539 1.277.945.852 1.449 1.957 1.512 3.317h-2.051c-.062-.821-.375-1.492-.937-2.016-.555-.531-1.242-.797-2.062-.797-1.102 0-1.957.399-2.566 1.195-.602.79-.902 1.934-.902 3.434v.41c0 1.461.301 2.586.902 3.375s1.461 1.184 2.578 1.184zm11.015-4.336l-1.359 1.418V622h-2.168v-18h2.168v10.887l1.16-1.395 3.949-4.172h2.637l-4.934 5.297 5.508 7.383h-2.543zm16.453 4.617c-.843.992-2.082 1.488-3.714 1.488-1.352 0-2.383-.39-3.094-1.172-.703-.789-1.059-1.953-1.067-3.492v-8.25h2.168v8.192c0 1.922.782 2.883 2.344 2.883 1.656 0 2.758-.618 3.305-1.852v-9.223h2.168V622h-2.063zm16.125-4.945c0 1.929-.441 3.484-1.324 4.664s-2.078 1.769-3.586 1.769c-1.539 0-2.75-.488-3.633-1.464v6.105h-2.168V609.32h1.981l.105 1.407c.883-1.094 2.11-1.641 3.68-1.641 1.524 0 2.727.574 3.609 1.723.891 1.148 1.336 2.746 1.336 4.793zm-2.168-.246c0-1.43-.304-2.559-.914-3.387s-1.445-1.242-2.507-1.242c-1.313 0-2.297.582-2.954 1.746v6.058c.649 1.157 1.641 1.735 2.977 1.735 1.039 0 1.863-.41 2.473-1.231.617-.828.925-2.054.925-3.679zm10.313-.012c0-1.242.242-2.359.726-3.352.493-.992 1.172-1.757 2.04-2.296.875-.54 1.871-.809 2.988-.809 1.726 0 3.121.598 4.183 1.793 1.071 1.195 1.606 2.785 1.606 4.769v.153c0 1.234-.238 2.344-.715 3.328-.469.976-1.144 1.738-2.027 2.285-.875.547-1.883.82-3.024.82-1.719 0-3.113-.597-4.183-1.793-1.063-1.195-1.594-2.777-1.594-4.746zm2.18.258c0 1.406.324 2.535.972 3.387.656.851 1.532 1.277 2.625 1.277 1.102 0 1.977-.43 2.625-1.289.649-.867.973-2.078.973-3.633 0-1.391-.332-2.516-.996-3.375-.656-.867-1.531-1.301-2.625-1.301a3.11 3.11 0 0 0-2.59 1.278c-.656.851-.984 2.07-.984 3.656zM159.332 622v-11.004h-2.004v-1.676h2.004v-1.3c0-1.36.363-2.411 1.09-3.153s1.754-1.113 3.082-1.113a5.68 5.68 0 0 1 1.488.199l-.117 1.758a6.25 6.25 0 0 0-1.172-.106c-.703 0-1.246.207-1.629.622-.383.406-.574.992-.574 1.757v1.336h2.707v1.676H161.5V622zm15.27-12.68l.058 1.407c.93-1.094 2.184-1.641 3.762-1.641 1.773 0 2.98.68 3.621 2.039.422-.609.969-1.102 1.641-1.477.679-.375 1.48-.562 2.402-.562 2.781 0 4.195 1.473 4.242 4.418V622h-2.168v-8.367c0-.906-.207-1.582-.621-2.028-.414-.453-1.109-.679-2.086-.679-.805 0-1.473.242-2.004.726-.531.477-.84 1.121-.926 1.934V622h-2.179v-8.309c0-1.843-.903-2.765-2.707-2.765-1.422 0-2.395.605-2.918 1.816V622h-2.168v-12.68zm23.156 9.504l2.953-9.504h2.32l-5.097 14.637c-.789 2.109-2.043 3.164-3.762 3.164l-.41-.035-.809-.152v-1.758l.586.047c.734 0 1.305-.149 1.711-.446.414-.297.754-.839 1.02-1.629l.48-1.289-4.523-12.539h2.367zm14.601-.187c0-.586-.222-1.039-.668-1.36-.437-.328-1.207-.609-2.308-.843-1.094-.235-1.965-.516-2.613-.844-.641-.328-1.118-.719-1.43-1.172-.305-.453-.457-.992-.457-1.617 0-1.039.437-1.918 1.312-2.637.883-.719 2.008-1.078 3.375-1.078 1.438 0 2.602.371 3.492 1.113.899.742 1.348 1.692 1.348 2.848h-2.18c0-.594-.253-1.106-.761-1.535-.5-.43-1.133-.645-1.899-.645-.789 0-1.406.172-1.851.516a1.62 1.62 0 0 0-.668 1.347c0 .524.207.918.621 1.184s1.16.52 2.238.762c1.086.242 1.965.531 2.637.867s1.168.742 1.488 1.219c.328.468.492 1.043.492 1.722a3.26 3.26 0 0 1-1.359 2.731c-.906.68-2.082 1.019-3.527 1.019-1.016 0-1.914-.179-2.696-.539s-1.394-.859-1.84-1.5c-.437-.648-.656-1.347-.656-2.097h2.168c.039.726.328 1.304.867 1.734.547.422 1.266.633 2.157.633.82 0 1.476-.164 1.968-.492.5-.336.75-.782.75-1.336zm10.254 3.597c-1.718 0-3.117-.562-4.195-1.687-1.078-1.133-1.617-2.645-1.617-4.535v-.399c0-1.258.238-2.379.715-3.363.484-.992 1.156-1.766 2.015-2.32.867-.563 1.805-.844 2.813-.844 1.648 0 2.929.543 3.844 1.629s1.371 2.64 1.371 4.664v.902h-8.59c.031 1.25.394 2.262 1.09 3.035.703.766 1.593 1.149 2.671 1.149.766 0 1.415-.156 1.946-.469a4.87 4.87 0 0 0 1.394-1.242l1.325 1.031c-1.063 1.633-2.657 2.449-4.782 2.449zm-.269-11.367a2.88 2.88 0 0 0-2.203.961c-.594.633-.961 1.524-1.102 2.672h6.352v-.164c-.063-1.102-.36-1.953-.891-2.555-.531-.609-1.25-.914-2.156-.914zM232.434 622h-2.168v-18h2.168zm4.546 0v-11.004h-2.003v-1.676h2.003v-1.3c0-1.36.364-2.411 1.09-3.153s1.754-1.113 3.082-1.113a5.69 5.69 0 0 1 1.489.199l-.118 1.758a6.24 6.24 0 0 0-1.171-.106c-.704 0-1.247.207-1.629.622-.383.406-.575.992-.575 1.757v1.336h2.707v1.676h-2.707V622zm7.325-1.137c0-.375.109-.687.328-.937.226-.25.562-.375 1.008-.375s.781.125 1.007.375c.235.25.352.562.352.937 0 .36-.117.66-.352.903-.226.242-.562.363-1.007.363s-.782-.121-1.008-.363c-.219-.243-.328-.543-.328-.903z" class="F"/></g><defs><clipPath id="A"><path fill="#fff" d="M0 0h414v896H0z"/></clipPath><clipPath id="B"><path fill="#fff" transform="translate(-123 679)" d="M0 0h379.279v170H0z"/></clipPath><path id="C" d="M67.39 772.944c0-7.597 3.018-14.884 8.39-20.256s12.658-8.39 20.256-8.39 14.884 3.018 20.256 8.39 8.39 12.659 8.39 20.256"/><path id="D" d="M124.682 786.454a7.51 7.51 0 0 0 7.506-7.505 7.51 7.51 0 0 0-7.506-7.506c-4.145 0-7.505 3.36-7.505 7.506s3.36 7.505 7.505 7.505z"/></defs></svg>