<svg width="332" height="789" viewBox="0 0 332 789" fill="none" xmlns="http://www.w3.org/2000/svg"><circle cx="43" cy="301" r="43"/><circle cx="135" cy="293" r="39"/><circle cx="87" cy="221" r="37"/><circle cx="280" cy="422" r="33"/><circle cx="205" cy="682" r="37"/><circle cx="45" cy="553" r="40"/><circle cx="123" cy="711" r="37"/><circle cx="126" cy="137" r="39"/><circle cx="39" cy="151" r="39"/><circle cx="256" cy="43" r="43"/><circle cx="133" cy="625" r="39"/><circle cx="43" cy="750" r="38"/><circle cx="215" cy="129" r="40"/><circle cx="48" cy="648" r="41"/><circle cx="176" cy="212" r="39"/><circle cx="40" cy="433" r="39"/><path d="M63.4 290.6L45.1 272l-1.8-1.8-13.8 14-6.3 6.3a1.7 1.7 0 000 2.4l12.6 12.7 7.5 7.6 13.8-14 .2-.2 6.1-6.1a1.7 1.7 0 000-2.4zm-20 7.5l-6.4-6.3 6.3-6.4 6.3 6.4-6.3 6.3z" fill="#2684FF"/><path d="M43.3 285.4a10.8 10.8 0 010-15l-13.8 13.8 7.5 7.6 6.3-6.4z" fill="url(#paint0_linear)"/><path d="M49.6 291.8l-6.3 6.3a10.7 10.7 0 010 15.2l13.8-14-7.5-7.5z" fill="url(#paint1_linear)"/><path d="M66 234.4a3 3 0 113-3 3 3 0 01-3 3zm3 .4c0 .2.5 1 1 1h.5c.1 0 .3 0 .3-.2v-8.4l-.1-.2h-1.4c-.2 0-.3 0-.3.2v.7a4 4 0 00-3.1-1.3 4.8 4.8 0 00-4.8 4.7c0 2.6 2.1 4.7 4.8 4.7 1.2 0 2.5-.4 3-1.2zm4.7-1.2c.8.5 1.7.8 2.5.8s1.7-.4 1.7-1.1c0-1-1.9-1.1-3-1.5-1.2-.4-2.2-1.2-2.2-2.5 0-1.9 1.8-2.7 3.5-2.7 1 0 2.1.3 2.8.8.3.2.1.4.1.4l-.7 1h-.3c-.5-.3-1-.6-2-.6s-1.5.5-1.5 1c0 .7.8 1 1.7 1.2 1.6.4 3.4 1 3.4 2.9 0 1.7-1.7 2.7-3.5 2.7a6 6 0 01-3.5-1c-.2-.3 0-.4 0-.4l.6-1c.1-.2.3 0 .4 0zm15 1.2c0 .2.6 1 1.2 1h.4c.1 0 .2 0 .2-.2v-8.4-.2H89c-.1 0-.2 0-.2.2v.7a4 4 0 00-3.1-1.3 4.8 4.8 0 00-4.9 4.7c0 2.6 2.2 4.7 4.9 4.7 1.2 0 2.4-.4 3-1.2zm-3-.4a3 3 0 110-6.2 3 3 0 010 6.2zm15.7.6v-4.3c0-2.4-1.6-4-4.1-4a3 3 0 00-2.5 1.2c0-.6-.5-1-1.1-1h-.4c-.2 0-.3.2-.3.3v8.4c0 .1.1.3.3.3h1.3v-.1l.2-.2v-5c0-1.3 1-2.3 2.4-2.3s2.4 1 2.4 2.3v5l.3.3h1.3a.4.4 0 00.2-.2v-.7zm9.5-.2c0 .2.5 1 1 1h.5c.1 0 .2 0 .2-.2v-8.4-.2H111l-.1.2v.7a4 4 0 00-3.1-1.3 4.8 4.8 0 00-4.9 4.7c0 2.6 2.2 4.7 4.9 4.7 1.2 0 2.4-.4 3-1.2zm-3.1-.4a3 3 0 110-6.2 3 3 0 010 6.2z" fill="#283343"/><path d="M92.4 212.3a4.2 4.2 0 00-4.2 4.2c0 2.2 1.9 4.1 4.2 4.1 2.4 0 4.3-1.9 4.3-4.1 0-2.3-2-4.2-4.3-4.2zm-11 0a4.2 4.2 0 00-4.2 4.2c0 2.2 1.9 4.1 4.2 4.1 2.4 0 4.3-1.9 4.3-4.1 0-2.3-2-4.2-4.3-4.2zm9.8-5.1c0 2.3-2 4.1-4.3 4.1a4.2 4.2 0 01-4.2-4.1c0-2.3 1.9-4.2 4.2-4.2 2.4 0 4.3 1.9 4.3 4.2z" fill="url(#paint2_radial)"/><path d="M15.8 157.5h8.5s1.7 0 1.5 2l-6.3 6.4h4.8s2.3-.2 2 2.2h-8.1s-1.8 0-1.8-2.2l6.3-6.3H18s-2.4 0-2.2-2zM52.4 140.4a13.2 13.2 0 10-26.4 0 13.2 13.2 0 0026.4 0z" fill="#2D8CFF"/><path d="M31.1 166a3.2 3.2 0 110-6.4 3.2 3.2 0 010 6.4zm5.3-3.2a5.3 5.3 0 10-10.6 0 5.3 5.3 0 0010.6 0zM42.2 166a3.2 3.2 0 01-2.2-5.5 3.2 3.2 0 112.2 5.5zm5.4-3.2a5.3 5.3 0 10-10.7 0 5.3 5.3 0 0010.7 0zM48 157.5V168s2 .3 2.1-1.8v-4.5s.1-2.2 2.2-2.2c0 0 2 0 2.1 2v4.7s.2 2 2.2 1.8v-6.4s0-2.3 2.2-2.1c0 0 1.8.1 2 1.8v4.4s-.3 2.5 2.1 2.3v-6.6s-.1-3.6-3.9-4c0 0-2.4-.1-3.5 1.4 0 0-2.5-2.8-5.5-.6 0 0-.7-.7-2-.8z" fill="#2D8CFF"/><path d="M30.7 135.6h9.7s2.4.2 2.4 2.1v7.4h-9.4s-2.7.3-2.7-2.5v-7zM47.6 135.6v9.5l-4.2-2.8v-3.9l4.2-2.8z" fill="#fff"/><circle cx="71" cy="67" r="43"/><path d="M56.5 45c0-2.7 2-4.8 4.7-4.8H82c2.6 0 4.8 2 4.8 4.7v20.8c0 2.7-2.2 4.8-4.8 4.8H61.2a4.7 4.7 0 01-4.7-4.8V45z" fill="#FA0F00"/><path d="M61.2 40.2H82c2.6 0 4.8 2 4.8 4.7v20.8c0 2.7-2.2 4.8-4.8 4.8H61.2a4.7 4.7 0 01-4.7-4.8V45c0-2.6 2-4.7 4.7-4.7z" fill="#FA0F00"/><path d="M81.2 58.1c-1.5-1.5-5.6-.9-6.6-.8-1-1-2-2.3-2.7-3.6.5-1.5.8-3.1.9-4.7 0-1.5-.6-3-2.2-3-.6 0-1 .3-1.4.8-.7 1.2-.4 3.6.7 6-.7 2.3-1.7 4.5-2.8 6.6-1.7.7-5.2 2.3-5.5 4 0 .6.1 1.1.5 1.5.4.3 1 .5 1.4.5 2.2 0 4.2-3 5.7-5.4 1.6-.5 3.3-1 5-1.3a8 8 0 005.2 2.2c1.4 0 2-.6 2-1 .3-.6.2-1.3-.2-1.8zm-1.5 1c0 .4-.5.8-1.4.6-1.1-.3-2.1-.8-3-1.5.8-.1 2.4-.3 3.6 0 .5 0 1 .4.8 1zm-9.5-11.8c0-.2.2-.3.4-.3.5 0 .6.6.6 1.2 0 1.2-.2 2.4-.6 3.5-1-2.3-.7-3.9-.4-4.4zM70 58.4c.5-1 1-2 1.4-3.2.5.9 1.1 1.7 1.8 2.4l-3.2.8zm-3.4 2.3c-1.3 2.2-2.7 3.6-3.4 3.6l-.3-.1c-.2-.1-.3-.3-.2-.5.1-.8 1.6-2 4-3z" fill="#fff"/><circle cx="163.9" cy="54.9" r="39.9"/><path d="M154.8 66.9a2.3 2.3 0 01-2.2-1.3l-4.9-9.1c-.3-.4-.4-1-.4-1.4l7.7.4 1.8 1.7h15.4l-12.8 8c-.6.4-3 1.7-4.6 1.7z" fill="url(#paint3_linear)"/><path d="M156.8 57.2h-6.6c-2 0-2.9-1-2.9-2 0-.7.2-1.3.5-1.9l9.7-23 .2-.3v-.2l.4-.3.4-.2.6-.1h1l6.7 2.5-2.3 7.2-7.7 18.3z" fill="url(#paint4_linear)"/><path d="M176.3 66.8L161 30.7a2 2 0 00-1.7-1.4 1.7 1.7 0 00-1.8 1 1.7 1.7 0 011.8-1.2h10.5a1.6 1.6 0 011.7 1.1L187 66.8h-10.7z" fill="url(#paint5_linear)"/><path d="M230.5 149.8h-31.2a7.7 7.7 0 01-7.7-7.7v-31.2c0-4.3 3.4-7.8 7.7-7.8h31.2c4.3 0 7.8 3.5 7.8 7.8V142c0 4.2-3.5 7.7-7.8 7.7z" fill="#00AEEF"/><path d="M215.5 122.8a6.3 6.3 0 00-5.6 3.4 6.3 6.3 0 00-9.4-2.1v-5.4a1.3 1.3 0 00-2.6 0v10.5a6.3 6.3 0 0012 3 6.3 6.3 0 105.6-9.4zm-11.2 10.1a3.8 3.8 0 110-7.6 3.8 3.8 0 010 7.6zm11.2 0a3.8 3.8 0 110-7.6 3.8 3.8 0 010 7.6z" fill="#fff"/><path d="M231.7 133.4l-3.5-4.3 3.5-4.2c.4-.6.3-1.4-.3-1.8-.6-.4-1.5-.3-2 .3l-3 3.6-2.9-3.6c-.4-.6-1.3-.7-1.9-.3-.6.4-.7 1.2-.3 1.8l3.5 4.2-3.5 4.3c-.4.5-.3 1.3.3 1.7.6.4 1.5.3 2-.2l2.9-3.7 3 3.7c.4.5 1.3.6 1.9.2.6-.4.7-1.2.3-1.7z" fill="#fff"/><path d="M156.8 205.6a19 19 0 0011 17l-9.3-24.8c-1 2.4-1.7 5-1.7 7.8zm32.5-1c0-2.3-.8-4-1.6-5.2-1-1.6-1.9-3-1.9-4.5 0-1.7 1.4-3.3 3.3-3.3h.2A19.6 19.6 0 00160 195a45.8 45.8 0 006.4-.2c1 0 1.2 1.5.1 1.6l-2.2.2 7.1 20.5 4.2-12.4-3-8.1-2-.2c-1 0-1-1.6.1-1.6a89.8 89.8 0 0010.3 0c1 0 1.2 1.5.1 1.6l-2.2.2 7 20.4 2-6.4c.8-2.6 1.4-4.5 1.4-6.1zm-12.7 2.6l-5.9 16.6a19.8 19.8 0 0012-.3l-.2-.3-6-16zm16.7-10.7v1.9c0 2-.3 4-1.4 6.8l-6 16.8a18.9 18.9 0 007.4-25.5zm-17-13c-12.6 0-22.7 9.9-22.7 22a22.4 22.4 0 0022.6 22.2c12.5 0 22.7-10 22.7-22.1a22.4 22.4 0 00-22.7-22.2zm0 43.2c-12 0-21.7-9.5-21.7-21.1 0-11.7 9.7-21.1 21.6-21.1 12 0 21.6 9.4 21.6 21 0 11.7-9.7 21.2-21.6 21.2z" fill="#464342"/><path d="M253 27.4a11 11 0 0117.4 2.3A13.4 13.4 0 01289 41.8a13.3 13.3 0 01-16 13 9.8 9.8 0 01-12.8 4 11.1 11.1 0 01-20.7-.5 10.4 10.4 0 01-12.4-10c0-3.9 2-7.2 5.1-9-.6-1.4-1-3-1-4.7a12 12 0 0121.6-7.2z" fill="#00A1E0"/><path d="M236.1 45l.4.3c.6.3 1.2.4 1.9.4 1.2 0 2-.7 2-1.7s-.9-1.4-1.7-1.7h-.1c-.6-.2-1.2-.4-1.2-.8s.3-.6.8-.6c.6 0 1.2.2 1.6.4h.2a81.2 81.2 0 00.2-.9c-.5-.3-1.1-.5-1.8-.5h-.1c-1.2 0-2 .7-2 1.7 0 1.1.9 1.4 1.7 1.7h.2c.6.2 1.1.4 1.1.8s-.3.7-.9.7a3 3 0 01-1.6-.5l-.2-.1h-.2l-.3.7zM254.7 45l.4.3c.7.3 1.3.4 1.9.4 1.3 0 2-.7 2-1.7s-.9-1.4-1.7-1.7h-.1c-.6-.2-1.2-.4-1.2-.8s.3-.6.8-.6c.6 0 1.2.2 1.7.4h.1l.3-.7v-.2c-.6-.3-1.2-.5-1.9-.5h-.1c-1.2 0-2 .7-2 1.7 0 1.1.9 1.4 1.7 1.7h.2c.6.2 1.1.4 1.1.8s-.3.7-.9.7a3 3 0 01-1.6-.5l-.2-.1h-.2l-.3.7zM267.5 42.8c0 .6-.2 1.1-.4 1.5-.2.3-.6.4-1 .4-.5 0-.8-.1-1-.4-.3-.4-.4-.9-.4-1.5s.1-1 .4-1.4c.2-.3.5-.5 1-.5.4 0 .8.2 1 .5.2.3.4.8.4 1.4zm1-1c0-.4-.3-.7-.5-1-.2-.3-.5-.5-.8-.6-.3-.2-.7-.2-1.1-.2-.5 0-.8 0-1.2.2a2.4 2.4 0 00-1.3 1.5 3.9 3.9 0 000 2.3l.5.9.8.6 1.2.2c.4 0 .8 0 1.1-.2a2.3 2.3 0 001.3-1.5 3.9 3.9 0 000-2.3zM277.2 44.6c0-.1-.1 0-.1 0a2.4 2.4 0 01-1 .1c-.6 0-1-.1-1.3-.4-.3-.3-.5-.8-.5-1.5 0-.6.2-1 .5-1.4.2-.3.6-.5 1.1-.5.5 0 .8 0 1.2.2l.3-.8v-.1a4.1 4.1 0 00-1.5-.2 3 3 0 00-1.2.2 2.5 2.5 0 00-1.4 1.5l-.2 1.1c0 .9.3 1.6.7 2.1.5.5 1.2.8 2.1.8.6 0 1.1-.1 1.5-.3 0 0 .1 0 0-.1l-.2-.7zM279 42.2l.4-.8c.2-.3.5-.5 1-.5s.8.2 1 .5c.2.2.2.5.2.8h-2.5zm3.7-.7a2.2 2.2 0 00-1.2-1.3c-.3-.2-.6-.2-1-.2-.5 0-.9 0-1.2.2a2.3 2.3 0 00-1.3 1.5 4 4 0 000 2.3 2.3 2.3 0 001.4 1.5l1.3.2c1 0 1.6-.2 1.8-.4 0 0 .1 0 0-.1l-.2-.7h-.1c-.3 0-.6.2-1.5.2-.5 0-1-.1-1.2-.4-.3-.3-.4-.6-.4-1.2h3.6c0-.1.2-.8 0-1.6zM250.3 42.2c0-.3.2-.6.3-.8.2-.3.6-.5 1-.5.5 0 .8.2 1 .5.2.2.3.5.3.8h-2.6zm3.6-.7a2.2 2.2 0 00-1.2-1.3c-.2-.2-.6-.2-1-.2s-.8 0-1.2.2a2.4 2.4 0 00-1.3 1.5 4 4 0 000 2.3 2.3 2.3 0 001.4 1.5l1.4.2c1 0 1.5-.2 1.8-.4v-.1l-.2-.7h-.2c-.2 0-.6.2-1.5.2-.5 0-1-.1-1.2-.4-.2-.3-.4-.6-.4-1.2h3.6c.1-.1.2-.8 0-1.6zM242.6 44.6a.7.7 0 01-.3-.2v-.5c0-.3 0-.5.3-.7 0 0 .3-.3 1-.2h1v1.6l-1 .2c-.7 0-1-.2-1-.2zM244 42a8 8 0 00-.6 0h-.9l-.7.4-.5.6c-.2.2-.2.5-.2.8l.1.8.5.6.7.3h2l1-.2h.2l.1-.2V42c0-.7-.2-1.2-.6-1.6-.3-.3-.9-.4-1.6-.4a6 6 0 00-1 0s-.8.2-1 .4l-.1.2.2.7h.2c.7-.4 1.6-.4 1.6-.4.4 0 .7.1.9.3.2.1.3.3.3.8v.1h-.6zM273 40.3l-.1-.2h-.6a1.8 1.8 0 00-1.5.5v-.4l-.1-.1h-1v5.4h1.1v-2.7l.1-.9.3-.5.5-.3a1.7 1.7 0 01.9 0V41l.4-.7z" fill="#fff"/><path d="M264 37.8a3 3 0 00-.7-.1 2 2 0 00-1.6.5 3 3 0 00-.7 1.6v.3h-.9l-.2.8.1.1h.8l-.8 4.5-.2.8c0 .2-.2.4-.3.5l-.3.3a1.3 1.3 0 01-.7 0h-.2-.1a100.7 100.7 0 00-.2.9h.3l.5.1.9-.1.7-.5.4-.8c.2-.3.3-.7.3-1.2l.9-4.5h1.3v-.8c.1 0 0-.1 0-.1H262s0-.5.2-.8c0-.2.2-.3.3-.4l.3-.2h.4a1.5 1.5 0 01.4 0h.2l.3-.8h-.1zM248 45.5h-1-.1v-7.6-.1h1l.1.1v7.6z" fill="#fff"/><circle cx="267.7" cy="202.7" r="43.7"/><path d="M250 207l-1.3 2a1.2 1.2 0 00.5 1.7l8 4.9a1.2 1.2 0 001.3 0c.1-.2.3-.3.3-.5l1.2-2c3.2-5.1 6.4-4.5 12.1-1.8l8 3.8a1.2 1.2 0 00.9 0 1.2 1.2 0 00.7-.6l3.8-8.6a1.2 1.2 0 00-.6-1.6l-8-3.8c-10.8-5.2-20-5-27 6.5z" fill="url(#paint6_linear)"/><path d="M285.8 187.5l1.2-2a1.2 1.2 0 00-.4-1.7l-8-5a1.2 1.2 0 00-1.4.1c-.1.1-.3.2-.3.4l-1.2 2c-3.2 5.2-6.4 4.5-12.1 1.8l-7.9-3.8a1.2 1.2 0 00-1 0 1.2 1.2 0 00-.7.7l-3.8 8.6a1.2 1.2 0 00.7 1.6l8 3.8c10.7 5.2 19.9 4.8 26.9-6.5z" fill="url(#paint7_linear)"/><circle cx="297.5" cy="118.5" r="34.5"/><path d="M281.3 122.8v4.2c0 1.6-1.8 1.7-1.8 1.7s-1.8 0-1.8-1.7v-4.2s0-.7-1-.7v5s.1 2.5 2.8 2.5c2.7 0 3-2.5 3-2.5v-5c-1.1 0-1.2.7-1.2.7zM306.2 122.8v4.2c0 1.6-1.7 1.7-1.7 1.7s-1.8 0-1.8-1.7v-4.2s-.1-.7-1.1-.7v5s.2 2.5 2.9 2.5c2.6 0 2.8-2.5 2.8-2.5v-5c-1 0-1 .7-1 .7zM292.3 127.1v-5c-1 0-1.1.7-1.1.7v6.7h1v-2.4zM310.3 127.1v-5c-1 0-1 .7-1 .7v6.7h1v-2.4zM318.8 127.1v-5c-1 0-1.1.7-1.1.7v6.7h1.1v-2.4zM288.2 125.7s1-.5 1-1.7-1-1.9-2.1-1.9h-2.8v7.4h3.6s1.5-.4 1.5-1.8-.8-2-1.2-2zm-2.9-2.6h1.7c.3 0 1.1 0 1.1 1.1 0 1-1 1-1 1h-1.8v-2.1zm2 5.6h-2v-2.5h2c.2 0 1 .1 1 1.2 0 1.1-1 1.3-1 1.3zM300.4 128.6H299a4 4 0 001.1-2.7c0-1.6-.7-3.8-3.3-3.8 0 0-3-.2-3.2 3.7 0 3.8 3.2 3.7 3.2 3.7h4.2s0-1-.6-1zm-3.5 0c-1.4 0-2.1-1.2-2.1-2.7 0-1.6.6-2.9 2-2.9 1.5 0 2.2 1.3 2.2 2.9 0 1.5-.7 2.8-2.1 2.8zM316.8 122.1h-5.4v1h5.4v-1z" fill="#5F5A5B"/><path d="M314.7 122.1h-1v7.4h1v-7.4z" fill="#5F5A5B"/><path d="M291 100.5h-1v1.1h1v-1zM293.1 106h-1v1.2h1V106zM293.1 102.7h-1v1h1v-1zM294.2 101.6H293v1h1v-1zM294.2 104.5H293v1h1v-1zM295.2 103.2h-1v1h1v-1z" fill="#279EDA"/><path fill-rule="evenodd" clip-rule="evenodd" d="M290 103.4h1v5.9h1v-1h1.1v2.3h1v-4h1.1v8s.2 3.3 3.2 5.1c-3.1 0-8.5-1.4-8.5-7.8v-8.5z" fill="#279EDA"/><path fill-rule="evenodd" clip-rule="evenodd" d="M295.8 115.6s.6 2.8 3.6 4.1c2.8 0 8-2.2 7.5-8.3 0 0-2 7.6-11 4.2z" fill="url(#paint8_linear)"/><path fill-rule="evenodd" clip-rule="evenodd" d="M301.5 115.9s4.2-.3 5.5-6v-9.2s-5.4-.7-5.4 3.3l-.1 11.9z" fill="#12100B"/><path fill-rule="evenodd" clip-rule="evenodd" d="M129.3 266.3a4 4 0 100 8h4v-4a4 4 0 00-4-4zm0 10.8h-10.8a4 4 0 000 8.1h10.8a4 4 0 100-8.1z" fill="#36C5F0"/><path fill-rule="evenodd" clip-rule="evenodd" d="M155 281.1a4 4 0 00-8.1 0v4.1h4a4 4 0 004-4zm-10.8 0v-10.8a4 4 0 00-8.2 0v10.8a4 4 0 108.2 0z" fill="#2EB67D"/><path fill-rule="evenodd" clip-rule="evenodd" d="M140.1 306.8a4 4 0 100-8h-4v4a4 4 0 004 4zm0-10.8h10.8a4 4 0 100-8.1h-10.8a4 4 0 000 8.1z" fill="#ECB22E"/><path fill-rule="evenodd" clip-rule="evenodd" d="M114.4 292a4 4 0 008.1 0v-4h-4a4 4 0 00-4 4zm10.8 0v10.8a4 4 0 008.1 0V292a4 4 0 00-8 0z" fill="#E01E5A"/><circle cx="224" cy="283" r="39"/><path d="M224 254.4a23 23 0 00-7.3 45c1.2.1 1.5-.6 1.5-1.2V294c-6.4 1.4-7.7-2.7-7.7-2.7-1-2.6-2.6-3.4-2.6-3.4-2-1.4.2-1.4.2-1.4 2.3.2 3.5 2.4 3.5 2.4 2 3.5 5.4 2.5 6.7 2 .2-1.6.8-2.6 1.5-3.1-5.1-.6-10.5-2.6-10.5-11.4a9 9 0 012.4-6.2c-.3-.6-1-3 .2-6.1 0 0 2-.6 6.3 2.4a22.1 22.1 0 0111.6 0c4.4-3 6.3-2.4 6.3-2.4 1.3 3.2.5 5.5.2 6a8.9 8.9 0 012.4 6.3c0 8.8-5.4 10.8-10.5 11.3.8.8 1.6 2.2 1.6 4.3v6.3c0 .6.3 1.4 1.5 1.1a23 23 0 00-7.3-44.9z" fill="#000"/><circle cx="296" cy="332" r="35"/><path d="M290.7 323.4l10.2 6 6-2.5a9.8 9.8 0 014.6-.8 15.2 15.2 0 00-27.3-4.6h.1c2.3 0 4.5.7 6.4 1.9z" fill="#0364B8"/><path d="M290.7 323.4a12 12 0 00-6.4-1.9h-.1a12.1 12.1 0 00-9.8 19.1l9-3.8 4-1.7 8.8-3.7 4.7-2-10.2-6z" fill="#0078D4"/><path d="M311.5 326.1a9.8 9.8 0 00-4.5.8l-6.1 2.6 1.7 1 5.8 3.5 2.5 1.5 8.6 5.1a9.8 9.8 0 00-8-14.5z" fill="#1490DF"/><path d="M311 335.5l-2.6-1.5-5.8-3.5-1.7-1-4.7 2-8.8 3.6-4 1.7-9 3.8a12.1 12.1 0 0010 5.2h26.5a9.8 9.8 0 008.6-5.2l-8.6-5.1z" fill="#28A8EA"/><circle cx="101" cy="371" r="39"/><path d="M116.2 346.1h-29a4.8 4.8 0 00-5 4.9v29a4.8 4.8 0 005 4.8h29a4.8 4.8 0 004.8-4.8v-29a4.8 4.8 0 00-4.8-4.9zm-17 29.4a2.3 2.3 0 01-2.4 2.3h-7.2a2.3 2.3 0 01-2.3-2.3v-22a2.3 2.3 0 012.3-2.3h7.2a2.3 2.3 0 012.3 2.3v22zm16.8-9.7a2.3 2.3 0 01-2.4 2.3h-7.1a2.3 2.3 0 01-2.4-2.3v-12.3a2.3 2.3 0 012.4-2.3h7.1a2.3 2.3 0 012.4 2.3v12.3z" fill="url(#paint9_linear)"/><path d="M39 416.7l-10.6 6.7L39 430l-10.6 6.7-10.6-6.8 10.6-6.7-10.6-6.6 10.6-6.7 10.6 6.7zm-10.6 22.2l10.6-6.7 10.6 6.7-10.6 6.7-10.6-6.7zM39 430l10.6-6.7-10.6-6.6 10.6-6.7 10.6 6.7-10.6 6.7 10.6 6.7-10.6 6.7L39 430z" fill="#0061FF"/><path d="M28 656.5v-28.3l24.3-9.3 13.2 4.3v38.2l-13.2 4-24.4-9 24.4 3v-32.9l-16 3.8v22.4L28 NaN" fill="#EB3C00"/><path d="M132.9 620.7c5 0 9-3.9 9-8.7 0-4.8-4-8.7-9-8.7s-9 3.9-9 8.7c0 4.8 4 8.7 9 8.7z" fill="#036C70"/><path d="M141.3 627.1c4.2 0 7.7-3.3 7.7-7.4 0-4.1-3.5-7.5-7.7-7.5a7.6 7.6 0 00-7.7 7.5c0 4.1 3.4 7.4 7.7 7.4z" fill="#1A9BA1"/><path d="M133.8 632.7a6 6 0 006.2-6 6 6 0 00-6.2-6 6 6 0 00-6.1 6 6 6 0 006.1 6z" fill="#37C6D0"/><path opacity=".1" d="M134.4 609.7h-10.2a8.5 8.5 0 001.5 7.6 9 9 0 008 3.4c-1.6 0-3.2.7-4.3 1.8a5.9 5.9 0 00-1.7 4.6h6.7c.4 0 .7 0 1-.3.2-.2.3-.6.3-.9v-15c0-.3-.1-.6-.4-.9-.2-.2-.5-.3-.9-.3z" fill="#000"/><path d="M120 610.6h12.6c.3 0 .6.1.8.4.3.2.4.5.4.8v12.3c0 .3-.1.6-.4.8-.2.3-.5.4-.8.4h-12.7c-.3 0-.6-.1-.9-.4-.2-.2-.3-.5-.3-.8v-12.3c0-.3.1-.6.3-.8.3-.3.6-.4 1-.4z" fill="#03787C"/><path d="M124 617.8c-.3-.2-.6-.5-.7-.8-.2-.3-.3-.7-.3-1.1 0-.5.1-1 .5-1.4a3 3 0 011.3-.9c.6-.2 1.2-.2 1.9-.2.8 0 1.6 0 2.4.3v1.6l-1.1-.4-1.3-.1c-.4 0-.9 0-1.3.2l-.4.3-.1.5c0 .2 0 .4.2.5l.6.5a19.3 19.3 0 001.3.5l1.4.7c.3.2.6.4.8.8.2.3.3.8.3 1.2 0 .5-.1 1-.5 1.5-.3.4-.7.6-1.2.8-.6.2-1.2.3-1.8.2h-1.7l-1.3-.5v-1.7a5.4 5.4 0 002.8.9c.5 0 1-.1 1.4-.3l.3-.4.1-.4a.8.8 0 00-.2-.6l-.7-.5-1.4-.5-1.3-.7z" fill="#fff"/><circle cx="199.7" cy="458" r="51.9"/><path d="M173.2 449.3V447h8.2v1.5a8 8 0 01-2 5.7 8.1 8.1 0 01-6.3 2.5c-4.9 0-9-4-9-9 0-4.8 4.1-8.8 9-8.8 2.8 0 4.7 1 6.2 2.4l-1.8 1.7c-1-1-2.4-1.7-4.4-1.7a6.4 6.4 0 00-6.4 6.5c0 3.6 2.8 6.5 6.4 6.5a6 6 0 004.5-1.8 5 5 0 001.3-3h-5.7z" fill="#4285F4"/><path d="M194 450.9c0 3.3-2.7 5.7-5.9 5.7a5.7 5.7 0 01-5.7-5.7c0-3.4 2.6-5.8 5.8-5.8 3.2 0 5.7 2.4 5.7 5.8zm-2.6 0c0-2-1.5-3.5-3.2-3.5-1.8 0-3.3 1.4-3.3 3.5 0 2 1.5 3.5 3.3 3.5 1.7 0 3.2-1.5 3.2-3.5z" fill="#EA4335"/><path d="M206.5 450.9c0 3.3-2.6 5.7-5.8 5.7a5.7 5.7 0 01-5.7-5.7c0-3.4 2.5-5.8 5.7-5.8s5.8 2.4 5.8 5.8zm-2.5 0c0-2-1.5-3.5-3.2-3.5-1.8 0-3.3 1.4-3.3 3.5 0 2 1.5 3.5 3.3 3.5 1.7 0 3.2-1.5 3.2-3.5z" fill="#FBBC04"/><path d="M218.6 445.5v10.3c0 4.2-2.5 6-5.5 6a5.5 5.5 0 01-5-3.4l2.1-1c.4 1 1.4 2 3 2 1.8 0 3-1 3-3.3v-.8a4 4 0 01-3.1 1.3 5.7 5.7 0 01-5.5-5.7c0-3.3 2.6-5.8 5.5-5.8a4 4 0 013 1.3h.1v-1h2.4zm-2.2 5.4c0-2-1.4-3.5-3.1-3.5-1.7 0-3.2 1.5-3.2 3.5s1.5 3.5 3.2 3.5c1.7 0 3-1.5 3-3.5z" fill="#4285F4"/><path d="M222.9 439.4h-2.6v16.9h2.6v-16.9z" fill="#34A853"/><path d="M232.6 452.8l2 1.3c-.6 1-2.2 2.5-4.8 2.5a5.6 5.6 0 01-5.7-5.7c0-3.5 2.4-5.8 5.4-5.8 3 0 4.5 2.4 5 3.7l.2.6-7.7 3.2a3 3 0 002.8 1.7c1.3 0 2.2-.6 2.8-1.5zm-6-2.1l5.1-2.1c-.2-.8-1-1.3-2-1.3-1.4 0-3.2 1.2-3.1 3.4z" fill="#EA4335"/><circle cx="213.4" cy="367.8" r="32.8"/><path d="M213.8 385.4a18.7 18.7 0 100-37.4 18.7 18.7 0 000 37.4z" fill="#1A73E8"/><path d="M213.8 365.3a4.3 4.3 0 100-8.7 4.3 4.3 0 000 8.7zM219.7 376.8h-13s-2.4 0-1.7-3.6c.1-.8.5-1.6 1.2-2.2 2-1.7 7.6-5.3 15-.3a3.9 3.9 0 011.5 3.6 2.7 2.7 0 01-3 2.5z" fill="#fff"/><path d="M295 416.6a15.1 15.1 0 10-15 17.7v7.5s15.2-7.5 15.2-22.7c0-.8 0-1.7-.2-2.5z" fill="#0E8F82"/><path d="M284 415.8l-.6 5.4a9 9 0 00-.1 1.1c0 .5.2.8.6.8.6 0 1.2-.4 1.7-1.3.4-.8.7-1.8.7-2.8 0-1.7-.6-3.1-1.8-4.2a6.4 6.4 0 00-4.5-1.7c-2 0-3.6.7-4.9 2-1.3 1.3-2 3-2 4.8 0 1.1.3 2.2.8 3.2s1.1 1.7 2 2.4c1.1.8 2.6 1.2 4.3 1.2a12 12 0 005-1.2l.2-.1.6 1.5h-.2c-1.8.9-3.6 1.3-5.6 1.3a9 9 0 01-5.4-1.5 8 8 0 01-2.5-3 8.7 8.7 0 01-1-3.7c0-2.4.9-4.3 2.5-6a8.5 8.5 0 016.2-2.3 8 8 0 015.6 2c1.5 1.4 2.2 3 2.2 5.1 0 1.6-.4 3-1.2 4-.8 1.2-1.8 1.8-2.9 1.8-.9 0-1.5-.4-1.8-1.3-.9 1-1.8 1.3-2.8 1.3-1.2 0-2.1-.4-2.9-1.2a4.4 4.4 0 01-1.1-3.1c0-1.4.4-2.5 1.2-3.4.9-.9 2-1.3 3.2-1.3 1.2 0 2 .4 2.8 1.3l.1-1.1h1.6zm-2.1 4c0-.7-.2-1.2-.7-1.6-.4-.5-1-.7-1.6-.7-.7 0-1.3.3-1.7.8a3 3 0 00-.7 2c0 .8.2 1.4.6 1.9.3.4.8.7 1.4.7.7 0 1.3-.4 1.9-1 .5-.6.8-1.3.8-2.1z" fill="#fff"/><circle cx="279" cy="508" r="32.8"/><path d="M274.2 492l5.5 9.7 5.4-9.6h-10.9z" fill="#358F51"/><path d="M286.5 514.1l5.4 9.7 5.5-9.7h-11z" fill="#E94334"/><path d="M260.6 514.1l5.5 9.7 5.4-9.7h-10.9z" fill="#0266D8"/><path d="M260.6 514.1h11l8-12.4-5.4-9.6-13.6 22z" fill="#34A752"/><path d="M279.7 501.7l6.8 12.4h10.9l-12.3-22" fill="#FFB900"/><path d="M266 523.8h26l-5.5-9.7h-15l-5.4 9.7z" fill="#4284F3"/><circle cx="213.4" cy="557.2" r="32.8"/><path d="M199.5 541h5.8v25.7h-8v-23.3a2.3 2.3 0 012.2-2.3z" fill="#E94334"/><path d="M229.6 549.2h-8v17.5h8v-17.5z" fill="#FABB06"/><path d="M229.6 549.2h-8V541h5.8a2.3 2.3 0 012.2 2.3v5.8z" fill="#0266D8"/><path d="M205.3 566.7h-8v6.8h8v-6.8zM225.6 570.8l-4 2.7v-6.8h8l-4 4z" fill="#358F51"/><path d="M221.5 566.7h-16.2v6.8h16.2v-6.8z" fill="#34A752"/><path d="M221.5 541h-16.2v6.8h16.2v-6.7z" fill="#4284F3"/><circle cx="137.8" cy="534.5" r="32.8"/><path d="M127.5 547.6h-7.4v-19.3l7.4 6v13.3z" fill="#4284F3"/><path d="M147.3 547.6h7.4v-19.3l-7.4 6v13.3z" fill="#34A752"/><path d="M147.3 534.3V526a3.4 3.4 0 011-2.5 3.6 3.6 0 012.7-1 3.7 3.7 0 012.7 1 3.5 3.5 0 011 2.5v2.4l-7.4 6z" fill="#FABB06"/><path d="M127.5 534.3l-7.4-6V526a3.4 3.4 0 011-2.5 3.6 3.6 0 012.7-1 3.7 3.7 0 012.7 1 3.5 3.5 0 011 2.5v8.4z" fill="#C4221F"/><path d="M147.3 534.3l-9.9 7.2-9.9-7.2V526l10 7.2 9.8-7.2v8.4z" fill="#E94334"/><path d="M134.2 700.3a2.9 2.9 0 003 .6c.8-.3 1.3-.8 1.6-1.5a2.8 2.8 0 00-1.5-3.7 2.8 2.8 0 00-3.7 1.5 2.8 2.8 0 00.6 3.1zm-.9 2.6v8.5h1.5l1.4-.1 1.4-.5a3 3 0 001-1c.3-.3.4-.8.4-1.3v-5.6h-5.7zm-4.6-3.5c.4 0 .8-.1 1.1-.3a2.8 2.8 0 00-1.1-5.4c-.4 0-.7 0-1 .2l-.8.5v4.3l.7.4c.4.2.7.3 1.1.3zm-1.8 14.2l.8.2a6.2 6.2 0 002 0l1.3-.5c.4-.3.7-.6.9-1 .3-.4.4-.8.4-1.3V701h-5.4v12.5zm-19.6 2.8l18.5 3.1v-31l-18.5 3v24.9z" fill="#5558AF"/><path d="M120.9 698l-8.6.5v2l3.2-.2v9l2.2.2v-9.3l3.2-.1V698z" fill="#fff"/><path d="M187.4 676.5l11.7 11.8a3 3 0 004.4 0l3.8-3.9a3.1 3.1 0 000-4.4l-11.7-11.8a3 3 0 00-4.3 0l-4 4a3.1 3.1 0 000 4.3z" fill="#1A5ABC"/><path d="M215 659.7l-20 20a3.1 3.1 0 000 4.4l4.3 4.3a3 3 0 004.3 0l20-20.1a3.1 3.1 0 000-4.4l-4.3-4.2a3 3 0 00-4.3 0z" fill="#45A8EE"/><path d="M34 760.6v-13.8l.1-.4 6-4.4v-.1l-1.2-1-4.8-3.6a.4.4 0 01-.1-.4v-13.8L63.9 742l-30 18.7zM24 734.4l9.9 7.5-10 7.4v-14.9z" fill="#C00053"/><path d="M29.3 536.7l7.9-8h21.4c.6 0 1 .3 1.5.7.3.4.6.9.6 1.4v6H29.3z" fill="#FDE100"/><path d="M60.7 552.7l-5.9 8H37.2v-8h23.5z" fill="#80487D"/><path d="M60.7 536.7H37.2v8h23.5v-8z" fill="#ED8108"/><path d="M37.2 536.7h-7.9v8h7.9v-8z" fill="#E05802"/><path d="M60.7 544.7H37.2v8h23.5v-8z" fill="#D23300"/><path d="M37.2 544.7h-7.9v8h7.9v-8z" fill="#B73106"/><path d="M29.3 552.7h7.9v8h-6c-.4 0-1-.2-1.3-.6a2 2 0 01-.6-1.4v-6z" fill="#6A3967"/><defs><linearGradient id="paint0_linear" x1="42.2" y1="279" x2="33.3" y2="287.8" gradientUnits="userSpaceOnUse"><stop offset=".2" stop-color="#0052CC"/><stop offset="1" stop-color="#2684FF"/></linearGradient><linearGradient id="paint1_linear" x1="578.8" y1="1588.7" x2="884.1" y2="1392.8" gradientUnits="userSpaceOnUse"><stop offset=".2" stop-color="#0052CC"/><stop offset="1" stop-color="#2684FF"/></linearGradient><linearGradient id="paint3_linear" x1="148.2" y1="57.7" x2="169.3" y2="53.5" gradientUnits="userSpaceOnUse"><stop stop-color="#2B7A77"/><stop offset=".5" stop-color="#4EBAA9"/><stop offset="1" stop-color="#5CC2B1"/></linearGradient><linearGradient id="paint4_linear" x1="159.6" y1="29.4" x2="149.1" y2="54" gradientUnits="userSpaceOnUse"><stop stop-color="#236736"/><stop offset=".5" stop-color="#6BA443"/><stop offset="1" stop-color="#86C146"/></linearGradient><linearGradient id="paint5_linear" x1="161.9" y1="27.1" x2="177.2" y2="63.7" gradientUnits="userSpaceOnUse"><stop stop-color="#29A5E3"/><stop offset=".5" stop-color="#356EB9"/><stop offset="1" stop-color="#394DA5"/></linearGradient><linearGradient id="paint6_linear" x1="285.3" y1="218.1" x2="261.1" y2="204.2" gradientUnits="userSpaceOnUse"><stop offset=".2" stop-color="#0052CC"/><stop offset="1" stop-color="#2684FF"/></linearGradient><linearGradient id="paint7_linear" x1="-9938.8" y1="29156.3" x2="-9102.4" y2="30116.2" gradientUnits="userSpaceOnUse"><stop offset=".2" stop-color="#0052CC"/><stop offset="1" stop-color="#2684FF"/></linearGradient><linearGradient id="paint8_linear" x1="295.8" y1="115.5" x2="307" y2="115.5" gradientUnits="userSpaceOnUse"><stop stop-color="#787677"/><stop offset="1" stop-color="#AFADAF"/></linearGradient><linearGradient id="paint9_linear" x1="101.6" y1="384.9" x2="101.6" y2="346.1" gradientUnits="userSpaceOnUse"><stop offset=".2" stop-color="#0052CC"/><stop offset="1" stop-color="#2684FF"/></linearGradient><radialGradient id="paint2_radial" cx="0" cy="0" r="1" gradientUnits="userSpaceOnUse" gradientTransform="matrix(12.922 0 0 11.6338 87 212.6)"><stop stop-color="#FFB900"/><stop offset=".6" stop-color="#F95D8F"/><stop offset="1" stop-color="#F95353"/></radialGradient></defs><style>circle{stroke:#655f9e;fill:#fff}text{fill:#000;font-size:9.5px;font-family:Roboto,Arial}</style><text x="15" y="328">Jira Software</text><text x="244" y="231">Confluence</text><text x="153" y="239">WordPress</text><text x="21" y="455">Dropbox</text><text x="209" y="310">GitHub</text><text x="142" y="78">AUTODESK</text><text x="58" y="80">Adobe</text><text x="50" y="88">Document</text><text x="58" y="97">Cloud</text><text x="90" y="398">Trello</text><text x="278" y="357">OneDrive</text><text x="125" y="322">Slack</text><text x="21" y="674">All apps incl.:</text><text x="115" y="640">Microsoft</text><text x="112" y="650">SharePoint</text><text x="104" y="730">Microsoft</text><text x="110" y="740">Teams</text><text x="186" y="700">Microsoft</text><text x="194" y="710">To-do</text><text x="24" y="770">Microsoft</text><text x="30" y="780">Stream</text><text x="25" y="575">Microsoft</text><text x="35" y="585">Lists</text><text style="fill:#78be20;font-family:Helvetica;font-size:22px" x="94" y="145">Meraki</text><text style="fill:#5f6368;font-family:Roboto,Arial;font-size:14px" x="165" y="475">Workspace</text><text style="fill:#5e5b5b;font-size:4px;font-family:Helvetica;font-weight:700;letter-spacing:.8px" x="277" y="137">N E T W O R K S</text></svg>