<svg viewBox="0 0 1300 563" xmlns="http://www.w3.org/2000/svg" xmlns:xlink="http://www.w3.org/1999/xlink"><defs><linearGradient id="a" x1="651" x2="611" y1="341" y2="363" gradientTransform="matrix(1 0 0 -1 0 564)" gradientUnits="userSpaceOnUse"><stop stop-color="#0052cc" offset=".2"/><stop stop-color="#2684ff" offset="1"/></linearGradient><linearGradient id="i" x1="16847" x2="18212" y1="-18227" y2="-19793" xlink:href="#a"/><linearGradient id="h" x1="92" x2="77" y1="514" y2="500" xlink:href="#a"/><linearGradient id="g" x1="-239" x2="259" y1="259" y2="578" xlink:href="#a"/><linearGradient id="e" x1="296" x2="330" y1="297" y2="304" gradientTransform="matrix(1 0 0 -1 0 564)" gradientUnits="userSpaceOnUse"><stop stop-color="#2b7a77" offset="0"/><stop stop-color="#4ebaa9" offset=".5"/><stop stop-color="#5cc2b1" offset="1"/></linearGradient><linearGradient id="d" x1="318" x2="301" y1="347" y2="307" gradientTransform="matrix(1 0 0 -1 0 564)" gradientUnits="userSpaceOnUse"><stop stop-color="#236736" offset="0"/><stop stop-color="#6ba443" offset=".5"/><stop stop-color="#86c146" offset="1"/></linearGradient><linearGradient id="c" x1="319" x2="344" y1="354" y2="295" gradientTransform="matrix(1 0 0 -1 0 564)" gradientUnits="userSpaceOnUse"><stop stop-color="#29a5e3" offset="0"/><stop stop-color="#356eb9" offset=".5"/><stop stop-color="#394da5" offset="1"/></linearGradient><linearGradient id="b" x1="834.4" x2="834" y1="393" y2="456" xlink:href="#a"/><linearGradient id="j" x1="996" x2="1017" y1="411" y2="411" gradientTransform="matrix(1 0 0 -1 0 564)" gradientUnits="userSpaceOnUse"><stop stop-color="#787677" offset="0"/><stop stop-color="#afadaf" offset="1"/></linearGradient><radialGradient id="f" cx="48" cy="486" r="1" gradientTransform="matrix(21.04 0 0 -19 -942 9503)" gradientUnits="userSpaceOnUse"><stop stop-color="#ffb900" offset="0"/><stop stop-color="#f95d8f" offset=".6"/><stop stop-color="#f95353" offset="1"/></radialGradient><style>circle{fill:#fff;stroke:#655f9e}.c2{fill:url(#a)}.c3{fill:url(#i)}.c4{fill:#2684ff}.c5{fill:url(#h)}.c6{fill:url(#g)}.c7{fill:#fa0f00}.c8{fill:#fff}.c9{fill:#283343}.c10{fill:url(#f)}.c12{fill:url(#e)}.c13{fill:url(#d)}.c14{fill:url(#c)}.c15{fill:#00aeef}.c16{fill:#78be20;font-family:Helvetica;font-size:28px}.c17{fill:#0061ff}.c18{fill:#4285f4}.c19{fill:#ea4335}.c20{fill:#fbbc04}.c21{fill:#34a853}.c22{fill:#5f6368;font-family:Roboto,Arial;font-size:19.5px}.c23{fill:#1a73e8}.c25{fill:#0e8f82}.c27{fill:#358f51}.c28{fill:#e94334}.c29{fill:#0266d8}.c30{fill:#34a752}.c31{fill:#ffb900}.c32{fill:#4284f3}.c34{fill:#fabb06}.c36{fill:#c4221f}.c38{fill:#eb3c00}.c39{fill:#036c70}.c40{fill:#1a9ba1}.c41{fill:#37c6d0}.c42{opacity:.2;isolation:isolate}.c44{fill:#03787c}.c45{fill:#5558af}.c46{fill:#0364b8}.c47{fill:#0078d4}.c48{fill:#1490df}.c49{fill:#28a8ea}.c50{fill:#00a1e0}.c52{fill:#36c5f0}.c52,.c53,.c54,.c55,.c62,.c63,.c64{fill-rule:evenodd}.c53{fill:#2eb67d}.c54{fill:#ecb22e}.c55{fill:#e01e5a}.c56{fill:url(#b)}.c58{fill:#464342}.c59{fill:#2d8cff}.c60{fill:#5f5a5b}.c61,.c62{fill:#279eda}.c63{fill:url(#j)}.c64{fill:#12100b}.c65{fill:#5e5b5b;font-size:6px;font-family:Helvetica;font-weight:700;letter-spacing:2.3px}.c67{fill:#1a5abc}.c68{fill:#45a8ee}.c69{fill:#c00053}.c70{fill:#fde100}.c71{fill:#80487d}.c72{fill:#ed8108}.c73{fill:#e05802}.c74{fill:#d23300}.c75{fill:#b73106}.c76{fill:#6a3967}text{font-size:12px;font-family:Arial}</style></defs><circle cx="283" cy="100" r="71"/><circle cx="443" cy="152" r="65"/><circle cx="61" cy="306" r="61"/><circle cx="553" cy="63" r="63"/><circle cx="706" cy="81" r="63"/><circle cx="208" cy="347" r="63"/><circle cx="833" cy="148" r="63"/><circle cx="931" cy="281" r="63"/><circle cx="778" cy="275" r="63"/><circle cx="622" cy="198" r="71"/><circle cx="999" cy="158" r="63"/><circle cx="373" cy="490" r="64"/><circle cx="768" cy="489" r="65"/><circle cx="571" cy="488" r="65"/><circle cx="965" cy="488" r="65"/><circle cx="1163" cy="486" r="65"/><circle cx="484" cy="290" r="71"/><circle cx="94" cy="87" r="71"/><circle cx="320" cy="256" r="65"/><circle cx="177" cy="214" r="64"/><circle cx="170" cy="492" r="72"/><circle cx="1143" cy="185" r="72"/><circle cx="1161" cy="60" r="45"/><circle cx="1254" cy="134" r="45"/><circle cx="1161" cy="322" r="45"/><circle cx="1057" cy="291" r="45"/><circle cx="1252" cy="254" r="45"/><circle cx="637" cy="350" r="63"/><text x="60" y="125">Jira Software</text><text x="593" y="241">Confluence</text><text x="525" y="107">WordPress</text><text x="685" y="122">Dropbox</text><text x="762" y="323">GitHub</text><text x="291" y="298">AUTODESK</text><text x="266" y="125">Adobe</text><text x="237" y="140">Document Cloud</text><text x="820" y="190">Trello</text><text x="612" y="385">OneDrive</text><text x="916" y="322">Slack</text><text x="130" y="533">All apps incl.:</text><text x="350" y="518">Microsoft</text><text x="345" y="534">SharePoint</text><text x="527" y="517">Microsoft Teams</text><text x="727" y="517">Microsoft To-do</text><text x="918" y="517">Microsoft Stream</text><text x="1120" y="517">Microsoft Lists</text><text class="c16" x="135" y="225">Meraki</text><text x="1095" y="205" class="c22">Workspace</text><text class="c65" x="962" y="190">N E T W O R K S</text><path class="c2" d="M593.3 205.1c-.9 1.8-3.7 4.3-1.4 6l13 8c6.7 1.7 3.7-17.9 24.4-6.9 19.6 9 12.6 9.7 21.8-8.9a2 2 0 00-1-2.6c-19.5-10.2-42.3-20.9-56.8 4.4z"/><path class="c3" d="M651.6 173.3c.8-1.8 3.7-4.3 1.3-6l-13-8c-6.6-2-3.6 18-24.4 6.9-19.6-9-12.5-9.6-21.8 8.9a2.1 2.1 0 001 2.6c19.5 10.2 42.4 20.9 56.9-4.4z"/><path class="c4" d="M126.2 69L93.5 36 71.1 58.7C70.3 59.9 59.4 69.4 60 71a3.2 3.2 0 00.8 2l32.7 33 22.8-23 9.9-10a2.8 2.8 0 000-4zM93.5 81.3L83.3 71l10.2-10.3L103.8 71z"/><path class="c5" d="M93.5 60.7a17.8 17.8 0 01-.1-24.6L71 58.7 83.2 71z"/><path class="c6" d="M103.8 71L93.5 81.3a17.7 17.7 0 010 24.7L116 83.3z"/><path class="c7" d="M258.3 63a7.8 7.8 0 017.7-7.7h33.9a7.7 7.7 0 017.7 7.7v33.9a7.7 7.7 0 01-7.7 7.8H266a7.8 7.8 0 01-7.7-7.8z"/><path class="c8" d="M298.6 84.6c-2.4-2.5-9.1-1.5-10.7-1.3a36.8 36.8 0 01-4.5-5.9c6.5-15.8-10-17.6-3.2-1.4a71.3 71.3 0 01-4.5 10.7c-2.8 1.1-8.5 3.7-8.9 6.5a2.8 2.8 0 003.1 3.2c3.4 0 6.8-4.8 9.1-8.8a58 58 0 018.2-2.1c4.6 4.6 14.4 5.4 11.4-.9zm-2.4 1.6c-1 2.5-5.6-.3-7.2-1.5 1.2 0 7.3-1.4 7.2 1.5zm-15.6-19.3c3.2-2.2 1.2 5.9.7 7.2-1.4-3.7-1.2-6.3-.7-7.2zm-.2 18.2a49.3 49.3 0 002.2-5.3 28.8 28.8 0 003 3.9c0 .1-2.9.6-5.2 1.4zm-5.5 3.7c-2.4 3.7-4.3 6.3-6.2 5.6s2.3-3.6 6.2-5.6z"/><path class="c9" d="M25.9 327c-6.6 0-6.6-9.9 0-10s6.5 10 0 10zm5 .6c0 .5.8 1.8 1.8 1.8s1.1.1 1.1-.5v-13.6c0-.8-2-.3-2.4-.4a.5.5 0 00-.5.4v1.1c-4.4-4.8-13.2-.7-12.9 5.6s8.6 10.4 12.9 5.6zm7.6-1.9c1.9 1.4 6.3 2.3 6.8-.5s-2.9-1.8-4.8-2.4c-6-1.9-3.5-8.9 2.1-8.5 1.5.1 4.9.6 4.8 2l-1.1 1.5a.5.5 0 01-.6.2c-1-1.2-5.9-1.5-5.7.7s8.4 1.2 8.3 6.5-8.2 5.4-11.4 2.7a.5.5 0 01-.1-.6c.3-.3 1.2-2.1 1.7-1.6zm24.6 1.9c0 .5.8 1.8 1.8 1.8s1.1.1 1.1-.5v-13.6c0-.8-2-.3-2.4-.4a.5.5 0 00-.5.4v1.1c-4.4-4.8-13.2-.7-12.9 5.6s8.6 10.4 12.9 5.6zm-5-.6c-6.6 0-6.6-9.9 0-10s6.5 10 0 10zm25.6 1.1V321c.7-5.7-7.6-9-10.8-4.6a1.6 1.6 0 00-1.8-1.5c-.4 0-1.1-.1-1.1.4V329c0 .8 2 .3 2.4.4s.5-.2.5-.4v-8.1c-.1-5 8-5 7.9 0v8.1c0 .8 2.1.3 2.5.4a.4.4 0 00.4-.4v-.9zm15.4-.5c0 .5.8 1.8 1.8 1.8s1.1.1 1.1-.5v-13.6a.5.5 0 00-.5-.4c-.4.1-2.4-.4-2.4.4v1.1c-4.4-4.8-13.2-.7-12.9 5.6s8.6 10.4 12.9 5.6zm-5-.6c-6.6 0-6.6-9.9 0-10s6.5 10 0 10z"/><path class="c10" d="M69.1 291.1c-9 .1-9 13.4 0 13.5s9-13.4 0-13.5zm-17.9 0c-9.1.1-9.1 13.4 0 13.5s9-13.4 0-13.5zm15.8-8.4c0 8.8-13.7 8.8-13.8 0s13.8-8.8 13.8 0z"/><path class="c12" d="M305.1 275.5a3.7 3.7 0 01-3.6-2.2c-.5-1.4-9.1-15.8-8.5-17l12.5.6 2.9 2.8h25.1c-5.7 2.9-21.8 15.4-28.4 15.8z"/><path class="c13" d="M308.4 259.7h-10.8c-3.3 0-4.6-1.7-4.6-3.4s16.3-39.7 17-41.2 2.6-1 3.8-1l10.9 4.1c-1.8 8-12.9 33.6-16.3 41.5z"/><path class="c14" d="M340.2 275.4l-24.9-58.9c-.6-2.6-4.6-3.3-5.7-.7a2.7 2.7 0 012.8-1.8c.6.2 19.2-.4 18.9.4a2.8 2.8 0 011 1.4l25.2 59.6z"/><path class="c15" d="M468.4 186c-75.4-1-62.4 12-63.4-63.4a12.5 12.5 0 0112.6-12.6h50.8a12.5 12.5 0 0112.6 12.6v50.8a12.5 12.5 0 01-12.6 12.6z"/><path class="c8" d="M443.9 142a10.1 10.1 0 00-9.1 5.5 10.5 10.5 0 00-15.4-3.4v-8.7a2.1 2.1 0 00-4.1 0v17.1c0 10.5 14.8 13.9 19.5 4.7 4.7 9.3 19.6 5.8 19.4-4.9a10.3 10.3 0 00-10.3-10.3zm-18.3 16.5c-8.1 0-8.1-12.3 0-12.4s8.1 12.4 0 12.4zm18.3 0c-8.1 0-8.1-12.3 0-12.4s8.1 12.4 0 12.4z"/><path class="c8" d="M470.3 159.2l-5.7-6.9 5.7-6.9c1.7-2.2-2-4.5-3.6-2.5l-4.9 6-4.8-6c-1.6-2-5.3.3-3.6 2.5l5.6 6.9-5.6 6.9c-1.7 2.2 2 4.5 3.6 2.5l4.8-5.9 4.9 5.9c1.6 2 5.3-.3 3.6-2.5z"/><path class="c17" d="M706.5 54.9l-17.2 10.9 17.2 10.9-17.2 10.9-17.3-11 17.3-10.9L672 54.9 689.3 44zm-17.3 36.2l17.3-10.9 17.2 10.9-17.2 10.9zm17.3-14.5l17.3-10.9-17.3-10.8L723.7 44 741 54.9l-17.3 10.9L741 76.7l-17.3 10.9z"/><path class="c18" d="M1105.6 172.7v-3.4h11.4c2.8 17.4-23.7 17.8-24 1.1-.5-10.6 14.2-16.4 21.1-9l-2.4 2.4c-5.1-5.3-15.5-1.2-15 6.6-.5 10.1 15.8 12.6 16.9 2.3z"/><path class="c19" d="M1134.4 174.8c0 10.5-16 10.5-16 0s16.1-10.5 16 0zm-3.5 0c.1-6.3-9-6.3-9 0s9.1 6.4 9 0z"/><path class="c20" d="M1151.9 174.8c0 10.5-16.1 10.5-16.1 0s16.1-10.5 16.1 0zm-3.5 0c.1-6.3-9-6.3-9 0a4.5 4.5 0 109 0z"/><path class="c18" d="M1168.7 167.3v14.3c.6 10.1-12.3 10.4-14.7 3.6l3-1.3c2.2 5 9.4 3.1 8.3-3h-.1c-4 4.5-12.1.1-11.8-6.1s7.7-10.7 11.8-6.3h.1v-1.3h3.4zm-3.1 7.6a4.4 4.4 0 10-8.7 0 4.4 4.4 0 108.7 0z"/><path class="c21" d="M1174.6 158.9h-3.5v23.4h3.5z"/><path class="c19" d="M1188.1 177.4l2.7 1.9c-3.5 6-14.8 3.8-14.5-4.5.2-10.2 12.8-10.2 14.7-2l-10.7 4.4c1.4 3.2 6.2 3.1 7.8.2zm-8.3-2.8l7.1-3c-1.7-3.2-7.3-1.6-7.1 3z"/><path class="c23" d="M1162 84c34.3-.9 34.3-51.1 0-52-34.3.9-34.3 51.1 0 52z"/><path class="c8" d="M1162 56c7.8 0 7.8-12 0-12s-7.8 12 0 12zm8.2 16h-18c-2.4.4-4.1-4.9-.8-8s15.4-7.9 22.6 1.8c1.4 2.7-.5 6.6-3.8 6.2z"/><path class="c25" d="M1274.7 127.2c-2.3-17.1-26.1-23.6-36.8-10s-1.2 35.2 16.1 34.6v10.4c.1 1.1 24.9-15.3 20.7-35z"/><path class="c8" d="M1259.4 126.6l-.9 7.5c0 .9-.4 2.6.8 2.6s3.4-3.6 3.3-5.7c.1-4.9-4-8.2-8.8-8.1-17.2 2.2-8.8 25.9 7.6 17l.8 2.1c-19.7 9.9-29.9-18.7-8.4-21.1 18.2.7 9.4 24.5 2.7 16.2-3.5 3.9-9.8.9-9.4-4.3s6.5-8.9 10-4.6l.2-1.6zm-2.9 5.5c-.1-4.6-7-3.6-6.5.9s6.7 3.6 6.5-.9z"/><path class="c27" d="M1245.9 232l7.5 13.4 7.6-13.4z"/><path class="c28" d="M1262.9 262.6l7.5 13.4 7.6-13.4z"/><path class="c29" d="M1227 262.6l7.6 13.4 7.5-13.4z"/><path class="c30" d="M1227 262.6h15.1l11.3-17.2-7.5-13.4z"/><path class="c31" d="M1253.4 245.4l9.5 17.2h15.1l-17-30.6"/><path class="c32" d="M1234.6 276h35.8l-7.5-13.4h-20.8z"/><path class="c28" d="M1142.2 300h8v35.6H1139v-32.4a3.3 3.3 0 013.2-3.2z"/><path class="c34" d="M1184 311.2h-11.2v24.4h11.2z"/><path class="c29" d="M1184 311.2h-11.2V300c12.3-.1 11.3-1.1 11.2 11.2z"/><path class="c27" d="M1150.2 335.6H1139v9.4h11.2zm28.2 5.6l-5.6 3.8v-9.4h11.2z"/><path class="c30" d="M1172.8 335.6h-22.6v9.4h22.6z"/><path class="c32" d="M1172.8 300h-22.6v9.4h22.6zm-130.5 9H1032v-26.7l10.3 8.4z"/><path class="c30" d="M1069.7 309h10.3v-26.7l-10.3 8.4z"/><path class="c34" d="M1069.7 290.7V279a4.9 4.9 0 015.2-5c4.9 0 5.4 4.5 5.1 8.3z"/><path class="c36" d="M1042.3 290.7l-10.3-8.4c-.3-3.8.2-8.3 5.1-8.3a4.9 4.9 0 015.2 5z"/><path class="c28" d="M1069.7 290.7l-13.7 10-13.7-10V279l13.7 10 13.7-10z"/><path d="M778.5 229a37.5 37.5 0 00-11.9 73.1c1.9.3 2.5-.8 2.5-1.8v-7c-14.9 2.4-11.5-7.9-16.7-9.9-3.4-2.3.2-2.3.2-2.3 8.2 1.4 5.4 11.2 16.7 7a7.6 7.6 0 012.4-5c-8.4-1-17.1-4.2-17.1-18.6a14.2 14.2 0 013.8-10 13.7 13.7 0 01.4-9.9s3.2-1.1 10.3 3.8a35.3 35.3 0 0118.8 0c7.2-4.9 10.3-3.8 10.3-3.8a13.7 13.7 0 01.4 9.9 14.4 14.4 0 013.8 10c0 14.4-8.7 17.6-17.1 18.5 3.7 2.3 2.4 13.3 2.6 17.3 0 1 .6 2.2 2.5 1.8 39.6-13 30.4-73.1-11.9-73.1z"/><path class="c38" d="M137 501v-46l40-15 22 7v62l-22 7-40-15 40 5v-54l-26 6v36"/><path class="c39" d="M373 479.3c20.6-.5 20.5-29.8 0-30.3s-20.6 29.8 0 30.3z"/><path class="c40" d="M387.5 490.4c17.6-.3 17.6-25.6 0-25.9s-17.5 25.6 0 25.9z"/><path class="c41" d="M374.6 500c14-.2 14-20.5 0-20.7s-14 20.5 0 20.7z"/><path class="c42" d="M375.7 460.2h-17.8c-3.1 9.9 6.2 20.2 16.4 19-5.8 0-10.9 5.3-10.3 11.1h11.7a2.1 2.1 0 002.2-2.1v-26a2.1 2.1 0 00-2.2-2.1z"/><path class="c44" d="M350.5 461.8h21.9a2.1 2.1 0 012.2 2.1c-.2.3.6 23.5-.6 22.7a2.3 2.3 0 01-1.6.6h-21.9a2.1 2.1 0 01-2.2-2.1v-21.2a2.1 2.1 0 012.2-2.1z"/><path class="c8" d="M357.6 474.2c-6.1-5.7 3.9-9.3 8.8-7.1v2.9c-1.8-1.4-8.6-1.9-6.9 1.7 1.4 1.3 3.9 1.7 5.7 2.8a4.2 4.2 0 011.1 6.1c-2.6 2.7-7.2 2.1-10.5 1v-3c1.9 1.6 9.6 2.7 7.6-1.4-1.5-1.4-4-1.7-5.8-3z"/><path class="c45" d="M592.6 468.6c5.6 5.3 12.4-4.7 5.3-7.9-4.7-2.2-9.2 4.3-5.3 7.9zm-1.5 4.6v14.7c12.6.7 9.6-5.7 9.9-14.7zm-8-6.2c8.9-.7 4.2-13.8-3.1-8.7v7.6a5.1 5.1 0 003.1 1.1zm-3.1 24.8c3.6 1.1 9.4 0 9.3-4.7v-17H580v21.7zm-34 4.7l32.1 5.5v-54l-32.1 5.5z"/><path class="c8" d="M569.5 464.6l-14.8.9v3.4l5.5-.3v15.8l3.7.2v-16.1l5.6-.3z"/><path class="c46" d="M627.9 324.8l18.4 11c5.1-1.8 13.7-6.8 19.3-6-5.5-22.8-37-28.1-49.6-8.3a21.8 21.8 0 0111.9 3.3z"/><path class="c47" d="M627.9 324.8c-20.2-12.4-43.1 11.8-29.6 31.2l48-20.2z"/><path class="c48" d="M665.6 329.8c-5.6-.8-14.2 4.2-19.3 6l33.8 20.3c6.3-10.9-1.9-25.9-14.5-26.3z"/><path class="c49" d="M664.5 346.7l-18.2-10.9-48 20.2a22 22 0 0018 9.5h48.1a18.1 18.1 0 0015.7-9.4z"/><path class="c50" d="M478 263.6c7.6-8.5 23.3-6.4 28.4 3.7 13.8-6.4 30.9 4.5 30.5 19.8.2 13.5-12.8 24-26 21.2a16.2 16.2 0 01-20.8 6.5c-6 14.7-28.5 14.2-33.7-.8-18.7 3.8-28.2-21.7-11.9-31-9.1-20.9 19.9-37.1 33.5-19.4z"/><path class="c8" d="M450.7 292.1c1.7 2.1 7.2 1.8 7-1.6 0-1.6-1.6-2.2-3-2.6s-2.8-2.1-.6-2.3a7.1 7.1 0 012.6.6s.2.2.3 0 .6-1.2.3-1.4c-2-1.3-6.5-1.1-6.4 2s4.4 2.1 4.9 4-2.3 1.3-4.1.4-.7.4-1 .9zm30.3 0c1.7 2.1 7.2 1.8 7-1.6 0-1.6-1.6-2.2-3-2.6s-2.8-2.1-.6-2.3a7.1 7.1 0 012.6.6s.2.2.3 0 .6-1.2.3-1.4c-2-1.3-6.5-1.1-6.4 2s1.6 2.3 3.1 2.7 2.6 2.2.4 2.4a5.4 5.4 0 01-3.1-1c-.3-.2-.5 1.1-.6 1.2zm20.6-3.4c.4 4.2-4.8 4.2-4.4 0s4.8-4.1 4.4 0zm1.8-1.8c-2.3-5.8-10-2-8 3.7s10.1 1.9 8-3.7zm14.2 4.7c-2.4.3-4.7.5-4.7-2.9s2.1-3.1 4.6-2.9c0-.4.6-1 .3-1.4a7.3 7.3 0 00-4.4 0c-4.1 1.9-3 9.4 2.1 9 .8-.1 2.2 0 2.5-.7zm3-3.8a2.1 2.1 0 114.2 0zm5.8-1.2c-.7-2.4-3.5-3-5.5-2.2s-3.3 7.4.2 8.6c1.2.7 4.7.3 5.1-.2s-.3-1.2-.3-1.3c-1.8.1-5.2 1.3-5.3-2.3h5.8c.4-.2.3-1.1 0-2.6zm-52.6 1.2a2.1 2.1 0 114.1 0zm5.8-1.2c-.7-2.4-3.5-3-5.5-2.2s-3.1 5.6-1.3 7.7 5.5 1.5 6.6.7-.4-1.2-.4-1.3c-1.7.1-5.2 1.3-5.3-2.3h5.9c.3-.1.3-1.1 0-2.6zm-18.5 5a1.5 1.5 0 010-2.3c0-.4 3.1-.4 3.3-.2v2.6l-1.6.2a2.5 2.5 0 01-1.7-.3zm2.3-4.1c-3.9-1-7.1 4.3-2.5 5.7 1.4.3 4.3.2 5.4-.5-.3-3 1.3-9.1-3.7-8.7a7.2 7.2 0 00-3.3.8c-.3.1.3 1.2.3 1.4h.2c2.4-1 4.7-1.3 4.6 1.3zm47.2-3l-.1-.2a3.6 3.6 0 00-3.5.8c0-.1.2-.9-.1-.9s-1.8-.1-1.7.2v8.6c-.1.4 1.6.1 1.7.2a.2.2 0 00.2-.2c.3-2-1.1-7.3 2.2-7.2h.7c.3 0 .5-1.1.6-1.3z"/><path class="c8" d="M496.2 280.6c-2.7-.9-4.9.8-5.1 3.6-.2.1-1.5-.1-1.5.2-.4 1.8-.4 1.4 1.2 1.4l-1.3 7.2c-.2 1.6-.9 3.3-2.8 2.6.1 0-.1-.1-.2.1s-.9 1.5.2 1.5c2.8.7 4.4-1.5 4.7-4.1l1.3-7.3c.2-.1 2.1.2 2.1-.2l.2-1.2c.2-.4-1.9-.1-2-.2s.9-2.8 2.6-2.1l.2-.1c0-.1.7-1.4.4-1.4zM470.1 293c0 .4-1.6.1-1.8.2s-.1-.1-.1-.2v-12.3c-.1-.3 1.5-.1 1.7-.2a.2.2 0 01.2.2z"/><path class="c52" d="M922.2 238c-8.6 0-8.6 13.2 0 13.2h6.6c.1-5.4.9-12.9-6.6-13.2zm0 17.6h-17.6c-8.6 0-8.6 13.2 0 13.2h17.6c8.6 0 8.6-13.2 0-13.2z"/><path class="c53" d="M964 262.2c0-8.6-13.2-8.6-13.2 0v6.6c5.4.1 12.9.9 13.2-6.6zm-17.6 0v-17.6c0-8.6-13.2-8.6-13.2 0v17.6c0 8.6 13.2 8.6 13.2 0z"/><path class="c54" d="M939.8 304c8.6 0 8.6-13.2 0-13.2h-6.6c-.1 5.4-.9 12.9 6.6 13.2zm0-17.6h17.6c8.6 0 8.6-13.2 0-13.2h-17.6c-8.6 0-8.6 13.2 0 13.2z"/><path class="c55" d="M898 279.8c0 8.6 13.2 8.6 13.2 0v-6.6c-5.4-.1-12.9-.9-13.2 6.6zm17.6 0v17.6c0 8.6 13.2 8.6 13.2 0v-17.6c0-8.6-13.2-8.6-13.2 0z"/><path class="c56" d="M858.2 108h-47.3a7.9 7.9 0 00-7.9 7.9c.9 3.7-2.3 51.5 2.3 52.8 1.2 4.7 49.3 1.4 52.9 2.3a7.8 7.8 0 007.8-7.8v-47.3a7.9 7.9 0 00-7.8-7.9zm-27.8 47.8a3.8 3.8 0 01-3.8 3.7H815a3.8 3.8 0 01-3.8-3.7c.4-1.1-1.1-39.2 1.1-38.5 1.4-2.1 12.3-.8 14.3-1.1a3.7 3.7 0 013.8 3.8zm27.4-15.8a3.8 3.8 0 01-3.7 3.8h-11.7a3.9 3.9 0 01-3.8-3.8v-20a3.9 3.9 0 013.8-3.8h11.7a3.7 3.7 0 013.7 3.8z"/><path class="c58" d="M522.2 53a30.8 30.8 0 0017.9 27.8L525 40.4a29.8 29.8 0 00-2.8 12.6zm53-1.6c.3-7-5.3-9.9-5.7-15.7a5.4 5.4 0 015.7-5.5c-13.1-12.8-38.3-9.6-47.8 5.8 2.9.2 10.4-.3 10.5-.3a1.3 1.3 0 11.2 2.5l-3.6.3L546 72l6.9-20.3-4.9-13.2-3.3-.3a1.3 1.3 0 11.2-2.5s5.2.4 8.3.4 8.4-.4 8.4-.4a1.3 1.3 0 11.2 2.5l-3.6.3 11.4 33.2c1.4-5.2 5.5-15.8 5.6-20.3zm-20.8 4.3l-9.5 26.9a31.7 31.7 0 0019.5-.5c-.4-.4-9.7-25.9-10-26.4zm27.2-17.5c1.9 9.2-9.4 32.3-11.8 41.5a30.8 30.8 0 0011.8-41.5zM553.9 17c-48.7 1.3-48.6 70.7 0 72 48.6-1.3 48.6-70.7 0-72zm0 70.4c-46.4-1.3-46.4-67.6 0-68.7 46.3 1.2 46.3 67.5 0 68.7z"/><path class="c59" d="M170.8 358.1h13.8s2.8.1 2.4 3.4l-10.2 10.3h7.7s3.8-.4 3.4 3.5h-13.3s-2.8.1-2.9-3.5l10.3-10.3c-2.6-.4-11.9 1.9-11.2-3.4zm59.5-27.9c-.7-28.4-42.3-28.4-43 0s42.3 28.3 43 0z"/><path class="c59" d="M195.7 371.9c-6.2.2-7.1-9.3-1.1-10.3s8.6 10.2 1.1 10.3zm8.6-5.2c.1-10.3-15.2-11.8-17.1-1.7-2.1 12.3 16.7 14.2 17.1 1.7zm9.5 5.2c-6.2.2-7.1-9.3-1.1-10.3s8.6 10.2 1.1 10.3zm8.6-5.2c.1-10.3-15.2-11.8-17.1-1.7-2 12.3 16.7 14.1 17.1 1.7zm.8-8.7v17.3c5.1.8 3-7.1 3.4-10.3 0 0 .2-3.5 3.6-3.5a3.5 3.5 0 013.4 3.4v7.6a3.1 3.1 0 003.6 2.8v-10.4s0-3.7 3.5-3.4c0 0 2.9.2 3.1 2.9v7.2s-.2 4.1 3.6 3.7v-10.6s-.2-6-6.3-6.7c0 0-3.9-.1-5.8 2.4 0 0-4.1-4.6-8.9-1.1a5.9 5.9 0 00-3.2-1.3z"/><path class="c8" d="M194.9 322.4c21.3.7 20.1-4.4 19.9 15.4-21.3-.8-20.1 4.8-19.9-15.4zm27.6 0v15.4l-6.8-4.5V327z"/><path class="c60" d="M969.7 166.4v7.7c-.2 4.1-6.4 4.1-6.6 0v-7.7s-.1-1.3-2-1.3v9.2a5.4 5.4 0 0010.6 0v-9.2c-1.9 0-2 1.3-2 1.3zm45.8 0v7.7c-.1 4.1-6.4 4.1-6.6 0v-7.7s-.1-1.3-2-1.3v9.2a5.1 5.1 0 005.3 4.6 5 5 0 005.3-4.6v-9.2c-1.8 0-2 1.3-2 1.3zm-25.6 7.9v-9.2c-1.9 0-2.1 1.3-2.1 1.3v12.3h2.1zm33.1 0v-9.2c-1.8 0-2 1.3-2 1.3v12.3h2zm15.6 0v-9.2c-1.8 0-2 1.3-2 1.3v12.3h2zm-56.3-2.6c2.9-1.3 2.3-6.7-2-6.6h-5.1v13.6h6.5c3.3-.5 4.1-6.1.6-7zm-5.2-4.8c1.7.3 4.9-1.1 5.1 2s-3.5 1.8-5.1 2zm3.6 10.2h-3.6v-4.6h3.7c2.6.2 2.2 4.5-.1 4.6zm24.1-.1h-2.5c3.5-3.8 2.6-11.7-4.1-11.9 0 0-5.5-.4-5.9 6.8.5 9.9 8.9 5.9 13.6 6.6 0 0-.1-1.5-1.1-1.5zm-6.5.2c-5.2.2-5.2-10.6 0-10.4s5.2 10.6 0 10.4zm36.6-12.1h-9.9v1.7h9.9zm-3.9 0h-1.9v13.6h1.9z"/><path class="c61" d="M987.5 125.4h-2v2h2zm3.8 10.2h-1.9v2h1.9zm0-6.3h-1.9v2h1.9zm2-2h-2v2h2zm0 5.4h-2v2h2zm2-2.5h-2v2h2z"/><path class="c62" d="M985.5 130.7h2v10.8h1.9v-1.9h2v4.2h1.9v-7.1h2v14.7a12.3 12.3 0 005.9 9.3c-18.4-.6-15.7-14.8-15.7-30z"/><path class="c63" d="M996.3 153.1a11.8 11.8 0 006.6 7.6c5.1 0 14.8-4.1 13.9-15.4 0 0-3.6 14.1-20.5 7.8z"/><path class="c64" d="M1006.8 153.6c12.6-2.5 9.8-15.9 10-28 0 0-9.7-1.1-9.7 6.1l-.3 21.9z"/><path class="c67" d="M736.6 478.7l20.4 20.4a5.3 5.3 0 007.5 0c3-3.5 12-9 6.8-14.3l-20.4-20.5a5.3 5.3 0 00-7.5 0c-3 3.6-12 9.1-6.8 14.4z"/><path class="c68" d="M784.5 449.4l-34.6 34.9c-5.4 5.5 4.3 11.2 7.3 15a5.4 5.4 0 007.6 0l34.6-34.9a5.4 5.4 0 000-7.6c-3.7-3-9.3-12.8-14.9-7.4z"/><path class="c8" d="M957.3 502l48.7-30.5-48.7-30.5v22.5c0 .2 0 .4.2.5l9.9 7.5-.2.2-9.7 7.3c-.2.1-.2.3-.2.5zM941 459.4v24.2l16.2-12.1z"/><path class="c69" d="M957.3 502v-22.5c0-.2 0-.4.2-.5l9.7-7.3.2-.2-9.9-7.5c-1.5-1.2-.2-.3-.2-.5V441l48.7 30.5z"/><path class="c69" d="M941 459.4l16.2 12.1-16.2 12.1z"/><path class="c70" d="M1136 458l12.8-13c1.1.4 37.5-1 37.2 1 1.8 1.3.7 10.1 1 12z"/><path class="c71" d="M1187 484l-9.5 13h-28.7v-13z"/><path class="c72" d="M1187 458h-38.2v13h38.2z"/><path class="c73" d="M1148.8 458H1136v13h12.8z"/><path class="c74" d="M1187 471h-38.2v13h38.2z"/><path class="c75" d="M1148.8 471H1136v13h12.8z"/><path class="c76" d="M1136 484h13v13c-14.8.1-13 1-13-13z"/></svg>

