<svg width="462" height="630" viewBox="0 0 462 630" fill="none" xmlns="http://www.w3.org/2000/svg">
<path d="M457.638 486.909H4.69702L95.2853 123.989H383.826L457.638 486.909Z" fill="#655E9D" stroke="white" stroke-width="4" stroke-miterlimit="10"/>
<path d="M457.638 486.91H4.69702V626.682H457.638V486.91Z" fill="#655E9D" stroke="white" stroke-width="4" stroke-miterlimit="10"/>
<path d="M100.318 519.415H24.8276V539.521H100.318V519.415Z" fill="#655E9D" stroke="white" stroke-width="4" stroke-miterlimit="10"/>
<path d="M100.318 542.872H24.8276V562.979H100.318V542.872Z" fill="#655E9D" stroke="white" stroke-width="4" stroke-miterlimit="10"/>
<path d="M100.318 566.33H24.8276V586.436H100.318V566.33Z" fill="#655E9D" stroke="white" stroke-width="4" stroke-miterlimit="10"/>
<path d="M178.493 519.415H103.003V539.521H178.493V519.415Z" fill="#655E9D" stroke="white" stroke-width="4" stroke-miterlimit="10"/>
<path d="M178.493 542.872H103.003V562.979H178.493V542.872Z" fill="#655E9D" stroke="white" stroke-width="4" stroke-miterlimit="10"/>
<path d="M178.493 566.33H103.003V586.436H178.493V566.33Z" fill="#655E9D" stroke="white" stroke-width="4" stroke-miterlimit="10"/>
<path d="M256.331 519.415H180.841V539.521H256.331V519.415Z" fill="#655E9D" stroke="white" stroke-width="4" stroke-miterlimit="10"/>
<path d="M256.331 542.872H180.841V562.979H256.331V542.872Z" fill="#655E9D" stroke="white" stroke-width="4" stroke-miterlimit="10"/>
<path d="M256.331 566.33H180.841V586.436H256.331V566.33Z" fill="#655E9D" stroke="white" stroke-width="4" stroke-miterlimit="10"/>
<path d="M356.985 536.17C360.691 536.17 363.695 533.17 363.695 529.468C363.695 525.767 360.691 522.766 356.985 522.766C353.279 522.766 350.274 525.767 350.274 529.468C350.274 533.17 353.279 536.17 356.985 536.17Z" fill="#655E9D" stroke="white" stroke-width="4" stroke-miterlimit="10"/>
<path d="M377.115 536.17C380.821 536.17 383.826 533.17 383.826 529.468C383.826 525.767 380.821 522.766 377.115 522.766C373.409 522.766 370.405 525.767 370.405 529.468C370.405 533.17 373.409 536.17 377.115 536.17Z" fill="#655E9D" stroke="white" stroke-width="4" stroke-miterlimit="10"/>
<path d="M397.246 536.17C400.952 536.17 403.956 533.17 403.956 529.468C403.956 525.767 400.952 522.766 397.246 522.766C393.54 522.766 390.536 525.767 390.536 529.468C390.536 533.17 393.54 536.17 397.246 536.17Z" fill="#655E9D" stroke="white" stroke-width="4" stroke-miterlimit="10"/>
<path d="M417.377 536.17C421.083 536.17 424.087 533.17 424.087 529.468C424.087 525.767 421.083 522.766 417.377 522.766C413.671 522.766 410.667 525.767 410.667 529.468C410.667 533.17 413.671 536.17 417.377 536.17Z" fill="#655E9D" stroke="white" stroke-width="4" stroke-miterlimit="10"/>
<path d="M356.985 556.277C360.691 556.277 363.695 553.276 363.695 549.574C363.695 545.873 360.691 542.872 356.985 542.872C353.279 542.872 350.274 545.873 350.274 549.574C350.274 553.276 353.279 556.277 356.985 556.277Z" fill="#655E9D" stroke="white" stroke-width="4" stroke-miterlimit="10"/>
<path d="M377.115 556.277C380.821 556.277 383.826 553.276 383.826 549.574C383.826 545.873 380.821 542.872 377.115 542.872C373.409 542.872 370.405 545.873 370.405 549.574C370.405 553.276 373.409 556.277 377.115 556.277Z" fill="#655E9D" stroke="white" stroke-width="4" stroke-miterlimit="10"/>
<path d="M397.246 556.277C400.952 556.277 403.956 553.276 403.956 549.574C403.956 545.873 400.952 542.872 397.246 542.872C393.54 542.872 390.536 545.873 390.536 549.574C390.536 553.276 393.54 556.277 397.246 556.277Z" fill="#655E9D" stroke="white" stroke-width="4" stroke-miterlimit="10"/>
<path d="M417.377 556.277C421.083 556.277 424.087 553.276 424.087 549.574C424.087 545.873 421.083 542.872 417.377 542.872C413.671 542.872 410.667 545.873 410.667 549.574C410.667 553.276 413.671 556.277 417.377 556.277Z" fill="#655E9D" stroke="white" stroke-width="4" stroke-miterlimit="10"/>
<path d="M356.985 576.383C360.691 576.383 363.695 573.382 363.695 569.681C363.695 565.979 360.691 562.979 356.985 562.979C353.279 562.979 350.274 565.979 350.274 569.681C350.274 573.382 353.279 576.383 356.985 576.383Z" fill="#655E9D" stroke="white" stroke-width="4" stroke-miterlimit="10"/>
<path d="M377.115 576.383C380.821 576.383 383.826 573.382 383.826 569.681C383.826 565.979 380.821 562.979 377.115 562.979C373.409 562.979 370.405 565.979 370.405 569.681C370.405 573.382 373.409 576.383 377.115 576.383Z" fill="#655E9D" stroke="white" stroke-width="4" stroke-miterlimit="10"/>
<path d="M397.246 576.383C400.952 576.383 403.956 573.382 403.956 569.681C403.956 565.979 400.952 562.979 397.246 562.979C393.54 562.979 390.536 565.979 390.536 569.681C390.536 573.382 393.54 576.383 397.246 576.383Z" fill="#655E9D" stroke="white" stroke-width="4" stroke-miterlimit="10"/>
<path d="M417.377 576.383C421.083 576.383 424.087 573.382 424.087 569.681C424.087 565.979 421.083 562.979 417.377 562.979C413.671 562.979 410.667 565.979 410.667 569.681C410.667 573.382 413.671 576.383 417.377 576.383Z" fill="#655E9D" stroke="white" stroke-width="4" stroke-miterlimit="10"/>
<path d="M356.985 596.489C360.691 596.489 363.695 593.489 363.695 589.787C363.695 586.086 360.691 583.085 356.985 583.085C353.279 583.085 350.274 586.086 350.274 589.787C350.274 593.489 353.279 596.489 356.985 596.489Z" fill="#655E9D" stroke="white" stroke-width="4" stroke-miterlimit="10"/>
<path d="M377.115 596.489C380.821 596.489 383.826 593.489 383.826 589.787C383.826 586.086 380.821 583.085 377.115 583.085C373.409 583.085 370.405 586.086 370.405 589.787C370.405 593.489 373.409 596.489 377.115 596.489Z" fill="#655E9D" stroke="white" stroke-width="4" stroke-miterlimit="10"/>
<path d="M397.246 596.489C400.952 596.489 403.956 593.489 403.956 589.787C403.956 586.086 400.952 583.085 397.246 583.085C393.54 583.085 390.536 586.086 390.536 589.787C390.536 593.489 393.54 596.489 397.246 596.489Z" fill="#655E9D" stroke="white" stroke-width="4" stroke-miterlimit="10"/>
<path d="M417.377 596.489C421.083 596.489 424.087 593.489 424.087 589.787C424.087 586.086 421.083 583.085 417.377 583.085C413.671 583.085 410.667 586.086 410.667 589.787C410.667 593.489 413.671 596.489 417.377 596.489Z" fill="#655E9D" stroke="white" stroke-width="4" stroke-miterlimit="10"/>
<path d="M450.928 315H313.368V442.34H450.928V315Z" fill="#655E9D" stroke="white" stroke-width="4" stroke-miterlimit="10"/>
<path d="M457.638 332.761H4.69702L95.2853 70.3723H383.826L457.638 332.761Z" fill="#655E9D" stroke="white" stroke-width="4" stroke-miterlimit="10"/>
<path d="M457.638 332.761H4.69702V472.534H457.638V332.761Z" fill="#655E9D" stroke="white" stroke-width="4" stroke-miterlimit="10"/>
<path d="M100.318 365.266H24.8276V385.372H100.318V365.266Z" fill="#655E9D" stroke="white" stroke-width="4" stroke-miterlimit="10"/>
<path d="M100.318 388.723H24.8276V408.83H100.318V388.723Z" fill="#655E9D" stroke="white" stroke-width="4" stroke-miterlimit="10"/>
<path d="M100.318 412.181H24.8276V432.287H100.318V412.181Z" fill="#655E9D" stroke="white" stroke-width="4" stroke-miterlimit="10"/>
<path d="M178.493 365.266H103.003V385.372H178.493V365.266Z" fill="#655E9D" stroke="white" stroke-width="4" stroke-miterlimit="10"/>
<path d="M178.493 388.723H103.003V408.83H178.493V388.723Z" fill="#655E9D" stroke="white" stroke-width="4" stroke-miterlimit="10"/>
<path d="M178.493 412.181H103.003V432.287H178.493V412.181Z" fill="#655E9D" stroke="white" stroke-width="4" stroke-miterlimit="10"/>
<path d="M256.331 365.266H180.841V385.372H256.331V365.266Z" fill="#655E9D" stroke="white" stroke-width="4" stroke-miterlimit="10"/>
<path d="M256.331 388.723H180.841V408.83H256.331V388.723Z" fill="#655E9D" stroke="white" stroke-width="4" stroke-miterlimit="10"/>
<path d="M256.331 412.181H180.841V432.287H256.331V412.181Z" fill="#655E9D" stroke="white" stroke-width="4" stroke-miterlimit="10"/>
<path d="M356.985 382.021C360.691 382.021 363.695 379.021 363.695 375.319C363.695 371.618 360.691 368.617 356.985 368.617C353.279 368.617 350.274 371.618 350.274 375.319C350.274 379.021 353.279 382.021 356.985 382.021Z" fill="#655E9D" stroke="white" stroke-width="4" stroke-miterlimit="10"/>
<path d="M377.115 382.021C380.821 382.021 383.826 379.021 383.826 375.319C383.826 371.618 380.821 368.617 377.115 368.617C373.409 368.617 370.405 371.618 370.405 375.319C370.405 379.021 373.409 382.021 377.115 382.021Z" fill="#655E9D" stroke="white" stroke-width="4" stroke-miterlimit="10"/>
<path d="M397.246 382.021C400.952 382.021 403.956 379.021 403.956 375.319C403.956 371.618 400.952 368.617 397.246 368.617C393.54 368.617 390.536 371.618 390.536 375.319C390.536 379.021 393.54 382.021 397.246 382.021Z" fill="#655E9D" stroke="white" stroke-width="4" stroke-miterlimit="10"/>
<path d="M417.377 382.021C421.083 382.021 424.087 379.021 424.087 375.319C424.087 371.618 421.083 368.617 417.377 368.617C413.671 368.617 410.667 371.618 410.667 375.319C410.667 379.021 413.671 382.021 417.377 382.021Z" fill="#655E9D" stroke="white" stroke-width="4" stroke-miterlimit="10"/>
<path d="M356.985 402.128C360.691 402.128 363.695 399.127 363.695 395.426C363.695 391.724 360.691 388.723 356.985 388.723C353.279 388.723 350.274 391.724 350.274 395.426C350.274 399.127 353.279 402.128 356.985 402.128Z" fill="#655E9D" stroke="white" stroke-width="4" stroke-miterlimit="10"/>
<path d="M377.115 402.128C380.821 402.128 383.826 399.127 383.826 395.426C383.826 391.724 380.821 388.723 377.115 388.723C373.409 388.723 370.405 391.724 370.405 395.426C370.405 399.127 373.409 402.128 377.115 402.128Z" fill="#655E9D" stroke="white" stroke-width="4" stroke-miterlimit="10"/>
<path d="M397.246 402.128C400.952 402.128 403.956 399.127 403.956 395.426C403.956 391.724 400.952 388.723 397.246 388.723C393.54 388.723 390.536 391.724 390.536 395.426C390.536 399.127 393.54 402.128 397.246 402.128Z" fill="#655E9D" stroke="white" stroke-width="4" stroke-miterlimit="10"/>
<path d="M417.377 402.128C421.083 402.128 424.087 399.127 424.087 395.426C424.087 391.724 421.083 388.723 417.377 388.723C413.671 388.723 410.667 391.724 410.667 395.426C410.667 399.127 413.671 402.128 417.377 402.128Z" fill="#655E9D" stroke="white" stroke-width="4" stroke-miterlimit="10"/>
<path d="M356.985 422.234C360.691 422.234 363.695 419.233 363.695 415.532C363.695 411.83 360.691 408.83 356.985 408.83C353.279 408.83 350.274 411.83 350.274 415.532C350.274 419.233 353.279 422.234 356.985 422.234Z" fill="#655E9D" stroke="white" stroke-width="4" stroke-miterlimit="10"/>
<path d="M377.115 422.234C380.821 422.234 383.826 419.233 383.826 415.532C383.826 411.83 380.821 408.83 377.115 408.83C373.409 408.83 370.405 411.83 370.405 415.532C370.405 419.233 373.409 422.234 377.115 422.234Z" fill="#655E9D" stroke="white" stroke-width="4" stroke-miterlimit="10"/>
<path d="M397.246 422.234C400.952 422.234 403.956 419.233 403.956 415.532C403.956 411.83 400.952 408.83 397.246 408.83C393.54 408.83 390.536 411.83 390.536 415.532C390.536 419.233 393.54 422.234 397.246 422.234Z" fill="#655E9D" stroke="white" stroke-width="4" stroke-miterlimit="10"/>
<path d="M417.377 422.234C421.083 422.234 424.087 419.233 424.087 415.532C424.087 411.83 421.083 408.83 417.377 408.83C413.671 408.83 410.667 411.83 410.667 415.532C410.667 419.233 413.671 422.234 417.377 422.234Z" fill="#655E9D" stroke="white" stroke-width="4" stroke-miterlimit="10"/>
<path d="M356.985 442.34C360.691 442.34 363.695 439.34 363.695 435.638C363.695 431.937 360.691 428.936 356.985 428.936C353.279 428.936 350.274 431.937 350.274 435.638C350.274 439.34 353.279 442.34 356.985 442.34Z" fill="#655E9D" stroke="white" stroke-width="4" stroke-miterlimit="10"/>
<path d="M377.115 442.34C380.821 442.34 383.826 439.34 383.826 435.638C383.826 431.937 380.821 428.936 377.115 428.936C373.409 428.936 370.405 431.937 370.405 435.638C370.405 439.34 373.409 442.34 377.115 442.34Z" fill="#655E9D" stroke="white" stroke-width="4" stroke-miterlimit="10"/>
<path d="M397.246 442.34C400.952 442.34 403.956 439.34 403.956 435.638C403.956 431.937 400.952 428.936 397.246 428.936C393.54 428.936 390.536 431.937 390.536 435.638C390.536 439.34 393.54 442.34 397.246 442.34Z" fill="#655E9D" stroke="white" stroke-width="4" stroke-miterlimit="10"/>
<path d="M417.377 442.34C421.083 442.34 424.087 439.34 424.087 435.638C424.087 431.937 421.083 428.936 417.377 428.936C413.671 428.936 410.667 431.937 410.667 435.638C410.667 439.34 413.671 442.34 417.377 442.34Z" fill="#655E9D" stroke="white" stroke-width="4" stroke-miterlimit="10"/>
<path d="M457.302 207.431L4.36108 205.755L55.0234 3.35107L424.087 4.35639L457.302 207.431Z" fill="#655E9D" stroke="white" stroke-width="4" stroke-miterlimit="10"/>
<path d="M4.35577 205.548L3.9646 317.473L456.903 319.052L457.294 207.127L4.35577 205.548Z" fill="#655E9D" stroke="white" stroke-width="4" stroke-miterlimit="10"/>
<path d="M310.204 206.755L309.813 318.68L456.833 319.193L457.225 207.268L310.204 206.755Z" fill="#655E9D" stroke="white" stroke-width="4" stroke-miterlimit="10"/>
<path d="M100.318 227.872H24.8276V247.979H100.318V227.872Z" fill="#655E9D" stroke="white" stroke-width="4" stroke-miterlimit="10"/>
<path d="M100.318 251.33H24.8276V271.436H100.318V251.33Z" fill="#655E9D" stroke="white" stroke-width="4" stroke-miterlimit="10"/>
<path d="M100.318 274.787H24.8276V294.893H100.318V274.787Z" fill="#655E9D" stroke="white" stroke-width="4" stroke-miterlimit="10"/>
<path d="M178.493 227.872H103.003V247.979H178.493V227.872Z" fill="#655E9D" stroke="white" stroke-width="4" stroke-miterlimit="10"/>
<path d="M178.493 251.33H103.003V271.436H178.493V251.33Z" fill="#655E9D" stroke="white" stroke-width="4" stroke-miterlimit="10"/>
<path d="M178.493 274.787H103.003V294.893H178.493V274.787Z" fill="#655E9D" stroke="white" stroke-width="4" stroke-miterlimit="10"/>
<path d="M256.331 227.872H180.841V247.979H256.331V227.872Z" fill="#655E9D" stroke="white" stroke-width="4" stroke-miterlimit="10"/>
<path d="M256.331 251.33H180.841V271.436H256.331V251.33Z" fill="#655E9D" stroke="white" stroke-width="4" stroke-miterlimit="10"/>
<path d="M256.331 274.787H180.841V294.893H256.331V274.787Z" fill="#655E9D" stroke="white" stroke-width="4" stroke-miterlimit="10"/>
<path d="M356.985 244.628C360.691 244.628 363.695 241.627 363.695 237.926C363.695 234.224 360.691 231.223 356.985 231.223C353.279 231.223 350.274 234.224 350.274 237.926C350.274 241.627 353.279 244.628 356.985 244.628Z" fill="#655E9D" stroke="white" stroke-width="4" stroke-miterlimit="10"/>
<path d="M377.115 244.628C380.821 244.628 383.826 241.627 383.826 237.926C383.826 234.224 380.821 231.223 377.115 231.223C373.409 231.223 370.405 234.224 370.405 237.926C370.405 241.627 373.409 244.628 377.115 244.628Z" fill="#655E9D" stroke="white" stroke-width="4" stroke-miterlimit="10"/>
<path d="M397.246 244.628C400.952 244.628 403.956 241.627 403.956 237.926C403.956 234.224 400.952 231.223 397.246 231.223C393.54 231.223 390.536 234.224 390.536 237.926C390.536 241.627 393.54 244.628 397.246 244.628Z" fill="#655E9D" stroke="white" stroke-width="4" stroke-miterlimit="10"/>
<path d="M417.377 244.628C421.083 244.628 424.087 241.627 424.087 237.926C424.087 234.224 421.083 231.223 417.377 231.223C413.671 231.223 410.667 234.224 410.667 237.926C410.667 241.627 413.671 244.628 417.377 244.628Z" fill="#655E9D" stroke="white" stroke-width="4" stroke-miterlimit="10"/>
<path d="M356.985 264.734C360.691 264.734 363.695 261.733 363.695 258.032C363.695 254.33 360.691 251.33 356.985 251.33C353.279 251.33 350.274 254.33 350.274 258.032C350.274 261.733 353.279 264.734 356.985 264.734Z" fill="#655E9D" stroke="white" stroke-width="4" stroke-miterlimit="10"/>
<path d="M377.115 264.734C380.821 264.734 383.826 261.733 383.826 258.032C383.826 254.33 380.821 251.33 377.115 251.33C373.409 251.33 370.405 254.33 370.405 258.032C370.405 261.733 373.409 264.734 377.115 264.734Z" fill="#655E9D" stroke="white" stroke-width="4" stroke-miterlimit="10"/>
<path d="M397.246 264.734C400.952 264.734 403.956 261.733 403.956 258.032C403.956 254.33 400.952 251.33 397.246 251.33C393.54 251.33 390.536 254.33 390.536 258.032C390.536 261.733 393.54 264.734 397.246 264.734Z" fill="#655E9D" stroke="white" stroke-width="4" stroke-miterlimit="10"/>
<path d="M417.377 264.734C421.083 264.734 424.087 261.733 424.087 258.032C424.087 254.33 421.083 251.33 417.377 251.33C413.671 251.33 410.667 254.33 410.667 258.032C410.667 261.733 413.671 264.734 417.377 264.734Z" fill="#655E9D" stroke="white" stroke-width="4" stroke-miterlimit="10"/>
<path d="M356.985 284.841C360.691 284.841 363.695 281.84 363.695 278.138C363.695 274.437 360.691 271.436 356.985 271.436C353.279 271.436 350.274 274.437 350.274 278.138C350.274 281.84 353.279 284.841 356.985 284.841Z" fill="#655E9D" stroke="white" stroke-width="4" stroke-miterlimit="10"/>
<path d="M377.115 284.841C380.821 284.841 383.826 281.84 383.826 278.138C383.826 274.437 380.821 271.436 377.115 271.436C373.409 271.436 370.405 274.437 370.405 278.138C370.405 281.84 373.409 284.841 377.115 284.841Z" fill="#655E9D" stroke="white" stroke-width="4" stroke-miterlimit="10"/>
<path d="M397.246 284.841C400.952 284.841 403.956 281.84 403.956 278.138C403.956 274.437 400.952 271.436 397.246 271.436C393.54 271.436 390.536 274.437 390.536 278.138C390.536 281.84 393.54 284.841 397.246 284.841Z" fill="#655E9D" stroke="white" stroke-width="4" stroke-miterlimit="10"/>
<path d="M417.377 284.841C421.083 284.841 424.087 281.84 424.087 278.138C424.087 274.437 421.083 271.436 417.377 271.436C413.671 271.436 410.667 274.437 410.667 278.138C410.667 281.84 413.671 284.841 417.377 284.841Z" fill="#655E9D" stroke="white" stroke-width="4" stroke-miterlimit="10"/>
<path d="M356.985 304.947C360.691 304.947 363.695 301.946 363.695 298.245C363.695 294.543 360.691 291.542 356.985 291.542C353.279 291.542 350.274 294.543 350.274 298.245C350.274 301.946 353.279 304.947 356.985 304.947Z" fill="#655E9D" stroke="white" stroke-width="4" stroke-miterlimit="10"/>
<path d="M377.115 304.947C380.821 304.947 383.826 301.946 383.826 298.245C383.826 294.543 380.821 291.542 377.115 291.542C373.409 291.542 370.405 294.543 370.405 298.245C370.405 301.946 373.409 304.947 377.115 304.947Z" fill="#655E9D" stroke="white" stroke-width="4" stroke-miterlimit="10"/>
<path d="M397.246 304.947C400.952 304.947 403.956 301.946 403.956 298.245C403.956 294.543 400.952 291.542 397.246 291.542C393.54 291.542 390.536 294.543 390.536 298.245C390.536 301.946 393.54 304.947 397.246 304.947Z" fill="#655E9D" stroke="white" stroke-width="4" stroke-miterlimit="10"/>
<path d="M417.377 304.947C421.083 304.947 424.087 301.946 424.087 298.245C424.087 294.543 421.083 291.542 417.377 291.542C413.671 291.542 410.667 294.543 410.667 298.245C410.667 301.946 413.671 304.947 417.377 304.947Z" fill="#655E9D" stroke="white" stroke-width="4" stroke-miterlimit="10"/>
<path d="M310.013 485.904V628.66" stroke="white" stroke-width="4" stroke-miterlimit="10"/>
<path d="M310.013 331.755V474.511" stroke="white" stroke-width="4" stroke-miterlimit="10"/>
</svg>
