<?xml version="1.0" encoding="utf-8"?>
<svg version="1.1" id="ServerClouds" xmlns="http://www.w3.org/2000/svg" xmlns:xlink="http://www.w3.org/1999/xlink" viewBox="0 0 1100 400" xml:space="preserve">
<style type="text/css">
	.st0{fill:none;}
	.st1{fill:none;stroke:#FFFFFF;stroke-miterlimit:10;}
	.st2{fill:#FFFFFF;}
	.st3{fill:#61BBD6;stroke:#FFFFFF;stroke-width:2;stroke-miterlimit:10;}
	.st4{fill:#CECECE;}
	.st5{fill:#E5E5E5;}
	.st6{fill:#F7F7F7;}
	.st7{fill:#655E9D;stroke:#FFFFFF;stroke-width:2;stroke-miterlimit:10;}
	.st8{fill:#FFFFFF;stroke:#FFFFFF;stroke-width:2;stroke-miterlimit:10;}
	.st9{fill:#F9F9F9;stroke:#FFFFFF;stroke-width:2;stroke-miterlimit:10;}
	.st10{fill:#61BBD6;}
	.st11{fill:#E0E0E0;stroke:#FFFFFF;stroke-width:2;stroke-miterlimit:10;}
	.st12{fill:#FFFFFF;stroke:#FFFFFF;stroke-width:2;stroke-miterlimit:10.0001;}
	.st13{fill:#F9F9F9;stroke:#FFFFFF;stroke-width:2;stroke-miterlimit:10.0001;}
    svg {
        background-color: #655E9D;
        }
    
    #ball_2 {opacity: 0;}
    
          #cl_1 {
        animation: floatAnim1 8s ease-in-out infinite;
      }
    
          @keyframes floatAnim1 {
        0% {
          transform: translate(0px,-5px);
        }
        50% {
          transform: translate(0px,-10px);
        }
        100% {
          transform: translate(0px,-5px);
        }
      }
              #cl_2 {
        animation: floatAnim2 8s ease-in-out infinite;
      }
    
          @keyframes floatAnim2 {
        0% {
          transform: translate(0px,-5px);
        }
        50% {
          transform: translate(0px,-20px);
        }
        100% {
          transform: translate(0px,-5px);
        }
      }
                  #cl_3 {
        animation: floatAnim3 8s ease-in-out infinite;
      }
    
          @keyframes floatAnim3 {
        0% {
          transform: translate(0px,-10px);
        }
        50% {
          transform: translate(0px,-30px);
        }
        100% {
          transform: translate(0px,-10px);
        }
      }
                  #cl_4 {
        animation: floatAnim4 8s ease-in-out infinite;
      }
    
          @keyframes floatAnim4 {
        0% {
          transform: translate(0px,-5px);
        }
        50% {
          transform: translate(0px,-25px);
        }
        100% {
          transform: translate(0px,-5px);
        }
      }
</style>
<path id="theMotionPath1" class="st1" d="M186,216h162.3"/>
<path id="theMotionPath2" class="st1" d="M602.4,216H803"/>
    
<g id="ball_1">
	<circle class="st2" cx="" cy="" r="6"/>
	
		<animateMotion  accumulate="none" additive="replace" begin="0s;animation2.end + 1s" dur="3s" calcMode="paced" fill="freeze" id="animation1" restart="whenNotActive">
		  <mpath  xlink:href="#theMotionPath1"></mpath>
	    </animateMotion>
    
</g>
    
<g id="ball_2">
	<circle class="st2" cx="" cy="" r="6"/>
	
		<animateMotion  accumulate="none" additive="replace" begin="animation1.end + 1s" dur="3s" calcMode="paced" fill="freeze" id="animation2" restart="whenNotActive">
		  <mpath  xlink:href="#theMotionPath2"></mpath>
	    </animateMotion>

		<animate attributeName="opacity" from="0" to="1" dur="0.1s" begin="4" fill="freeze" repeatCount="1"/>

</g>
    
    
<g id="CloudBlue">
	<path class="st3" d="M1028.8,223.9c0-11.5-8.6-20.9-19.6-22.3c-1.4-11.1-10.9-19.6-22.3-19.6c-4.2,0-8.2,1.2-11.5,3.2
		c-1.9-13.4-13.4-23.7-27.3-23.7c-7.7,0-14.7,3.2-19.7,8.3c-4.5-17.7-20.6-30.8-39.7-30.8c-21.2,0-38.7,16.2-40.7,36.9
		c-2.9-1.3-6.1-2.1-9.4-2.1c-10.7,0-19.7,7.5-22,17.5c-0.9-0.1-1.7-0.2-2.6-0.2c-7.9,0-14.9,4.1-18.9,10.3
		c-11.7,0.8-21,10.5-21,22.5c0,12.1,9.5,22,21.5,22.5l0,0h211.8l0,0C1019.3,245.9,1028.8,236,1028.8,223.9z"/>
	<g id="Logo">
		<polygon class="st2" points="870.4,189.9 870.4,209 906.5,189 906.5,170.8 		"/>
		<polygon class="st2" points="906.6,207.4 906.6,189 923,198 923,216.2 		"/>
		<polygon class="st2" points="890.1,234.2 906.6,225.5 906.6,207.4 890.2,216 		"/>
	</g>
</g>
<g id="Clouds">
	<g id="cl_1">
		<path class="st4" d="M623.8,193.6c0-9.2-6.9-16.8-15.8-17.9c-1.1-8.9-8.7-15.8-17.9-15.8c-3.4,0-6.6,0.9-9.3,2.6
			c-1.5-10.7-10.8-19-21.9-19c-6.2,0-11.8,2.5-15.8,6.6c-3.6-14.2-16.5-24.7-31.8-24.7c-17,0-31,13-32.7,29.6
			c-2.3-1.1-4.9-1.7-7.6-1.7c-8.6,0-15.8,6-17.6,14.1c-0.7-0.1-1.4-0.1-2.1-0.1c-6.4,0-11.9,3.3-15.2,8.3c-9.4,0.6-16.9,8.4-16.9,18
			c0,9.7,7.6,17.6,17.2,18l0,0h170l0,0C616.1,211.2,623.8,203.3,623.8,193.6z"/>
	</g>
	<g id="cl_2">
		<path class="st5" d="M521,226.9c0-9.2-6.9-16.8-15.8-17.9c-1.1-8.9-8.7-15.8-17.9-15.8c-3.4,0-6.6,0.9-9.3,2.6
			c-1.5-10.7-10.8-19-21.9-19c-6.2,0-11.8,2.5-15.8,6.6c-3.6-14.2-16.5-24.7-31.8-24.7c-17,0-31,13-32.7,29.6
			c-2.3-1.1-4.9-1.7-7.6-1.7c-8.6,0-15.8,6-17.6,14.1c-0.7-0.1-1.4-0.1-2.1-0.1c-6.4,0-11.9,3.3-15.2,8.3c-9.4,0.6-16.9,8.4-16.9,18
			c0,9.7,7.6,17.6,17.2,18l0,0h170l0,0C513.3,244.5,521,236.6,521,226.9z"/>
	</g>
	<g id="cl_3">
		<path class="st6" d="M670.3,253.2c0-9.2-6.9-16.8-15.8-17.9c-1.1-8.9-8.7-15.8-17.9-15.8c-3.4,0-6.6,0.9-9.3,2.6
			c-1.5-10.7-10.8-19-21.9-19c-6.2,0-11.8,2.5-15.8,6.6c-3.6-14.2-16.5-24.7-31.8-24.7c-17,0-31,13-32.7,29.6
			c-2.3-1.1-4.9-1.7-7.6-1.7c-8.6,0-15.8,6-17.6,14.1c-0.7-0.1-1.4-0.1-2.1-0.1c-6.4,0-11.9,3.3-15.2,8.3c-9.4,0.6-16.9,8.4-16.9,18
			c0,9.7,7.6,17.6,17.2,18l0,0h170l0,0C662.7,270.8,670.3,262.9,670.3,253.2z"/>
	</g>
	<g id="cl_4">
		<path class="st2" d="M564.4,273.9c0-9.2-6.9-16.8-15.8-17.9c-1.1-8.9-8.7-15.8-17.9-15.8c-3.4,0-6.6,0.9-9.3,2.6
			c-1.5-10.7-10.8-19-21.9-19c-6.2,0-11.8,2.5-15.8,6.6c-3.6-14.2-16.5-24.7-31.8-24.7c-17,0-31,13-32.7,29.6
			c-2.3-1.1-4.9-1.7-7.6-1.7c-8.6,0-15.8,6-17.6,14.1c-0.7-0.1-1.4-0.1-2.1-0.1c-6.4,0-11.9,3.3-15.2,8.3c-9.4,0.6-16.9,8.4-16.9,18
			c0,9.7,7.6,17.6,17.2,18l0,0h170l0,0C556.8,291.5,564.4,283.6,564.4,273.9z"/>
	</g>
</g>
<g id="Server">
	<g>
		<g>
			<polygon class="st7" points="214,253.3 79,253.3 106,145 192,145 			"/>
			<rect x="79" y="253.3" class="st8" width="135" height="41.7"/>
		</g>
		<rect x="171" y="255" class="st9" width="41" height="38"/>
		<g>
			<rect x="85" y="263" class="st7" width="22.5" height="6"/>
			<rect x="85" y="270" class="st7" width="22.5" height="6"/>
			<rect x="85" y="277" class="st7" width="22.5" height="6"/>
			<rect x="108.3" y="263" class="st7" width="22.5" height="6"/>
			<rect x="108.3" y="270" class="st7" width="22.5" height="6"/>
			<rect x="108.3" y="277" class="st7" width="22.5" height="6"/>
			<rect x="131.5" y="263" class="st7" width="22.5" height="6"/>
			<rect x="131.5" y="270" class="st7" width="22.5" height="6"/>
			<rect x="131.5" y="277" class="st7" width="22.5" height="6"/>
		</g>
		<g>
			<g>
				<circle class="st10" cx="184" cy="266" r="2"/>
				<circle class="st10" cx="190" cy="266" r="2"/>
				<circle class="st10" cx="196" cy="266" r="2"/>
				<circle class="st10" cx="202" cy="266" r="2"/>
			</g>
			<g>
				<circle class="st10" cx="184" cy="272" r="2"/>
				<circle class="st10" cx="190" cy="272" r="2"/>
				<circle class="st10" cx="196" cy="272" r="2"/>
				<circle class="st10" cx="202" cy="272" r="2"/>
			</g>
			<g>
				<circle class="st10" cx="184" cy="278" r="2"/>
				<circle class="st10" cx="190" cy="278" r="2"/>
				<circle class="st10" cx="196" cy="278" r="2"/>
				<circle class="st10" cx="202" cy="278" r="2"/>
			</g>
			<g>
				<circle class="st10" cx="184" cy="284" r="2"/>
				<circle class="st10" cx="190" cy="284" r="2"/>
				<circle class="st10" cx="196" cy="284" r="2"/>
				<circle class="st10" cx="202" cy="284" r="2"/>
			</g>
		</g>
	</g>
	<rect x="171" y="202" class="st9" width="41" height="38"/>
	<g>
		<g>
			<polygon class="st7" points="214,207.3 79,207.3 106,129 192,129 			"/>
			<rect x="79" y="207.3" class="st8" width="135" height="41.7"/>
		</g>
		<g>
			<rect x="85" y="217" class="st7" width="22.5" height="6"/>
			<rect x="85" y="224" class="st7" width="22.5" height="6"/>
			<rect x="85" y="231" class="st7" width="22.5" height="6"/>
			<rect x="108.3" y="217" class="st7" width="22.5" height="6"/>
			<rect x="108.3" y="224" class="st7" width="22.5" height="6"/>
			<rect x="108.3" y="231" class="st7" width="22.5" height="6"/>
			<rect x="131.5" y="217" class="st7" width="22.5" height="6"/>
			<rect x="131.5" y="224" class="st7" width="22.5" height="6"/>
			<rect x="131.5" y="231" class="st7" width="22.5" height="6"/>
		</g>
		<g>
			<g>
				<circle class="st10" cx="184" cy="220" r="2"/>
				<circle class="st10" cx="190" cy="220" r="2"/>
				<circle class="st10" cx="196" cy="220" r="2"/>
				<circle class="st10" cx="202" cy="220" r="2"/>
			</g>
			<g>
				<circle class="st10" cx="184" cy="226" r="2"/>
				<circle class="st10" cx="190" cy="226" r="2"/>
				<circle class="st10" cx="196" cy="226" r="2"/>
				<circle class="st10" cx="202" cy="226" r="2"/>
			</g>
			<g>
				<circle class="st10" cx="184" cy="232" r="2"/>
				<circle class="st10" cx="190" cy="232" r="2"/>
				<circle class="st10" cx="196" cy="232" r="2"/>
				<circle class="st10" cx="202" cy="232" r="2"/>
			</g>
			<g>
				<circle class="st10" cx="184" cy="238" r="2"/>
				<circle class="st10" cx="190" cy="238" r="2"/>
				<circle class="st10" cx="196" cy="238" r="2"/>
				<circle class="st10" cx="202" cy="238" r="2"/>
			</g>
		</g>
	</g>
	<g>
		<g>
			<polygon class="st11" points="213.9,169.9 78.9,169.4 94,109 204,109.3 			"/>
			
				<rect x="129.6" y="118.7" transform="matrix(3.794143e-03 -1 1 3.794143e-03 -40.4815 331.8641)" class="st12" width="33.4" height="135"/>
			
				<rect x="175.2" y="164.6" transform="matrix(3.794022e-03 -1 1 3.794022e-03 4.6994 377.7435)" class="st13" width="33.4" height="43.8"/>
		</g>
		<g>
			<rect x="85" y="176" class="st7" width="22.5" height="6"/>
			<rect x="85" y="183" class="st7" width="22.5" height="6"/>
			<rect x="85" y="190" class="st7" width="22.5" height="6"/>
			<rect x="108.3" y="176" class="st7" width="22.5" height="6"/>
			<rect x="108.3" y="183" class="st7" width="22.5" height="6"/>
			<rect x="108.3" y="190" class="st7" width="22.5" height="6"/>
			<rect x="131.5" y="176" class="st7" width="22.5" height="6"/>
			<rect x="131.5" y="183" class="st7" width="22.5" height="6"/>
			<rect x="131.5" y="190" class="st7" width="22.5" height="6"/>
		</g>
		<g>
			<g>
				<circle class="st10" cx="184" cy="179" r="2"/>
				<circle class="st10" cx="190" cy="179" r="2"/>
				<circle class="st10" cx="196" cy="179" r="2"/>
				<circle class="st10" cx="202" cy="179" r="2"/>
			</g>
			<g>
				<circle class="st10" cx="184" cy="185" r="2"/>
				<circle class="st10" cx="190" cy="185" r="2"/>
				<circle class="st10" cx="196" cy="185" r="2"/>
				<circle class="st10" cx="202" cy="185" r="2"/>
			</g>
			<g>
				<circle class="st10" cx="184" cy="191" r="2"/>
				<circle class="st10" cx="190" cy="191" r="2"/>
				<circle class="st10" cx="196" cy="191" r="2"/>
				<circle class="st10" cx="202" cy="191" r="2"/>
			</g>
			<g>
				<circle class="st10" cx="184" cy="197" r="2"/>
				<circle class="st10" cx="190" cy="197" r="2"/>
				<circle class="st10" cx="196" cy="197" r="2"/>
				<circle class="st10" cx="202" cy="197" r="2"/>
			</g>
		</g>
	</g>
</g>

</svg>
