<svg xmlns="http://www.w3.org/2000/svg" xmlns:xlink="http://www.w3.org/1999/xlink" width="1440" height="1024" fill="none" xmlns:v="https://vecta.io/nano"><path fill="#655f9e" d="M167.657 426.912h723v138h-723z"/><path d="M234.024 528.031c-4.269 0-8.216-.63-11.842-1.89-3.6-1.261-6.699-3.138-9.296-5.632s-4.617-5.606-6.057-9.335c-1.414-3.729-2.121-8.037-2.121-12.923 0-4.551.681-8.679 2.044-12.382s3.343-6.879 5.941-9.528c2.494-2.546 5.58-4.513 9.257-5.902 3.704-1.388 7.741-2.083 12.113-2.083 2.417 0 4.59.142 6.519.425 1.954.257 3.754.604 5.4 1.041 1.723.489 3.279 1.042 4.668 1.659a70.59 70.59 0 0 1 3.703 1.659v13.925h-1.697a67.8 67.8 0 0 0-2.739-2.199c-1.08-.849-2.315-1.684-3.703-2.507-1.415-.823-2.945-1.517-4.591-2.083s-3.407-.849-5.284-.849c-2.083 0-4.064.334-5.941 1.003-1.877.643-3.613 1.723-5.207 3.24-1.518 1.466-2.752 3.408-3.703 5.825-.926 2.417-1.389 5.349-1.389 8.795 0 3.6.501 6.609 1.504 9.026 1.029 2.418 2.315 4.321 3.858 5.709 1.568 1.415 3.317 2.43 5.246 3.048 1.929.591 3.832.887 5.709.887 1.8 0 3.574-.27 5.323-.81 1.774-.54 3.407-1.273 4.899-2.199 1.26-.746 2.43-1.543 3.51-2.392s1.967-1.581 2.662-2.198h1.543v13.732l-4.128 1.813c-1.311.566-2.687 1.055-4.127 1.466-1.877.54-3.639.951-5.285 1.234s-3.909.425-6.789.425zm87.062-29.818c0 9.155-2.623 16.432-7.869 21.833-5.246 5.374-12.498 8.062-21.756 8.062-9.232 0-16.471-2.688-21.717-8.062-5.246-5.401-7.869-12.678-7.869-21.833 0-9.232 2.623-16.523 7.869-21.872 5.246-5.374 12.485-8.062 21.717-8.062 9.207 0 16.446 2.688 21.717 8.062 5.272 5.349 7.908 12.64 7.908 21.872zm-19.634 14.542c1.44-1.748 2.507-3.806 3.202-6.172.694-2.391 1.041-5.194 1.041-8.409 0-3.446-.399-6.377-1.196-8.795s-1.838-4.371-3.124-5.863c-1.312-1.543-2.829-2.662-4.552-3.356a13.93 13.93 0 0 0-5.323-1.041c-1.878 0-3.652.334-5.323 1.002-1.646.669-3.164 1.775-4.552 3.318-1.286 1.44-2.34 3.433-3.163 5.979-.798 2.52-1.196 5.452-1.196 8.795 0 3.42.386 6.339 1.157 8.756.797 2.392 1.839 4.346 3.125 5.863s2.79 2.636 4.513 3.356 3.536 1.08 5.439 1.08 3.716-.36 5.439-1.08c1.723-.745 3.227-1.89 4.513-3.433zm91.189 14.157h-14.735v-38.458l-10.646 24.957h-10.223l-10.646-24.957v38.458h-13.964v-57.437h17.204l12.922 28.815 12.884-28.815h17.204zm45.749 0h-33.636v-10.184h9.412v-37.069h-9.412v-10.184h33.636v10.184h-9.412v37.069h9.412zm64.304 0h-14.273l-24.379-39.423v39.423h-13.578v-57.437h17.706l20.945 32.904v-32.904h13.579zm65.46-3.279c-2.572 1.003-5.979 2.006-10.222 3.009-4.243.977-8.474 1.466-12.691 1.466-9.772 0-17.423-2.649-22.952-7.946-5.529-5.324-8.293-12.666-8.293-22.026 0-8.924 2.79-16.112 8.37-21.563 5.581-5.478 13.36-8.217 23.338-8.217 3.78 0 7.38.348 10.801 1.042 3.42.668 7.226 2.019 11.418 4.05v13.463h-1.659c-.72-.541-1.774-1.299-3.163-2.276-1.389-1.003-2.726-1.852-4.012-2.546-1.491-.823-3.24-1.53-5.246-2.122-1.98-.591-4.089-.887-6.326-.887-2.623 0-5.002.386-7.136 1.157s-4.051 1.955-5.748 3.549c-1.62 1.543-2.906 3.51-3.857 5.902-.926 2.366-1.389 5.105-1.389 8.216 0 6.352 1.684 11.212 5.053 14.581s8.345 5.053 14.928 5.053c.566 0 1.183-.012 1.852-.038.694-.026 1.324-.064 1.89-.116V506.12h-11.456v-10.839h26.5zm86.291-14.774c0 5.658-2.405 10.261-7.214 13.81-4.783 3.523-11.289 5.285-19.518 5.285-4.758 0-8.911-.412-12.46-1.235-3.523-.849-6.827-1.916-9.913-3.202v-13.771h1.62c3.06 2.444 6.48 4.321 10.26 5.632 3.806 1.312 7.458 1.968 10.956 1.968.9 0 2.083-.078 3.548-.232s2.662-.411 3.588-.771c1.131-.463 2.057-1.042 2.777-1.736.746-.695 1.119-1.723 1.119-3.086 0-1.26-.54-2.34-1.62-3.24-1.055-.926-2.611-1.633-4.668-2.122-2.16-.514-4.449-.99-6.866-1.427-2.392-.463-4.642-1.042-6.751-1.736-4.834-1.569-8.319-3.69-10.453-6.365-2.109-2.7-3.163-6.043-3.163-10.029 0-5.349 2.391-9.708 7.175-13.077 4.809-3.394 10.98-5.092 18.515-5.092 3.78 0 7.509.373 11.187 1.119 3.703.72 6.905 1.633 9.605 2.739v13.231h-1.582c-2.314-1.852-5.156-3.395-8.525-4.629-3.343-1.26-6.763-1.89-10.26-1.89-1.235 0-2.469.09-3.704.27-1.208.154-2.378.463-3.51.926-1.003.385-1.864.977-2.584 1.774-.72.772-1.08 1.659-1.08 2.662 0 1.517.578 2.687 1.735 3.51 1.158.797 3.344 1.53 6.558 2.199l6.056 1.273c1.955.411 4.051.977 6.288 1.697 4.397 1.44 7.638 3.407 9.721 5.902 2.108 2.468 3.163 5.683 3.163 9.643zm66.039-10.646c0 9.155-2.623 16.432-7.869 21.833-5.247 5.374-12.499 8.062-21.756 8.062-9.232 0-16.472-2.688-21.718-8.062-5.246-5.401-7.869-12.678-7.869-21.833 0-9.232 2.623-16.523 7.869-21.872 5.246-5.374 12.486-8.062 21.718-8.062 9.206 0 16.445 2.688 21.717 8.062 5.272 5.349 7.908 12.64 7.908 21.872zm-19.635 14.542c1.44-1.748 2.508-3.806 3.202-6.172.694-2.391 1.042-5.194 1.042-8.409 0-3.446-.399-6.377-1.196-8.795s-1.839-4.371-3.125-5.863c-1.311-1.543-2.829-2.662-4.552-3.356-1.697-.694-3.471-1.041-5.323-1.041-1.877 0-3.651.334-5.323 1.002-1.646.669-3.163 1.775-4.552 3.318-1.286 1.44-2.34 3.433-3.163 5.979-.797 2.52-1.196 5.452-1.196 8.795 0 3.42.386 6.339 1.158 8.756.797 2.392 1.838 4.346 3.124 5.863s2.79 2.636 4.513 3.356 3.536 1.08 5.439 1.08 3.716-.36 5.439-1.08c1.723-.745 3.228-1.89 4.513-3.433zm86.831-14.542c0 9.155-2.623 16.432-7.869 21.833-5.246 5.374-12.498 8.062-21.756 8.062-9.232 0-16.471-2.688-21.717-8.062-5.246-5.401-7.869-12.678-7.869-21.833 0-9.232 2.623-16.523 7.869-21.872 5.246-5.374 12.485-8.062 21.717-8.062 9.206 0 16.445 2.688 21.717 8.062 5.272 5.349 7.908 12.64 7.908 21.872zm-19.634 14.542c1.44-1.748 2.507-3.806 3.201-6.172.695-2.391 1.042-5.194 1.042-8.409 0-3.446-.399-6.377-1.196-8.795s-1.839-4.371-3.124-5.863c-1.312-1.543-2.829-2.662-4.552-3.356-1.698-.694-3.472-1.041-5.323-1.041-1.878 0-3.652.334-5.324 1.002-1.646.669-3.163 1.775-4.551 3.318-1.286 1.44-2.341 3.433-3.164 5.979-.797 2.52-1.195 5.452-1.195 8.795 0 3.42.385 6.339 1.157 8.756.797 2.392 1.839 4.346 3.124 5.863s2.791 2.636 4.514 3.356 3.536 1.08 5.439 1.08 3.716-.36 5.438-1.08c1.723-.745 3.228-1.89 4.514-3.433zm83.204 14.157h-14.272l-24.379-39.423v39.423h-13.578v-57.437h17.705l20.946 32.904v-32.904h13.578z" fill="#fff"/><g transform="translate(-9.343 -84.088)"><g clip-path="url(#A)"><g stroke="#fff" stroke-width="3" stroke-miterlimit="10"><path d="M1275.56 336.08c.01-11.8-4.28-23.198-12.07-32.064-7.78-8.865-18.53-14.591-30.24-16.104-1.51-11.72-7.22-22.491-16.09-30.308-8.86-7.817-20.26-12.147-32.07-12.183a47.97 47.97 0 0 0-24.91 6.96c-1.58-10.992-6.21-21.322-13.35-29.823-7.15-8.5-16.53-14.833-27.08-18.282-10.56-3.448-21.87-3.875-32.65-1.233-10.79 2.643-20.62 8.25-28.39 16.188-5.09-20.149-17.13-37.855-33.99-50.001a88.27 88.27 0 0 0-58.194-16.4 88.28 88.28 0 0 0-81.256 79.404 50.55 50.55 0 0 0-20.329-4.395 48.53 48.53 0 0 0-30.38 10.621c-8.623 6.892-14.64 16.518-17.056 27.29l-5.678-.366c-8.09-.002-16.051 2.025-23.155 5.897a48.35 48.35 0 0 0-17.504 16.264c-12.872.122-25.169 5.352-34.185 14.539s-14.013 21.582-13.891 34.454 5.351 25.169 14.539 34.185 21.581 14.013 34.453 13.891h457.136c12.48-.61 24.24-5.986 32.86-15.018s13.45-21.029 13.48-33.516z" fill="#cd5a80"/><path d="M769.886 287.545c6.085 0 12.111 1.199 17.733 3.527a46.34 46.34 0 0 1 25.077 25.078c2.329 5.621 3.527 11.647 3.527 17.732m384.247 50.732c.05-12.306 4.97-24.091 13.69-32.776a46.51 46.51 0 0 1 32.83-13.56m-86.26-86.081c-10.26 8.425-15.39 20.879-15.39 35.348m-86.08-69.597a88.2 88.2 0 0 1-5.13 29.488"/></g><use xlink:href="#E" fill="#cd5a80"/><g stroke="#fff" stroke-width="3" stroke-miterlimit="10"><use xlink:href="#E"/><g fill="#cd5a80"><use xlink:href="#F"/><path d="M816.223 362.453a10.99 10.99 0 0 0 10.989-10.989 10.99 10.99 0 0 0-10.989-10.989 10.99 10.99 0 0 0-10.989 10.989 10.99 10.99 0 0 0 10.989 10.989zm72.894-37.545a10.99 10.99 0 0 0 10.988-10.989 10.99 10.99 0 0 0-10.988-10.989 10.99 10.99 0 0 0-10.989 10.989 10.99 10.99 0 0 0 10.989 10.989zm196.523-17.583a10.99 10.99 0 0 0 10.98-10.989 10.99 10.99 0 0 0-10.98-10.989 10.99 10.99 0 0 0-10.99 10.989 10.99 10.99 0 0 0 10.99 10.989zm-86.084-2.197a10.99 10.99 0 0 0 10.984-10.989 10.99 10.99 0 0 0-10.984-10.989 10.99 10.99 0 0 0-10.989 10.989 10.99 10.99 0 0 0 10.989 10.989zm145.784 2.197a10.99 10.99 0 1 0-10.99-10.989 10.99 10.99 0 0 0 10.99 10.989z"/></g><path d="M816.223 386.812v-24.359m72.894-37.545v60.622m92.856-42.857v44.139m81.687-20.879v17.582m46.33-66.3v70.696"/></g><path d="M727.212 125.458c-.028-7.183-2.66-14.112-7.41-19.501a29.67 29.67 0 0 0-18.414-9.803c-.893-7.138-4.366-13.703-9.763-18.46s-12.347-7.376-19.541-7.364c-5.364-.07-10.638 1.391-15.201 4.212a36.26 36.26 0 0 0-12.138-22.267c-6.594-5.719-15.03-8.868-23.759-8.869a36.63 36.63 0 0 0-25.824 10.806 54.03 54.03 0 0 0-52.198-40.293c-13.315.021-26.15 4.975-36.026 13.904a53.84 53.84 0 0 0-17.453 34.447 30.04 30.04 0 0 0-12.271-2.747 29.49 29.49 0 0 0-18.429 6.49c-5.227 4.195-8.869 10.045-10.326 16.587h-3.48c-4.956-.016-9.836 1.217-14.19 3.586a29.48 29.48 0 0 0-10.718 9.967c-7.482.468-14.5 3.786-19.61 9.271s-7.924 12.72-7.862 20.216a29.67 29.67 0 0 0 28.205 29.304h278.02a29.67 29.67 0 0 0 20.093-9.065c5.285-5.489 8.256-12.802 8.295-20.422z" fill="#cd5a80"/></g><g clip-path="url(#B)"><path d="M792.8 173.854c-.008-4.447-1.626-8.742-4.557-12.088s-6.973-5.518-11.381-6.112c-.376-3.019-1.503-5.895-3.277-8.365a18.2 18.2 0 0 0-6.879-5.778c-2.74-1.321-5.767-1.935-8.805-1.784a18.2 18.2 0 0 0-8.586 2.645 22.33 22.33 0 0 0-7.483-13.728c-4.068-3.525-9.271-5.463-14.653-5.457-2.983-.002-5.936.589-8.689 1.737s-5.25 2.832-7.347 4.953a33.25 33.25 0 0 0-34.663-24.71c-7.756.585-15.061 3.87-20.645 9.283a33.25 33.25 0 0 0-9.92 20.347 17.8 17.8 0 0 0-7.576-1.673c-4.149-.008-8.177 1.402-11.416 3.996a18.2 18.2 0 0 0-6.391 10.27l-2.164-.197c-3.053.003-6.056.77-8.737 2.23s-4.953 3.569-6.611 6.132c-4.607.385-8.899 2.5-12.011 5.919a18.3 18.3 0 0 0-4.764 12.514c.05 4.624 1.848 9.057 5.033 12.408s7.521 5.374 12.136 5.659h171.874c4.698-.202 9.139-2.206 12.4-5.594s5.091-7.904 5.112-12.607z" fill="#cd5a80"/></g></g><path d="M742.076 37.08l10.765-19.168" stroke="#e7e3e3"/><g clip-path="url(#C)" transform="translate(-9.343 -84.088)"><path d="M1351.8 497.854c-.01-4.447-1.63-8.742-4.56-12.088s-6.97-5.518-11.38-6.112a18.07 18.07 0 0 0-3.28-8.365c-1.77-2.471-4.13-4.457-6.87-5.778a18.21 18.21 0 0 0-8.81-1.784 18.22 18.22 0 0 0-8.59 2.645 22.27 22.27 0 0 0-7.48-13.728c-4.07-3.525-9.27-5.463-14.65-5.457a22.54 22.54 0 0 0-8.69 1.737c-2.75 1.149-5.25 2.832-7.35 4.953a33.19 33.19 0 0 0-12.86-18.628 33.23 33.23 0 0 0-21.8-6.082c-7.76.585-15.06 3.87-20.65 9.283a33.3 33.3 0 0 0-9.92 20.347 17.76 17.76 0 0 0-7.57-1.673 18.22 18.22 0 0 0-11.42 3.996 18.21 18.21 0 0 0-6.39 10.27l-2.16-.197c-3.05.003-6.06.77-8.74 2.23s-4.95 3.569-6.61 6.132a18.29 18.29 0 0 0-12.01 5.919c-3.11 3.42-4.81 7.891-4.76 12.514.04 4.624 1.84 9.057 5.03 12.408 3.18 3.352 7.52 5.374 12.13 5.659h171.88a18.3 18.3 0 0 0 17.51-18.201z" fill="#cd5a80"/></g><path d="M1301.077 361.08l10.76-19.168" stroke="#e7e3e3"/><g clip-path="url(#D)" transform="translate(-9.343 -84.088)" fill="#fff"><path d="M177 395.44v28.44l53.61-29.75V367zm53.72 26.03v-27.34l24.38 13.27v27.06z"/><path d="M206.2 461.26l24.52-13v-26.79l-24.39 12.72zm93.436-50.405H287.93v12.325h-5.054v-29.084h18.478v4.075H287.93v8.649h11.706zm10.427 12.325h-4.854v-21.614h4.854zm-5.154-27.227c0-.745.233-1.365.7-1.857.479-.493 1.158-.739 2.037-.739s1.558.246 2.038.739.719 1.112.719 1.857c0 .733-.24 1.345-.719 1.838-.48.479-1.159.719-2.038.719s-1.558-.24-2.037-.719c-.467-.493-.7-1.105-.7-1.838zm15.621 27.227h-4.854v-30.682h4.854zm14.822.4c-3.076 0-5.573-.966-7.491-2.897-1.904-1.944-2.856-4.528-2.856-7.75v-.6c0-2.157.413-4.081 1.238-5.773.839-1.704 2.011-3.029 3.516-3.975s3.183-1.418 5.034-1.418c2.943 0 5.214.939 6.812 2.817 1.611 1.877 2.417 4.534 2.417 7.97v1.957h-14.123c.146 1.785.739 3.196 1.778 4.235 1.052 1.039 2.37 1.558 3.955 1.558 2.224 0 4.035-.899 5.433-2.696l2.617 2.497c-.866 1.291-2.024 2.297-3.476 3.016-1.438.706-3.056 1.059-4.854 1.059zm-.579-18.518c-1.332 0-2.41.466-3.236 1.398-.812.933-1.332 2.231-1.558 3.896h9.248v-.36c-.106-1.625-.539-2.85-1.298-3.675-.759-.839-1.811-1.259-3.156-1.259zm28.705 10.627c0-1.278-.453-2.264-1.358-2.956-.893-.693-2.511-1.392-4.855-2.098s-4.208-1.491-5.593-2.357c-2.65-1.664-3.975-3.835-3.975-6.512 0-2.344.952-4.275 2.857-5.793 1.917-1.518 4.401-2.277 7.451-2.277 2.024 0 3.828.373 5.413 1.119s2.83 1.811 3.735 3.196c.906 1.371 1.359 2.896 1.359 4.574h-5.034c0-1.518-.48-2.703-1.438-3.555-.946-.866-2.304-1.299-4.075-1.299-1.652 0-2.937.353-3.856 1.059-.905.706-1.358 1.691-1.358 2.956 0 1.066.493 1.958 1.478 2.677.986.706 2.61 1.398 4.874 2.077 2.264.666 4.082 1.432 5.454 2.298 1.371.852 2.377 1.837 3.016 2.956.639 1.105.959 2.404.959 3.895 0 2.424-.933 4.355-2.797 5.793-1.851 1.425-4.368 2.138-7.551 2.138-2.104 0-4.041-.387-5.813-1.159-1.757-.786-3.129-1.864-4.115-3.236-.972-1.372-1.458-2.97-1.458-4.794h5.054c0 1.651.546 2.93 1.638 3.835s2.657 1.358 4.694 1.358c1.758 0 3.077-.352 3.955-1.058.893-.719 1.339-1.665 1.339-2.837zm17.898 4.015c1.212 0 2.217-.353 3.016-1.058s1.225-1.578 1.279-2.617h4.574c-.053 1.345-.473 2.603-1.258 3.775-.786 1.159-1.851 2.078-3.196 2.757s-2.797 1.019-4.355 1.019c-3.023 0-5.42-.979-7.191-2.937s-2.657-4.661-2.657-8.11v-.499c0-3.29.879-5.92 2.637-7.891 1.758-1.984 4.155-2.976 7.191-2.976 2.57 0 4.661.752 6.272 2.257 1.625 1.492 2.477 3.456 2.557 5.893h-4.574c-.054-1.238-.48-2.257-1.279-3.056-.785-.799-1.791-1.199-3.016-1.199-1.571 0-2.783.573-3.636 1.718-.852 1.132-1.285 2.857-1.298 5.174v.779c0 2.344.419 4.095 1.258 5.253.853 1.146 2.078 1.718 3.676 1.718zm17.698 3.476h-4.854v-21.614h4.854zm-5.153-27.227c0-.745.233-1.365.699-1.857.479-.493 1.158-.739 2.037-.739s1.558.246 2.038.739.719 1.112.719 1.857c0 .733-.24 1.345-.719 1.838-.48.479-1.159.719-2.038.719s-1.558-.24-2.037-.719c-.466-.493-.699-1.105-.699-1.838zm19.975 27.627c-3.076 0-5.573-.966-7.491-2.897-1.904-1.944-2.856-4.528-2.856-7.75v-.6c0-2.157.413-4.081 1.238-5.773.839-1.704 2.011-3.029 3.516-3.975s3.183-1.418 5.034-1.418c2.943 0 5.214.939 6.812 2.817 1.611 1.877 2.417 4.534 2.417 7.97v1.957h-14.123c.146 1.785.739 3.196 1.778 4.235 1.052 1.039 2.37 1.558 3.955 1.558 2.224 0 4.035-.899 5.433-2.696l2.617 2.497c-.866 1.291-2.024 2.297-3.476 3.016-1.438.706-3.056 1.059-4.854 1.059zm-.579-18.518c-1.332 0-2.41.466-3.236 1.398-.812.933-1.332 2.231-1.558 3.896h9.249v-.36c-.107-1.625-.54-2.85-1.299-3.675-.759-.839-1.811-1.259-3.156-1.259zm17.539-3.496l.139 2.497c1.598-1.931 3.696-2.896 6.293-2.896 4.501 0 6.791 2.577 6.871 7.731v14.282h-4.854v-14.003c0-1.371-.299-2.384-.899-3.036-.586-.666-1.551-.999-2.896-.999-1.958 0-3.416.886-4.375 2.657v15.381h-4.854v-21.614zm27.146 18.138c1.212 0 2.218-.353 3.017-1.058s1.225-1.578 1.278-2.617h4.574c-.053 1.345-.472 2.603-1.258 3.775-.786 1.159-1.851 2.078-3.196 2.757s-2.797 1.019-4.355 1.019c-3.023 0-5.42-.979-7.191-2.937s-2.657-4.661-2.657-8.11v-.499c0-3.29.879-5.92 2.637-7.891 1.758-1.984 4.155-2.976 7.191-2.976 2.57 0 4.661.752 6.273 2.257 1.624 1.492 2.477 3.456 2.556 5.893h-4.574c-.053-1.238-.479-2.257-1.278-3.056-.786-.799-1.791-1.199-3.017-1.199-1.571 0-2.783.573-3.635 1.718-.853 1.132-1.285 2.857-1.299 5.174v.779c0 2.344.42 4.095 1.259 5.253.852 1.146 2.077 1.718 3.675 1.718zm22.053 3.876c-3.076 0-5.573-.966-7.49-2.897-1.905-1.944-2.857-4.528-2.857-7.75v-.6c0-2.157.413-4.081 1.239-5.773.838-1.704 2.01-3.029 3.515-3.975s3.183-1.418 5.034-1.418c2.943 0 5.214.939 6.812 2.817 1.611 1.877 2.417 4.534 2.417 7.97v1.957h-14.123c.147 1.785.739 3.196 1.778 4.235 1.052 1.039 2.37 1.558 3.955 1.558 2.224 0 4.035-.899 5.433-2.696l2.617 2.497c-.865 1.291-2.024 2.297-3.476 3.016-1.438.706-3.056 1.059-4.854 1.059zm-.579-18.518c-1.332 0-2.41.466-3.236 1.398-.812.933-1.332 2.231-1.558 3.896h9.249v-.36c-.107-1.625-.54-2.85-1.299-3.675-.759-.839-1.811-1.259-3.156-1.259z"/></g><defs><clipPath id="A"><path fill="#fff" transform="translate(723 150)" d="M0 0h555.309v248.9H0z"/></clipPath><clipPath id="B"><path fill="#fff" transform="translate(586 104.888)" d="M0 0h206.8v93.758H0z"/></clipPath><clipPath id="C"><path fill="#fff" transform="translate(1145 428.888)" d="M0 0h206.8v93.758H0z"/></clipPath><clipPath id="D"><path fill="#fff" transform="translate(177 367)" d="M0 0h312.85v94.26H0z"/></clipPath><path id="E" d="M1001.75 287.545a41.93 41.93 0 0 1 12.29-29.657c7.86-7.865 18.53-12.284 29.65-12.284a41.93 41.93 0 0 1 41.95 41.941"/><path id="F" d="M889.117 254.212a10.99 10.99 0 0 0 10.988-10.989 10.99 10.99 0 0 0-10.988-10.989 10.99 10.99 0 0 0-10.989 10.989 10.99 10.99 0 0 0 10.989 10.989z"/></defs></svg>