<svg xmlns="http://www.w3.org/2000/svg" width="414" height="896" fill="none"  xmlns:v="https://vecta.io/nano"><g clip-path="url(#A)"><path fill="#655f9e" d="M45 417h324.826v62H45z"/><path d="M74.817 462.937c-1.918 0-3.691-.283-5.32-.849-1.618-.566-3.01-1.409-4.177-2.53s-2.074-2.519-2.721-4.194c-.636-1.675-.953-3.611-.953-5.806 0-2.045.306-3.899.919-5.563s1.502-3.09 2.669-4.28c1.121-1.144 2.507-2.028 4.159-2.652 1.664-.624 3.478-.936 5.442-.936a20.33 20.33 0 0 1 2.929.191c.878.115 1.687.271 2.426.468.774.219 1.473.468 2.097.745l1.664.745v6.256h-.763l-1.23-.987c-.485-.382-1.04-.757-1.664-1.127a11.53 11.53 0 0 0-2.062-.936c-.739-.254-1.531-.381-2.374-.381a7.88 7.88 0 0 0-2.669.451c-.843.288-1.623.774-2.34 1.455-.682.659-1.236 1.531-1.664 2.617-.416 1.086-.624 2.403-.624 3.952 0 1.617.225 2.969.676 4.055.462 1.086 1.04 1.941 1.733 2.565a6.41 6.41 0 0 0 2.357 1.369c.867.266 1.721.399 2.565.399a8.08 8.08 0 0 0 2.392-.364c.797-.243 1.531-.572 2.201-.988a14.41 14.41 0 0 0 1.577-1.075l1.196-.988h.693v6.17l-1.854.815a15.31 15.31 0 0 1-1.854.658 22.18 22.18 0 0 1-2.374.555c-.739.127-1.756.19-3.05.19zm39.115-13.396c0 4.113-1.179 7.383-3.535 9.809-2.357 2.415-5.616 3.622-9.775 3.622-4.148 0-7.4-1.207-9.757-3.622-2.357-2.426-3.535-5.696-3.535-9.809 0-4.148 1.178-7.423 3.535-9.826 2.357-2.415 5.609-3.622 9.757-3.622 4.136 0 7.389 1.207 9.757 3.622 2.369 2.403 3.553 5.678 3.553 9.826zm-8.821 6.534c.647-.786 1.126-1.71 1.438-2.773.312-1.075.468-2.334.468-3.778 0-1.549-.179-2.866-.537-3.952s-.826-1.964-1.404-2.634c-.589-.693-1.271-1.196-2.045-1.508-.762-.312-1.56-.468-2.391-.468-.844 0-1.641.151-2.392.451-.739.3-1.421.797-2.045 1.49-.578.647-1.051 1.543-1.421 2.687-.358 1.132-.537 2.449-.537 3.951 0 1.537.173 2.848.52 3.934.358 1.074.826 1.953 1.404 2.634s1.254 1.184 2.028 1.508 1.589.485 2.444.485 1.669-.162 2.443-.485c.774-.335 1.45-.849 2.028-1.542zm40.969 6.36h-6.62v-17.279l-4.783 11.213h-4.593l-4.783-11.213v17.279h-6.274V436.63h7.729l5.806 12.946 5.789-12.946h7.729v25.805zm20.554 0h-15.112v-4.575h4.228v-16.655h-4.228v-4.575h15.112v4.575h-4.229v16.655h4.229v4.575zm28.89 0h-6.413l-10.952-17.712v17.712h-6.101V436.63h7.955l9.41 14.783V436.63h6.101v25.805zm29.409-1.473c-1.155.45-2.686.901-4.592 1.352-1.906.439-3.807.658-5.702.658-4.39 0-7.827-1.19-10.311-3.57-2.484-2.392-3.726-5.69-3.726-9.896 0-4.009 1.253-7.238 3.76-9.687 2.507-2.461 6.002-3.692 10.485-3.692 1.699 0 3.316.156 4.853.468 1.536.301 3.246.907 5.129 1.82v6.048h-.745a63.04 63.04 0 0 0-1.421-1.022 16.47 16.47 0 0 0-1.802-1.144c-.67-.37-1.456-.688-2.357-.953-.89-.266-1.837-.399-2.842-.399-1.179 0-2.248.173-3.206.52s-1.82.878-2.583 1.594c-.728.694-1.305 1.577-1.733 2.652-.416 1.063-.624 2.293-.624 3.691 0 2.854.757 5.038 2.271 6.551s3.749 2.271 6.707 2.271a20.9 20.9 0 0 0 .831-.018c.312-.011.595-.029.85-.052v-5.06h-5.148v-4.87h11.906v12.738zm38.769-6.638c0 2.542-1.081 4.61-3.241 6.204-2.149 1.583-5.072 2.375-8.769 2.375-2.138 0-4.004-.185-5.598-.555-1.583-.381-3.068-.861-4.454-1.438v-6.187h.728c1.375 1.097 2.911 1.941 4.61 2.53 1.71.589 3.35.884 4.922.884.404 0 .935-.035 1.594-.104s1.196-.185 1.612-.347c.508-.208.924-.468 1.248-.78.335-.312.502-.774.502-1.386 0-.566-.242-1.051-.728-1.456-.473-.416-1.172-.733-2.097-.953-.97-.231-1.998-.445-3.085-.641-1.074-.208-2.085-.468-3.032-.78-2.172-.705-3.738-1.658-4.697-2.86-.947-1.213-1.421-2.715-1.421-4.506 0-2.403 1.074-4.361 3.223-5.875 2.161-1.525 4.934-2.287 8.319-2.287a25.23 25.23 0 0 1 5.026.502c1.664.324 3.102.734 4.315 1.231v5.944h-.71c-1.04-.832-2.317-1.525-3.83-2.079-1.502-.567-3.039-.85-4.61-.85a11.5 11.5 0 0 0-1.664.122c-.543.069-1.069.208-1.577.416a2.98 2.98 0 0 0-1.161.797c-.324.346-.485.745-.485 1.196 0 .681.259 1.207.779 1.577.52.358 1.502.687 2.947.988l2.72.571a28.14 28.14 0 0 1 2.825.763c1.976.647 3.432 1.531 4.368 2.652.947 1.109 1.421 2.553 1.421 4.332zm29.669-4.783c0 4.113-1.178 7.383-3.535 9.809-2.357 2.415-5.615 3.622-9.774 3.622-4.148 0-7.4-1.207-9.757-3.622-2.357-2.426-3.536-5.696-3.536-9.809 0-4.148 1.179-7.423 3.536-9.826 2.357-2.415 5.609-3.622 9.757-3.622 4.136 0 7.388 1.207 9.757 3.622 2.368 2.403 3.552 5.678 3.552 9.826zm-8.821 6.534c.647-.786 1.127-1.71 1.439-2.773.312-1.075.468-2.334.468-3.778 0-1.549-.18-2.866-.538-3.952s-.826-1.964-1.403-2.634c-.59-.693-1.271-1.196-2.045-1.508a6.26 6.26 0 0 0-2.392-.468 6.39 6.39 0 0 0-2.392.451c-.739.3-1.421.797-2.045 1.49-.577.647-1.051 1.543-1.421 2.687-.358 1.132-.537 2.449-.537 3.951 0 1.537.173 2.848.52 3.934.358 1.074.826 1.953 1.404 2.634a5.33 5.33 0 0 0 2.027 1.508c.774.323 1.589.485 2.444.485s1.669-.162 2.444-.485c.774-.335 1.45-.849 2.027-1.542zm39.011-6.534c0 4.113-1.178 7.383-3.535 9.809-2.357 2.415-5.615 3.622-9.775 3.622-4.147 0-7.4-1.207-9.757-3.622-2.357-2.426-3.535-5.696-3.535-9.809 0-4.148 1.178-7.423 3.535-9.826 2.357-2.415 5.61-3.622 9.757-3.622 4.136 0 7.389 1.207 9.757 3.622 2.369 2.403 3.553 5.678 3.553 9.826zm-8.821 6.534c.647-.786 1.126-1.71 1.438-2.773.312-1.075.468-2.334.468-3.778 0-1.549-.179-2.866-.537-3.952s-.826-1.964-1.404-2.634c-.589-.693-1.271-1.196-2.045-1.508-.762-.312-1.56-.468-2.391-.468-.844 0-1.641.151-2.392.451-.739.3-1.421.797-2.045 1.49-.578.647-1.051 1.543-1.421 2.687-.358 1.132-.537 2.449-.537 3.951 0 1.537.173 2.848.52 3.934.358 1.074.826 1.953 1.403 2.634a5.34 5.34 0 0 0 2.028 1.508c.774.323 1.589.485 2.444.485a6.28 6.28 0 0 0 2.443-.485c.774-.335 1.45-.849 2.028-1.542zm37.382 6.36h-6.413l-10.952-17.712v17.712h-6.101V436.63h7.955l9.41 14.783V436.63h6.101v25.805z" fill="#fff"/><g clip-path="url(#B)" fill="#fff"><path d="M125 820.354v13.354l25.173-13.969V807L125 820.354zm25.224 12.223v-12.838l11.448 6.231v12.706l-11.448-6.099z"/><path d="M138.711 851.26l11.513-6.104v-12.579l-11.452 5.972-.061 12.711zm43.873-23.511h-5.496v5.787h-2.374V819.88h8.677v1.913h-6.303v4.062h5.496v1.894zm4.896 5.787h-2.279v-10.148h2.279v10.148zm-2.42-12.784c0-.35.11-.641.328-.872.226-.232.544-.347.957-.347s.732.115.957.347a1.2 1.2 0 0 1 .338.872c0 .344-.113.632-.338.863-.225.225-.544.338-.957.338s-.731-.113-.957-.338a1.21 1.21 0 0 1-.328-.863zm7.335 12.784h-2.279v-14.407h2.279v14.407zm6.96.188c-1.445 0-2.617-.453-3.518-1.36-.894-.913-1.341-2.126-1.341-3.639v-.282c0-1.013.194-1.916.582-2.71.394-.801.944-1.423 1.65-1.867s1.495-.666 2.364-.666c1.382 0 2.448.441 3.198 1.323.757.881 1.135 2.129 1.135 3.742v.919h-6.631c.069.838.347 1.501.835 1.989.494.488 1.113.731 1.857.731 1.044 0 1.895-.422 2.551-1.266l1.229 1.173c-.407.606-.951 1.078-1.632 1.416-.675.331-1.435.497-2.279.497zm-.272-8.695c-.626 0-1.132.219-1.52.657-.381.438-.625 1.047-.731 1.829h4.342v-.169c-.05-.763-.253-1.338-.609-1.726-.357-.394-.851-.591-1.482-.591zm13.478 4.99c0-.6-.212-1.063-.638-1.388-.419-.325-1.178-.653-2.279-.985s-1.976-.7-2.626-1.107c-1.245-.781-1.867-1.801-1.867-3.057 0-1.101.447-2.008 1.342-2.72s2.066-1.07 3.498-1.07c.951 0 1.798.175 2.542.525s1.329.851 1.754 1.501c.425.644.638 1.36.638 2.148h-2.364c0-.713-.225-1.269-.675-1.669-.444-.407-1.082-.61-1.914-.61-.775 0-1.378.166-1.81.497-.425.331-.638.794-.638 1.388 0 .5.232.919.694 1.257.463.331 1.226.657 2.289.976 1.063.312 1.917.672 2.561 1.078.644.4 1.116.863 1.416 1.388.3.519.45 1.129.45 1.829 0 1.138-.438 2.045-1.313 2.72-.869.67-2.051 1.004-3.545 1.004-.988 0-1.898-.181-2.73-.544-.825-.369-1.469-.875-1.932-1.519-.457-.644-.685-1.395-.685-2.252h2.373c0 .776.257 1.376.769 1.801s1.248.638 2.205.638c.825 0 1.444-.166 1.857-.497.419-.338.628-.782.628-1.332zm8.404 1.885c.569 0 1.041-.165 1.417-.497s.575-.741.6-1.228h2.148a3.37 3.37 0 0 1-.591 1.772c-.369.544-.869.976-1.501 1.295a4.47 4.47 0 0 1-2.045.478c-1.419 0-2.545-.46-3.376-1.379s-1.248-2.188-1.248-3.808v-.234c0-1.545.413-2.78 1.238-3.705.826-.932 1.951-1.398 3.377-1.398 1.207 0 2.189.353 2.945 1.06.763.7 1.163 1.623 1.201 2.767h-2.148c-.025-.581-.225-1.06-.6-1.435-.369-.375-.842-.563-1.417-.563-.738 0-1.307.269-1.707.807-.4.531-.603 1.341-.61 2.429v.366c0 1.101.197 1.923.591 2.467.401.538.976.806 1.726.806zm8.311 1.632h-2.28v-10.148h2.28v10.148zm-2.42-12.784c0-.35.109-.641.328-.872.225-.232.544-.347.957-.347s.731.115.956.347a1.2 1.2 0 0 1 .338.872c0 .344-.113.632-.338.863-.225.225-.544.338-.956.338s-.732-.113-.957-.338c-.219-.231-.328-.519-.328-.863zm9.379 12.972c-1.444 0-2.617-.453-3.517-1.36-.894-.913-1.341-2.126-1.341-3.639v-.282c0-1.013.193-1.916.581-2.71.394-.801.944-1.423 1.651-1.867a4.35 4.35 0 0 1 2.364-.666c1.381 0 2.448.441 3.198 1.323.757.881 1.135 2.129 1.135 3.742v.919h-6.631c.068.838.347 1.501.834 1.989.494.488 1.113.731 1.857.731 1.045 0 1.895-.422 2.552-1.266l1.228 1.173a4.13 4.13 0 0 1-1.632 1.416c-.675.331-1.435.497-2.279.497zm-.272-8.695c-.625 0-1.132.219-1.519.657s-.626 1.047-.732 1.829h4.343v-.169c-.05-.763-.253-1.338-.61-1.726-.356-.394-.85-.591-1.482-.591zm8.235-1.641l.066 1.172c.75-.906 1.735-1.36 2.955-1.36 2.113 0 3.189 1.21 3.226 3.63v6.706h-2.279v-6.575c0-.644-.141-1.119-.422-1.425-.275-.313-.729-.469-1.36-.469-.919 0-1.604.416-2.054 1.247v7.222h-2.279v-10.148h2.147zm12.747 8.516c.569 0 1.041-.165 1.417-.497s.575-.741.6-1.228h2.148a3.37 3.37 0 0 1-.591 1.772c-.369.544-.869.976-1.501 1.295a4.47 4.47 0 0 1-2.045.478c-1.419 0-2.545-.46-3.376-1.379s-1.248-2.188-1.248-3.808v-.234c0-1.545.413-2.78 1.238-3.705.826-.932 1.951-1.398 3.377-1.398 1.207 0 2.189.353 2.945 1.06.763.7 1.163 1.623 1.201 2.767h-2.148c-.025-.581-.225-1.06-.6-1.435-.369-.375-.841-.563-1.417-.563-.738 0-1.307.269-1.707.807-.4.531-.603 1.341-.609 2.429v.366c0 1.101.197 1.923.59 2.467.401.538.976.806 1.726.806zm10.355 1.82c-1.444 0-2.617-.453-3.517-1.36-.894-.913-1.341-2.126-1.341-3.639v-.282c0-1.013.194-1.916.581-2.71.394-.801.944-1.423 1.651-1.867s1.495-.666 2.364-.666c1.382 0 2.448.441 3.198 1.323.757.881 1.135 2.129 1.135 3.742v.919h-6.631c.069.838.347 1.501.835 1.989.494.488 1.113.731 1.857.731 1.044 0 1.894-.422 2.551-1.266l1.229 1.173c-.407.606-.951 1.078-1.632 1.416-.676.331-1.435.497-2.28.497zm-.272-8.695c-.625 0-1.131.219-1.519.657-.382.438-.625 1.047-.732 1.829h4.343v-.169c-.05-.763-.253-1.338-.61-1.726-.356-.394-.85-.591-1.482-.591z"/></g><g clip-path="url(#C)"><path d="M518.8 270.829a35.04 35.04 0 0 0-8.677-23.02c-5.58-6.372-13.279-10.506-21.673-11.639-.717-5.747-2.862-11.224-6.241-15.929s-7.882-8.487-13.099-11.003-10.982-3.683-16.767-3.397a34.67 34.67 0 0 0-16.35 5.038c-1.444-10.147-6.505-19.431-14.25-26.143a42.53 42.53 0 0 0-27.902-10.39c-5.68-.003-11.305 1.121-16.547 3.308a42.9 42.9 0 0 0-13.991 9.432 63.32 63.32 0 0 0-24.487-35.474 63.33 63.33 0 0 0-41.52-11.582c-14.768 1.114-28.679 7.369-39.313 17.678a63.32 63.32 0 0 0-18.89 38.745c-4.516-2.109-9.441-3.196-14.425-3.185a34.66 34.66 0 0 0-33.91 27.165l-4.121-.374c-5.814.005-11.533 1.466-16.637 4.247a34.83 34.83 0 0 0-12.589 11.677 34.85 34.85 0 0 0-31.944 35.101c.095 8.804 3.519 17.246 9.584 23.628a34.84 34.84 0 0 0 23.109 10.776h327.292c8.948-.385 17.403-4.2 23.613-10.654s9.695-15.049 9.735-24.005z" fill="#cd5a80"/></g><g clip-path="url(#D)"><path d="M172.8 747.966c-.008-4.448-1.626-8.742-4.557-12.088s-6.973-5.518-11.381-6.113c-.376-3.018-1.503-5.894-3.277-8.365a18.21 18.21 0 0 0-6.879-5.778c-2.74-1.321-5.767-1.934-8.805-1.784a18.2 18.2 0 0 0-8.586 2.646c-.759-5.329-3.416-10.204-7.483-13.729s-9.271-5.462-14.653-5.456a22.54 22.54 0 0 0-8.689 1.737c-2.753 1.148-5.25 2.832-7.347 4.953-1.976-7.522-6.526-14.114-12.859-18.629s-14.048-6.666-21.804-6.081-15.061 3.869-20.645 9.283a33.25 33.25 0 0 0-9.92 20.346c-2.372-1.107-4.958-1.678-7.575-1.672-4.15-.009-8.178 1.401-11.417 3.996a18.2 18.2 0 0 0-6.391 10.269l-2.164-.197c-3.053.004-6.056.77-8.737 2.231a18.3 18.3 0 0 0-6.611 6.132c-4.607.385-8.899 2.5-12.011 5.919a18.3 18.3 0 0 0 .269 24.922 18.3 18.3 0 0 0 12.136 5.659h171.874a18.3 18.3 0 0 0 17.512-18.201z" fill="#cd5a80"/></g></g><defs><clipPath id="A"><path fill="#fff" d="M0 0h414v896H0z"/></clipPath><clipPath id="B"><path fill="#fff" transform="translate(125 807)" d="M0 0h146.899v44.26H0z"/></clipPath><clipPath id="C"><path fill="#fff" transform="translate(125 139.5)" d="M0 0h393.8v178.54H0z"/></clipPath><clipPath id="D"><path fill="#fff" transform="translate(-34 679)" d="M0 0h206.8v93.758H0z"/></clipPath></defs></svg>