<svg id="twitter-circle" version="1.1" xmlns="http://www.w3.org/2000/svg" xmlns:xlink="http://www.w3.org/1999/xlink" x="0px" y="0px" viewBox="0 0 500 500" style="enable-background:new 0 0 500 500;" xml:space="preserve"> <path d="M250,3C113.6,3,3,113.6,3,250s110.6,247,247,247s247-110.6,247-247S386.4,3,250,3z M387.5,196.6c0.2,2.8,0.2,5.7,0.2,8.5 c0,87-66.2,187.2-187.2,187.2c-37.3,0-71.9-10.8-101-29.5c5.3,0.6,10.4,0.8,15.9,0.8c30.8,0,59.1-10.4,81.7-28.1 c-28.9-0.6-53.2-19.6-61.5-45.6c4.1,0.6,8.2,1,12.4,1c5.9,0,11.8-0.8,17.3-2.2c-30.1-6.1-52.8-32.6-52.8-64.6v-0.8 c8.8,4.9,18.9,7.9,29.7,8.4c-17.7-11.8-29.3-32-29.3-54.8c0-12.2,3.3-23.4,9-33.2c32.4,39.9,81.1,66,135.7,68.9 c-1-4.9-1.6-10-1.6-15.1c0-36.2,29.3-65.8,65.8-65.8c18.9,0,36.1,8,48.1,20.8c14.9-2.8,29.1-8.3,41.8-15.9 c-4.9,15.3-15.3,28.1-28.9,36.3c13.2-1.4,26.1-5.1,37.9-10.2C411.5,175.6,400.3,187.2,387.5,196.6z" style="fill: rgb(187, 187, 187);"/> </svg>