<svg xmlns="http://www.w3.org/2000/svg" xmlns:xlink="http://www.w3.org/1999/xlink" width="1250" height="940" style="background-color:transparent"><style>.a{fill:none;stroke:#fff;stroke-miterlimit:10}.b{fill:#fff}.c,.d{fill:#dc5a80}.d,.e{stroke:#fff;stroke-width:3;stroke-miterlimit:10}.e{fill:none}</style><g id="Lines"><path id="theMotionPath1" class="a" d="M181.5 359.1v505.2c0 28.4 28.5 51.4 63.7 51.4h158.9c35.2 0 63.7-23 63.7-51.4l-1-264.3"/><path id="theMotionPath2" class="a" d="M979.6 147.7v716.7c0 28.4-28.5 51.4-63.7 51.4h-125c-35.2 0-63.7-23-63.7-51.4V603.3"/><path id="theMotionPath3" class="a" d="M1115.4 480.5V751c0 33.6-28.5 60.8-63.7 60.8H886c-35.2 0-63.7-27.2-63.7-60.8V603.1"/></g><g id="ball_3"><circle class="b" r="11"/><animateTransform begin="animation3.end" id="pause" dur="1s" type="translate" attributeType="XML" attributeName="transform"/><animateMotion id="animation3" begin="0; pause.end + 0.2s" keyTimes="0;1" keySplines="0.36 0.39 0.49 0.73" dur="3s" fill="freeze" restart="whenNotActive"><mpath xlink:href="#theMotionPath3"/></animateMotion></g><g id="ball_2"><circle class="b" r="11"/><animateTransform begin="animation2.end" id="pause" dur="1s" type="translate" attributeType="XML" attributeName="transform"/><animateMotion id="animation2" begin="0; pause.end + 0.1s" keyTimes="0;1" keySplines="0.36 0.39 0.49 0.73" dur="3.5s" fill="freeze" restart="whenNotActive"><mpath xlink:href="#theMotionPath2"/></animateMotion></g><g id="ball_1"><circle class="b" r="11"/><animateTransform begin="animation1.end" id="pause" dur="1s" type="translate" attributeType="XML" attributeName="transform"/><animateMotion id="animation1" begin="0; pause.end" keyTimes="0;1" keySplines="0.36 0.39 0.49 0.73" dur="4s" fill="freeze" restart="whenNotActive"><mpath xlink:href="#theMotionPath1"/></animateMotion></g><g id="Clouds"><g id="right_big_2_"><path class="c" d="M1176 143.9a35 35 0 00-30.4-34.6 34.9 34.9 0 00-52.5-25.5 42.8 42.8 0 00-72.8-23.8 63.4 63.4 0 00-124.5 9.4 34.8 34.8 0 00-48.6 24c-1.3-.2-2.7-.2-4-.2a34.8 34.8 0 00-29.3 15.9 34.8 34.8 0 00.8 69.6h328.1a34.9 34.9 0 0033.2-34.8z"/><path class="c" d="M957.1 177.6h43v4.5h-43zm6.8 4.6h29.4v9.1h-29.4z"/></g><g id="small_right_2_"><path class="c" d="M1240.3 516.8a22 22 0 00-19.1-21.7 22 22 0 00-32.9-16 27 27 0 00-45.8-15 39.8 39.8 0 00-78.2 6 22 22 0 00-30.6 15.1 21 21 0 00-20.9 9.8 21.9 21.9 0 00.5 43.7h206.1a21.9 21.9 0 0020.9-21.9z"/><path class="c" d="M1094.8 537.6h43v4.5h-43zm6.8 4.5h29.4v9.1h-29.4z"/></g><g id="main_2_"><path class="d" d="M915.1 577.2a49.8 49.8 0 00-43.4-49.4 49.7 49.7 0 00-74.9-36.4 61.1 61.1 0 00-104.1-34 90.7 90.7 0 00-177.8 13.4 49.9 49.9 0 00-69.4 34.2 49.8 49.8 0 00-47.6 22.5 49.8 49.8 0 001 99.5v.1h468.7v-.1a49.8 49.8 0 0047.5-49.8z"/><path class="e" d="M396.6 527.4a47.5 47.5 0 0147.5 47.5m394 52.1a47.5 47.5 0 0147.5-47.5m-88.3-88.3a45.2 45.2 0 00-15.8 36.2m-88.3-71.3c0 10.6-1.8 20.8-5.2 30.2"/><path class="d" d="M634.3 527.4a43 43 0 1186 0"/><circle class="d" cx="518.9" cy="482.1" r="11.3"/><circle class="d" cx="444.2" cy="593.1" r="11.3"/><circle class="d" cx="518.9" cy="554.6" r="11.3"/><circle class="d" cx="720.4" cy="536.5" r="11.3"/><circle class="d" cx="632.1" cy="534.2" r="11.3"/><circle class="d" cx="781.5" cy="536.5" r="11.3"/><path class="e" d="M444.2 629.3v-24.9m74.7-38.5v62M614 584v45.3m83.7-21.5v18.1m47.6-67.9v72.4"/><path class="b" d="M445.3 628.2h43v4.5h-43zm6.8 4.5h29.4v9.1h-29.4zm255.8-4.5h43v4.5h-43zm6.8 4.5h29.4v9.1h-29.4zm86-4.5h43v4.5h-43zm6.8 4.5h29.4v9.1h-29.4z"/></g><g id="back_left_2_"><path class="c" d="M352.7 361.3a30.4 30.4 0 00-26.4-30.1 30.3 30.3 0 00-45.6-22.1 37.2 37.2 0 00-63.3-20.7 55.2 55.2 0 00-108.2 8.2 30.4 30.4 0 00-42.3 20.8l-3.5-.2A30 30 0 0038 331.1a30.3 30.3 0 00.6 60.5h285.1c16.2-.8 29-14 29-30.3z"/><path class="c" d="M160 390.5h43v4.5h-43zm6.8 4.5h29.4v9.1h-29.4z"/></g></g></svg>